%TF.GenerationSoftware,KiCad,Pcbnew,(6.0.9)*%
%TF.CreationDate,2023-03-12T14:29:19+01:00*%
%TF.ProjectId,ESP32-C3 Devboard,45535033-322d-4433-9320-446576626f61,rev?*%
%TF.SameCoordinates,Original*%
%TF.FileFunction,Legend,Bot*%
%TF.FilePolarity,Positive*%
%FSLAX46Y46*%
G04 Gerber Fmt 4.6, Leading zero omitted, Abs format (unit mm)*
G04 Created by KiCad (PCBNEW (6.0.9)) date 2023-03-12 14:29:19*
%MOMM*%
%LPD*%
G01*
G04 APERTURE LIST*
%ADD10C,0.150000*%
%TA.AperFunction,Profile*%
%ADD11C,0.100000*%
%TD*%
%ADD12C,0.120000*%
G04 APERTURE END LIST*
D10*
G36*
X126460000Y-91500000D02*
G01*
X125460000Y-91500000D01*
X124460000Y-89500000D01*
X123460000Y-91500000D01*
X122460000Y-91500000D01*
X124460000Y-87500000D01*
X126460000Y-91500000D01*
G37*
X126460000Y-91500000D02*
X125460000Y-91500000D01*
X124460000Y-89500000D01*
X123460000Y-91500000D01*
X122460000Y-91500000D01*
X124460000Y-87500000D01*
X126460000Y-91500000D01*
G36*
X134460000Y-91500000D02*
G01*
X132460000Y-91500000D01*
X124460000Y-78500000D01*
X116460000Y-91500000D01*
X114460000Y-91500000D01*
X124460000Y-75500000D01*
X134460000Y-91500000D01*
G37*
X134460000Y-91500000D02*
X132460000Y-91500000D01*
X124460000Y-78500000D01*
X116460000Y-91500000D01*
X114460000Y-91500000D01*
X124460000Y-75500000D01*
X134460000Y-91500000D01*
G36*
X130460000Y-91500000D02*
G01*
X128460000Y-91500000D01*
X124460000Y-84500000D01*
X120460000Y-91500000D01*
X118460000Y-91500000D01*
X124460000Y-81500000D01*
X130460000Y-91500000D01*
G37*
X130460000Y-91500000D02*
X128460000Y-91500000D01*
X124460000Y-84500000D01*
X120460000Y-91500000D01*
X118460000Y-91500000D01*
X124460000Y-81500000D01*
X130460000Y-91500000D01*
D11*
X112460000Y-89500000D02*
G75*
G03*
X114460000Y-91500000I2000000J0D01*
G01*
X134460000Y-45000000D02*
X114460000Y-45000000D01*
X112460000Y-47000000D02*
X112460000Y-89500000D01*
X114460000Y-91500000D02*
X134460000Y-91500000D01*
X136460000Y-89500000D02*
X136460000Y-47000000D01*
X134460000Y-91500000D02*
G75*
G03*
X136460000Y-89500000I0J2000000D01*
G01*
X114460000Y-45000000D02*
G75*
G03*
X112460000Y-47000000I0J-2000000D01*
G01*
X136460000Y-47000000D02*
G75*
G03*
X134460000Y-45000000I-2000000J0D01*
G01*
D10*
X130302857Y-52442857D02*
X130102857Y-52442857D01*
X130017142Y-52861904D02*
X130302857Y-52861904D01*
X130302857Y-52061904D01*
X130017142Y-52061904D01*
X129788571Y-52823809D02*
X129702857Y-52861904D01*
X129560000Y-52861904D01*
X129502857Y-52823809D01*
X129474285Y-52785714D01*
X129445714Y-52709523D01*
X129445714Y-52633333D01*
X129474285Y-52557142D01*
X129502857Y-52519047D01*
X129560000Y-52480952D01*
X129674285Y-52442857D01*
X129731428Y-52404761D01*
X129760000Y-52366666D01*
X129788571Y-52290476D01*
X129788571Y-52214285D01*
X129760000Y-52138095D01*
X129731428Y-52100000D01*
X129674285Y-52061904D01*
X129531428Y-52061904D01*
X129445714Y-52100000D01*
X129188571Y-52861904D02*
X129188571Y-52061904D01*
X128960000Y-52061904D01*
X128902857Y-52100000D01*
X128874285Y-52138095D01*
X128845714Y-52214285D01*
X128845714Y-52328571D01*
X128874285Y-52404761D01*
X128902857Y-52442857D01*
X128960000Y-52480952D01*
X129188571Y-52480952D01*
X128645714Y-52061904D02*
X128274285Y-52061904D01*
X128474285Y-52366666D01*
X128388571Y-52366666D01*
X128331428Y-52404761D01*
X128302857Y-52442857D01*
X128274285Y-52519047D01*
X128274285Y-52709523D01*
X128302857Y-52785714D01*
X128331428Y-52823809D01*
X128388571Y-52861904D01*
X128560000Y-52861904D01*
X128617142Y-52823809D01*
X128645714Y-52785714D01*
X128045714Y-52138095D02*
X128017142Y-52100000D01*
X127960000Y-52061904D01*
X127817142Y-52061904D01*
X127760000Y-52100000D01*
X127731428Y-52138095D01*
X127702857Y-52214285D01*
X127702857Y-52290476D01*
X127731428Y-52404761D01*
X128074285Y-52861904D01*
X127702857Y-52861904D01*
X127445714Y-52557142D02*
X126988571Y-52557142D01*
X126360000Y-52785714D02*
X126388571Y-52823809D01*
X126474285Y-52861904D01*
X126531428Y-52861904D01*
X126617142Y-52823809D01*
X126674285Y-52747619D01*
X126702857Y-52671428D01*
X126731428Y-52519047D01*
X126731428Y-52404761D01*
X126702857Y-52252380D01*
X126674285Y-52176190D01*
X126617142Y-52100000D01*
X126531428Y-52061904D01*
X126474285Y-52061904D01*
X126388571Y-52100000D01*
X126360000Y-52138095D01*
X126160000Y-52061904D02*
X125788571Y-52061904D01*
X125988571Y-52366666D01*
X125902857Y-52366666D01*
X125845714Y-52404761D01*
X125817142Y-52442857D01*
X125788571Y-52519047D01*
X125788571Y-52709523D01*
X125817142Y-52785714D01*
X125845714Y-52823809D01*
X125902857Y-52861904D01*
X126074285Y-52861904D01*
X126131428Y-52823809D01*
X126160000Y-52785714D01*
X125074285Y-52861904D02*
X125074285Y-52061904D01*
X124931428Y-52061904D01*
X124845714Y-52100000D01*
X124788571Y-52176190D01*
X124760000Y-52252380D01*
X124731428Y-52404761D01*
X124731428Y-52519047D01*
X124760000Y-52671428D01*
X124788571Y-52747619D01*
X124845714Y-52823809D01*
X124931428Y-52861904D01*
X125074285Y-52861904D01*
X124245714Y-52823809D02*
X124302857Y-52861904D01*
X124417142Y-52861904D01*
X124474285Y-52823809D01*
X124502857Y-52747619D01*
X124502857Y-52442857D01*
X124474285Y-52366666D01*
X124417142Y-52328571D01*
X124302857Y-52328571D01*
X124245714Y-52366666D01*
X124217142Y-52442857D01*
X124217142Y-52519047D01*
X124502857Y-52595238D01*
X124017142Y-52328571D02*
X123874285Y-52861904D01*
X123731428Y-52328571D01*
X123274285Y-52823809D02*
X123331428Y-52861904D01*
X123445714Y-52861904D01*
X123502857Y-52823809D01*
X123531428Y-52747619D01*
X123531428Y-52442857D01*
X123502857Y-52366666D01*
X123445714Y-52328571D01*
X123331428Y-52328571D01*
X123274285Y-52366666D01*
X123245714Y-52442857D01*
X123245714Y-52519047D01*
X123531428Y-52595238D01*
X122902857Y-52861904D02*
X122960000Y-52823809D01*
X122988571Y-52747619D01*
X122988571Y-52061904D01*
X122588571Y-52861904D02*
X122645714Y-52823809D01*
X122674285Y-52785714D01*
X122702857Y-52709523D01*
X122702857Y-52480952D01*
X122674285Y-52404761D01*
X122645714Y-52366666D01*
X122588571Y-52328571D01*
X122502857Y-52328571D01*
X122445714Y-52366666D01*
X122417142Y-52404761D01*
X122388571Y-52480952D01*
X122388571Y-52709523D01*
X122417142Y-52785714D01*
X122445714Y-52823809D01*
X122502857Y-52861904D01*
X122588571Y-52861904D01*
X122131428Y-52328571D02*
X122131428Y-53128571D01*
X122131428Y-52366666D02*
X122074285Y-52328571D01*
X121960000Y-52328571D01*
X121902857Y-52366666D01*
X121874285Y-52404761D01*
X121845714Y-52480952D01*
X121845714Y-52709523D01*
X121874285Y-52785714D01*
X121902857Y-52823809D01*
X121960000Y-52861904D01*
X122074285Y-52861904D01*
X122131428Y-52823809D01*
X121588571Y-52861904D02*
X121588571Y-52328571D01*
X121588571Y-52404761D02*
X121560000Y-52366666D01*
X121502857Y-52328571D01*
X121417142Y-52328571D01*
X121360000Y-52366666D01*
X121331428Y-52442857D01*
X121331428Y-52861904D01*
X121331428Y-52442857D02*
X121302857Y-52366666D01*
X121245714Y-52328571D01*
X121160000Y-52328571D01*
X121102857Y-52366666D01*
X121074285Y-52442857D01*
X121074285Y-52861904D01*
X120560000Y-52823809D02*
X120617142Y-52861904D01*
X120731428Y-52861904D01*
X120788571Y-52823809D01*
X120817142Y-52747619D01*
X120817142Y-52442857D01*
X120788571Y-52366666D01*
X120731428Y-52328571D01*
X120617142Y-52328571D01*
X120560000Y-52366666D01*
X120531428Y-52442857D01*
X120531428Y-52519047D01*
X120817142Y-52595238D01*
X120274285Y-52328571D02*
X120274285Y-52861904D01*
X120274285Y-52404761D02*
X120245714Y-52366666D01*
X120188571Y-52328571D01*
X120102857Y-52328571D01*
X120045714Y-52366666D01*
X120017142Y-52442857D01*
X120017142Y-52861904D01*
X119817142Y-52328571D02*
X119588571Y-52328571D01*
X119731428Y-52061904D02*
X119731428Y-52747619D01*
X119702857Y-52823809D01*
X119645714Y-52861904D01*
X119588571Y-52861904D01*
X118731428Y-52442857D02*
X118645714Y-52480952D01*
X118617142Y-52519047D01*
X118588571Y-52595238D01*
X118588571Y-52709523D01*
X118617142Y-52785714D01*
X118645714Y-52823809D01*
X118702857Y-52861904D01*
X118931428Y-52861904D01*
X118931428Y-52061904D01*
X118731428Y-52061904D01*
X118674285Y-52100000D01*
X118645714Y-52138095D01*
X118617142Y-52214285D01*
X118617142Y-52290476D01*
X118645714Y-52366666D01*
X118674285Y-52404761D01*
X118731428Y-52442857D01*
X118931428Y-52442857D01*
X118245714Y-52861904D02*
X118302857Y-52823809D01*
X118331428Y-52785714D01*
X118360000Y-52709523D01*
X118360000Y-52480952D01*
X118331428Y-52404761D01*
X118302857Y-52366666D01*
X118245714Y-52328571D01*
X118160000Y-52328571D01*
X118102857Y-52366666D01*
X118074285Y-52404761D01*
X118045714Y-52480952D01*
X118045714Y-52709523D01*
X118074285Y-52785714D01*
X118102857Y-52823809D01*
X118160000Y-52861904D01*
X118245714Y-52861904D01*
X117531428Y-52861904D02*
X117531428Y-52442857D01*
X117560000Y-52366666D01*
X117617142Y-52328571D01*
X117731428Y-52328571D01*
X117788571Y-52366666D01*
X117531428Y-52823809D02*
X117588571Y-52861904D01*
X117731428Y-52861904D01*
X117788571Y-52823809D01*
X117817142Y-52747619D01*
X117817142Y-52671428D01*
X117788571Y-52595238D01*
X117731428Y-52557142D01*
X117588571Y-52557142D01*
X117531428Y-52519047D01*
X117245714Y-52861904D02*
X117245714Y-52328571D01*
X117245714Y-52480952D02*
X117217142Y-52404761D01*
X117188571Y-52366666D01*
X117131428Y-52328571D01*
X117074285Y-52328571D01*
X116617142Y-52861904D02*
X116617142Y-52061904D01*
X116617142Y-52823809D02*
X116674285Y-52861904D01*
X116788571Y-52861904D01*
X116845714Y-52823809D01*
X116874285Y-52785714D01*
X116902857Y-52709523D01*
X116902857Y-52480952D01*
X116874285Y-52404761D01*
X116845714Y-52366666D01*
X116788571Y-52328571D01*
X116674285Y-52328571D01*
X116617142Y-52366666D01*
%TO.C,Y1*%
X128336190Y-73276190D02*
X128336190Y-73752380D01*
X128669523Y-72752380D02*
X128336190Y-73276190D01*
X128002857Y-72752380D01*
X127145714Y-73752380D02*
X127717142Y-73752380D01*
X127431428Y-73752380D02*
X127431428Y-72752380D01*
X127526666Y-72895238D01*
X127621904Y-72990476D01*
X127717142Y-73038095D01*
D12*
X123534000Y-72176000D02*
X130434000Y-72176000D01*
X123534000Y-73756000D02*
X122634000Y-74356000D01*
X130434000Y-72176000D02*
X130434000Y-74636000D01*
X123534000Y-74636000D02*
X123534000Y-72176000D01*
X122634000Y-74356000D02*
X122434000Y-74356000D01*
X130434000Y-74636000D02*
X123534000Y-74636000D01*
X123534000Y-73056000D02*
X122634000Y-72456000D01*
X122634000Y-72456000D02*
X122434000Y-72456000D01*
%TO.C,J2*%
X133290000Y-54610000D02*
X133290000Y-77530000D01*
X135950000Y-77530000D02*
X133290000Y-77530000D01*
X135950000Y-54610000D02*
X135950000Y-77530000D01*
X135950000Y-54610000D02*
X133290000Y-54610000D01*
X135950000Y-52010000D02*
X134620000Y-52010000D01*
X135950000Y-53340000D02*
X135950000Y-52010000D01*
%TO.C,J1*%
X112970000Y-54610000D02*
X112970000Y-77530000D01*
X115630000Y-54610000D02*
X115630000Y-77530000D01*
X115630000Y-54610000D02*
X112970000Y-54610000D01*
X115630000Y-53340000D02*
X115630000Y-52010000D01*
X115630000Y-52010000D02*
X114300000Y-52010000D01*
X115630000Y-77530000D02*
X112970000Y-77530000D01*
%TO.C,REF\u002A\u002A*%
G36*
X121667189Y-65853893D02*
G01*
X121654295Y-65866786D01*
X121641402Y-65853893D01*
X121654295Y-65840999D01*
X121667189Y-65853893D01*
G37*
G36*
X122879168Y-67246380D02*
G01*
X122866275Y-67259273D01*
X122853382Y-67246380D01*
X122866275Y-67233486D01*
X122879168Y-67246380D01*
G37*
G36*
X127752874Y-67220593D02*
G01*
X127739981Y-67233486D01*
X127727087Y-67220593D01*
X127739981Y-67207700D01*
X127752874Y-67220593D01*
G37*
G36*
X121950844Y-66395415D02*
G01*
X121937950Y-66408309D01*
X121925057Y-66395415D01*
X121937950Y-66382522D01*
X121950844Y-66395415D01*
G37*
G36*
X124993686Y-63378360D02*
G01*
X124980793Y-63391253D01*
X124967899Y-63378360D01*
X124980793Y-63365466D01*
X124993686Y-63378360D01*
G37*
G36*
X124039575Y-66318055D02*
G01*
X124026681Y-66330948D01*
X124013788Y-66318055D01*
X124026681Y-66305162D01*
X124039575Y-66318055D01*
G37*
G36*
X127933382Y-66679070D02*
G01*
X127920488Y-66691964D01*
X127907595Y-66679070D01*
X127920488Y-66666177D01*
X127933382Y-66679070D01*
G37*
G36*
X123618390Y-67603097D02*
G01*
X123622424Y-67610853D01*
X123601199Y-67620288D01*
X123587547Y-67618428D01*
X123584008Y-67603097D01*
X123587787Y-67600011D01*
X123618390Y-67603097D01*
G37*
G36*
X127537984Y-66855280D02*
G01*
X127542018Y-66863036D01*
X127520793Y-66872471D01*
X127507141Y-66870610D01*
X127503602Y-66855280D01*
X127507381Y-66852194D01*
X127537984Y-66855280D01*
G37*
G36*
X125973585Y-62527395D02*
G01*
X125960691Y-62540288D01*
X125947798Y-62527395D01*
X125960691Y-62514502D01*
X125973585Y-62527395D01*
G37*
G36*
X122002417Y-66343842D02*
G01*
X121989524Y-66356735D01*
X121976630Y-66343842D01*
X121989524Y-66330948D01*
X122002417Y-66343842D01*
G37*
G36*
X124366207Y-65823808D02*
G01*
X124370242Y-65831564D01*
X124349016Y-65840999D01*
X124335365Y-65839138D01*
X124331825Y-65823808D01*
X124335604Y-65820722D01*
X124366207Y-65823808D01*
G37*
G36*
X125818864Y-63765162D02*
G01*
X125805971Y-63778055D01*
X125793077Y-63765162D01*
X125805971Y-63752268D01*
X125818864Y-63765162D01*
G37*
G36*
X127391859Y-67426887D02*
G01*
X127378965Y-67439781D01*
X127366072Y-67426887D01*
X127378965Y-67413994D01*
X127391859Y-67426887D01*
G37*
G36*
X124426377Y-65853893D02*
G01*
X124413483Y-65866786D01*
X124400590Y-65853893D01*
X124413483Y-65840999D01*
X124426377Y-65853893D01*
G37*
G36*
X123214397Y-67375314D02*
G01*
X123201504Y-67388207D01*
X123188610Y-67375314D01*
X123201504Y-67362420D01*
X123214397Y-67375314D01*
G37*
G36*
X128139676Y-62798157D02*
G01*
X128137815Y-62811808D01*
X128122485Y-62815348D01*
X128119399Y-62811568D01*
X128122485Y-62780965D01*
X128130241Y-62776931D01*
X128139676Y-62798157D01*
G37*
G36*
X125707121Y-67035788D02*
G01*
X125711155Y-67043544D01*
X125689930Y-67052979D01*
X125676278Y-67051118D01*
X125672739Y-67035788D01*
X125676518Y-67032701D01*
X125707121Y-67035788D01*
G37*
G36*
X128500691Y-66266481D02*
G01*
X128487798Y-66279375D01*
X128474905Y-66266481D01*
X128487798Y-66253588D01*
X128500691Y-66266481D01*
G37*
G36*
X125844651Y-62656329D02*
G01*
X125831757Y-62669222D01*
X125818864Y-62656329D01*
X125831757Y-62643436D01*
X125844651Y-62656329D01*
G37*
G36*
X127133991Y-67555821D02*
G01*
X127121097Y-67568715D01*
X127108204Y-67555821D01*
X127121097Y-67542928D01*
X127133991Y-67555821D01*
G37*
G36*
X127159778Y-66988512D02*
G01*
X127146884Y-67001405D01*
X127133991Y-66988512D01*
X127146884Y-66975618D01*
X127159778Y-66988512D01*
G37*
G36*
X122956529Y-67220593D02*
G01*
X122943635Y-67233486D01*
X122930742Y-67220593D01*
X122943635Y-67207700D01*
X122956529Y-67220593D01*
G37*
G36*
X122131351Y-66498563D02*
G01*
X122118458Y-66511456D01*
X122105564Y-66498563D01*
X122118458Y-66485669D01*
X122131351Y-66498563D01*
G37*
G36*
X127056630Y-65260796D02*
G01*
X127043737Y-65273689D01*
X127030844Y-65260796D01*
X127043737Y-65247903D01*
X127056630Y-65260796D01*
G37*
G36*
X125380488Y-62063233D02*
G01*
X125367595Y-62076126D01*
X125354701Y-62063233D01*
X125367595Y-62050339D01*
X125380488Y-62063233D01*
G37*
G36*
X128129136Y-58241619D02*
G01*
X128197696Y-58291447D01*
X128326113Y-58384530D01*
X128492552Y-58466288D01*
X128656362Y-58499924D01*
X128821952Y-58486817D01*
X128909869Y-58463933D01*
X128989621Y-58430702D01*
X129073283Y-58379385D01*
X129177585Y-58301254D01*
X129204112Y-58281410D01*
X129262435Y-58247555D01*
X129290864Y-58245756D01*
X129284339Y-58273680D01*
X129237799Y-58328995D01*
X129237260Y-58329536D01*
X129166878Y-58421321D01*
X129101050Y-58543112D01*
X129049603Y-58673782D01*
X129022360Y-58792205D01*
X129020852Y-58808488D01*
X129035356Y-58959555D01*
X129099985Y-59122580D01*
X129214752Y-59297598D01*
X129224134Y-59309852D01*
X129273503Y-59378839D01*
X129302443Y-59427469D01*
X129304951Y-59445872D01*
X129285845Y-59439127D01*
X129247535Y-59406019D01*
X129222546Y-59385936D01*
X129178571Y-59379936D01*
X129162344Y-59383649D01*
X129157219Y-59370188D01*
X129159075Y-59361440D01*
X129136154Y-59326615D01*
X129080003Y-59283118D01*
X129001555Y-59238510D01*
X128911742Y-59200355D01*
X128895381Y-59194777D01*
X128728236Y-59161625D01*
X128564070Y-59175040D01*
X128397584Y-59236144D01*
X128223483Y-59346056D01*
X128159365Y-59391166D01*
X128106134Y-59418584D01*
X128088102Y-59410176D01*
X128089967Y-59393874D01*
X128108620Y-59364214D01*
X128123248Y-59354575D01*
X128168235Y-59306048D01*
X128222580Y-59231857D01*
X128276972Y-59146223D01*
X128322101Y-59063370D01*
X128348657Y-58997520D01*
X128368339Y-58846856D01*
X128344844Y-58673743D01*
X128275515Y-58503081D01*
X128162579Y-58342709D01*
X128134229Y-58309043D01*
X128095773Y-58252796D01*
X128094619Y-58229528D01*
X128129136Y-58241619D01*
G37*
G36*
X128320184Y-66446989D02*
G01*
X128307290Y-66459882D01*
X128294397Y-66446989D01*
X128307290Y-66434096D01*
X128320184Y-66446989D01*
G37*
G36*
X122956529Y-64899781D02*
G01*
X122943635Y-64912674D01*
X122930742Y-64899781D01*
X122943635Y-64886887D01*
X122956529Y-64899781D01*
G37*
G36*
X126179879Y-65828106D02*
G01*
X126166986Y-65840999D01*
X126154092Y-65828106D01*
X126166986Y-65815212D01*
X126179879Y-65828106D01*
G37*
G36*
X129996326Y-60438664D02*
G01*
X129983432Y-60451558D01*
X129970539Y-60438664D01*
X129983432Y-60425771D01*
X129996326Y-60438664D01*
G37*
G36*
X127996454Y-62263083D02*
G01*
X128046603Y-62515168D01*
X128077739Y-62812947D01*
X128082471Y-63113004D01*
X128060627Y-63399916D01*
X128012034Y-63658261D01*
X128004875Y-63686519D01*
X127984058Y-63779080D01*
X127972435Y-63848570D01*
X127972365Y-63881693D01*
X127974721Y-63886484D01*
X127965776Y-63911233D01*
X127948642Y-63930113D01*
X127919395Y-63986245D01*
X127888392Y-64062478D01*
X127861650Y-64142161D01*
X127845189Y-64208648D01*
X127845025Y-64245288D01*
X127851747Y-64260341D01*
X127835137Y-64258141D01*
X127821658Y-64258089D01*
X127786499Y-64291787D01*
X127743208Y-64363750D01*
X127709107Y-64427092D01*
X127575302Y-64636307D01*
X127412186Y-64846693D01*
X127232865Y-65042292D01*
X127050448Y-65207147D01*
X126996231Y-65255180D01*
X126954474Y-65303264D01*
X126944838Y-65332137D01*
X126949440Y-65342793D01*
X126933533Y-65341763D01*
X126915434Y-65340611D01*
X126862350Y-65359489D01*
X126794168Y-65398263D01*
X126792764Y-65399190D01*
X126642267Y-65489674D01*
X126468035Y-65580263D01*
X126286489Y-65663429D01*
X126114050Y-65731646D01*
X125967138Y-65777386D01*
X125918186Y-65794922D01*
X125896224Y-65814307D01*
X125876803Y-65827562D01*
X125825311Y-65833689D01*
X125818802Y-65833757D01*
X125758423Y-65835793D01*
X125660937Y-65840239D01*
X125538343Y-65846518D01*
X125402638Y-65854050D01*
X125175193Y-65862200D01*
X124965097Y-65857417D01*
X124757968Y-65838568D01*
X124651640Y-65826064D01*
X124547043Y-65814820D01*
X124470315Y-65807779D01*
X124433101Y-65806104D01*
X124421015Y-65805585D01*
X124413986Y-65788612D01*
X124414900Y-65786137D01*
X124395587Y-65766531D01*
X124342795Y-65747853D01*
X124294721Y-65736391D01*
X124250468Y-65725078D01*
X124219964Y-65714933D01*
X124181402Y-65699410D01*
X123922119Y-65582378D01*
X123587826Y-65392158D01*
X123296637Y-65175376D01*
X123295900Y-65174746D01*
X123204739Y-65089939D01*
X123098457Y-64980742D01*
X122990429Y-64861867D01*
X122894027Y-64748027D01*
X122822625Y-64653932D01*
X122807512Y-64633055D01*
X122796921Y-64626228D01*
X122804356Y-64657647D01*
X122830292Y-64732167D01*
X122835682Y-64746843D01*
X122878776Y-64853904D01*
X122930182Y-64968455D01*
X122985121Y-65081352D01*
X123038812Y-65183448D01*
X123086475Y-65265599D01*
X123123329Y-65318660D01*
X123144596Y-65333485D01*
X123156020Y-65329109D01*
X123151456Y-65348580D01*
X123149578Y-65352557D01*
X123153834Y-65390036D01*
X123185602Y-65454743D01*
X123247061Y-65550512D01*
X123340390Y-65681182D01*
X123370124Y-65718646D01*
X123403800Y-65744672D01*
X123427214Y-65732755D01*
X123442979Y-65715517D01*
X123438108Y-65740960D01*
X123437293Y-65756112D01*
X123457623Y-65810823D01*
X123502803Y-65877290D01*
X123512354Y-65888779D01*
X123559478Y-65938731D01*
X123592227Y-65953586D01*
X123623199Y-65939893D01*
X123633147Y-65932482D01*
X123652059Y-65920951D01*
X123634639Y-65942894D01*
X123620655Y-65971419D01*
X123625740Y-66019971D01*
X123653793Y-66056984D01*
X123694770Y-66062482D01*
X123712739Y-66058349D01*
X123718260Y-66071429D01*
X123719625Y-66080833D01*
X123748215Y-66119663D01*
X123803968Y-66178291D01*
X123878063Y-66248517D01*
X123961675Y-66322143D01*
X124045981Y-66390967D01*
X124122158Y-66446790D01*
X124185798Y-66489370D01*
X124326209Y-66580418D01*
X124429300Y-66642095D01*
X124497661Y-66675889D01*
X124533882Y-66683289D01*
X124547583Y-66680609D01*
X124545343Y-66686619D01*
X124544542Y-66687108D01*
X124553488Y-66704252D01*
X124597799Y-66733570D01*
X124665275Y-66769355D01*
X124743714Y-66805905D01*
X124820916Y-66837515D01*
X124884681Y-66858481D01*
X124922808Y-66863099D01*
X124946328Y-66860208D01*
X124955174Y-66872200D01*
X124969061Y-66890586D01*
X125024993Y-66916645D01*
X125114630Y-66947635D01*
X125229368Y-66981205D01*
X125360606Y-67015002D01*
X125499740Y-67046675D01*
X125638169Y-67073871D01*
X125767290Y-67094239D01*
X126164318Y-67127053D01*
X126595837Y-67115420D01*
X127017369Y-67053198D01*
X127428854Y-66940396D01*
X127830234Y-66777022D01*
X127893061Y-66745301D01*
X127997349Y-66687891D01*
X128113342Y-66620103D01*
X128231590Y-66547866D01*
X128342641Y-66477109D01*
X128437045Y-66413760D01*
X128505350Y-66363747D01*
X128538105Y-66332998D01*
X128540146Y-66330034D01*
X128573184Y-66309381D01*
X128611237Y-66306736D01*
X128628672Y-66324502D01*
X128625734Y-66331194D01*
X128597138Y-66370091D01*
X128544676Y-66432805D01*
X128476470Y-66509464D01*
X128447981Y-66541285D01*
X128386379Y-66615169D01*
X128344923Y-66672476D01*
X128331370Y-66702865D01*
X128332890Y-66711881D01*
X128326836Y-66711707D01*
X128317935Y-66708639D01*
X128281093Y-66725479D01*
X128229721Y-66762633D01*
X128177419Y-66808675D01*
X128137792Y-66852179D01*
X128124441Y-66881719D01*
X128126303Y-66891963D01*
X128121243Y-66894316D01*
X128106569Y-66897568D01*
X128058135Y-66925543D01*
X127984715Y-66975082D01*
X127895186Y-67040450D01*
X127838543Y-67082554D01*
X127731130Y-67159599D01*
X127632740Y-67226974D01*
X127559216Y-67273680D01*
X127492305Y-67316771D01*
X127464329Y-67347150D01*
X127473611Y-67368508D01*
X127489911Y-67384197D01*
X127461495Y-67378066D01*
X127460043Y-67377651D01*
X127411343Y-67382846D01*
X127331142Y-67410148D01*
X127231598Y-67455464D01*
X127211218Y-67465653D01*
X126796462Y-67643331D01*
X126358025Y-67777158D01*
X125902031Y-67865247D01*
X125863084Y-67870193D01*
X125681898Y-67884556D01*
X125468712Y-67890829D01*
X125238596Y-67889296D01*
X125006618Y-67880240D01*
X124787846Y-67863944D01*
X124597350Y-67840693D01*
X124319444Y-67783633D01*
X123969559Y-67677224D01*
X123615751Y-67534823D01*
X123269257Y-67361592D01*
X122941318Y-67162693D01*
X122643173Y-66943285D01*
X122633147Y-66935187D01*
X122561294Y-66881864D01*
X122505766Y-66848493D01*
X122477871Y-66842003D01*
X122470881Y-66846885D01*
X122474120Y-66831778D01*
X122474472Y-66824515D01*
X122452526Y-66784783D01*
X122403147Y-66723724D01*
X122334043Y-66651271D01*
X122318182Y-66635579D01*
X122161263Y-66466234D01*
X121999550Y-66269507D01*
X121847192Y-66063440D01*
X121718333Y-65866072D01*
X121688303Y-65817635D01*
X121636695Y-65741920D01*
X121596987Y-65693427D01*
X121575959Y-65680971D01*
X121568404Y-65685928D01*
X121573328Y-65668547D01*
X121574282Y-65652800D01*
X121560094Y-65595949D01*
X121529368Y-65511462D01*
X121486080Y-65411077D01*
X121392902Y-65194280D01*
X121284849Y-64880756D01*
X121207620Y-64559623D01*
X121158295Y-64217879D01*
X121133956Y-63842522D01*
X121130985Y-63584370D01*
X121148565Y-63224317D01*
X121193616Y-62893533D01*
X121267116Y-62582767D01*
X121276768Y-62548158D01*
X121301333Y-62444725D01*
X121315770Y-62358708D01*
X121317215Y-62305935D01*
X121312010Y-62277582D01*
X121312835Y-62263308D01*
X121329619Y-62295314D01*
X121333100Y-62302506D01*
X121350062Y-62327337D01*
X121355935Y-62305490D01*
X121357231Y-62292771D01*
X121378800Y-62215255D01*
X121420922Y-62110342D01*
X123437602Y-62110342D01*
X123441388Y-62120708D01*
X123474725Y-62161604D01*
X123535651Y-62227834D01*
X123618563Y-62313366D01*
X123717859Y-62412164D01*
X123781808Y-62474870D01*
X123884475Y-62575912D01*
X123973865Y-62664332D01*
X124042100Y-62732331D01*
X124081304Y-62772106D01*
X124093934Y-62786165D01*
X124126237Y-62839515D01*
X124140215Y-62907424D01*
X124137045Y-63001509D01*
X124117905Y-63133385D01*
X124114342Y-63154009D01*
X124096585Y-63257008D01*
X124075025Y-63382297D01*
X124053547Y-63507294D01*
X124045954Y-63551521D01*
X124027092Y-63661366D01*
X124011343Y-63753041D01*
X124001513Y-63810216D01*
X123989319Y-63881058D01*
X124224906Y-63762739D01*
X124239338Y-63755467D01*
X124343089Y-63700856D01*
X124405058Y-63662300D01*
X124430356Y-63636098D01*
X124424095Y-63618551D01*
X124420942Y-63616292D01*
X124405127Y-63600998D01*
X124434561Y-63607866D01*
X124437671Y-63608644D01*
X124489169Y-63601623D01*
X124573658Y-63570946D01*
X124681487Y-63520044D01*
X124718304Y-63501384D01*
X124808456Y-63458261D01*
X124878674Y-63428279D01*
X124916192Y-63417040D01*
X124945373Y-63424917D01*
X125008875Y-63452846D01*
X125087216Y-63494008D01*
X125151156Y-63527269D01*
X125218035Y-63555190D01*
X125256915Y-63562701D01*
X125269942Y-63560189D01*
X125268540Y-63566027D01*
X125267846Y-63567779D01*
X125291518Y-63587458D01*
X125351996Y-63623874D01*
X125441486Y-63672551D01*
X125552194Y-63729009D01*
X125577755Y-63741671D01*
X125687983Y-63796038D01*
X125778257Y-63840183D01*
X125839839Y-63869854D01*
X125863991Y-63880796D01*
X125867441Y-63877884D01*
X125868615Y-63860432D01*
X125864802Y-63822004D01*
X125855097Y-63756657D01*
X125838596Y-63658449D01*
X125814392Y-63521437D01*
X125781582Y-63339679D01*
X125694983Y-62862624D01*
X126068457Y-62486307D01*
X126441931Y-62109991D01*
X126201311Y-62078050D01*
X126159460Y-62072423D01*
X126033635Y-62054789D01*
X125917487Y-62037587D01*
X125831757Y-62023860D01*
X125774476Y-62014705D01*
X125658258Y-61998545D01*
X125545364Y-61985193D01*
X125387904Y-61968776D01*
X125158830Y-61506715D01*
X125145147Y-61479169D01*
X125075818Y-61341266D01*
X125014465Y-61221917D01*
X124964755Y-61128068D01*
X124930355Y-61066665D01*
X124914930Y-61044654D01*
X124908183Y-61049849D01*
X124890226Y-61076954D01*
X124860594Y-61130810D01*
X124817255Y-61215412D01*
X124758175Y-61334753D01*
X124681323Y-61492827D01*
X124584666Y-61693630D01*
X124544756Y-61774195D01*
X124496468Y-61864575D01*
X124457903Y-61928726D01*
X124434946Y-61956321D01*
X124402913Y-61963674D01*
X124327771Y-61976900D01*
X124218496Y-61994453D01*
X124083727Y-62014946D01*
X123932104Y-62036994D01*
X123785015Y-62058069D01*
X123651099Y-62077547D01*
X123542931Y-62093586D01*
X123468952Y-62104935D01*
X123437602Y-62110342D01*
X121420922Y-62110342D01*
X121423029Y-62105095D01*
X121485378Y-61970758D01*
X121561308Y-61820708D01*
X121646277Y-61663414D01*
X121735745Y-61507340D01*
X121825173Y-61360953D01*
X121910019Y-61232720D01*
X121985743Y-61131106D01*
X122179709Y-60905158D01*
X122510818Y-60572293D01*
X122859457Y-60286271D01*
X123228861Y-60045080D01*
X123622262Y-59846709D01*
X124042892Y-59689146D01*
X124493987Y-59570378D01*
X124576293Y-59553506D01*
X124669828Y-59537303D01*
X124763186Y-59525741D01*
X124866716Y-59518102D01*
X124990764Y-59513668D01*
X125145678Y-59511722D01*
X125341808Y-59511544D01*
X125469351Y-59512048D01*
X125640864Y-59514089D01*
X125777409Y-59518285D01*
X125889253Y-59525366D01*
X125986666Y-59536064D01*
X126079916Y-59551113D01*
X126179272Y-59571243D01*
X126282967Y-59594798D01*
X126710766Y-59717501D01*
X127101757Y-59873010D01*
X127122167Y-59882550D01*
X127219355Y-59931895D01*
X127285185Y-59972146D01*
X127315852Y-60000041D01*
X127307551Y-60012316D01*
X127256478Y-60005708D01*
X127256319Y-60005671D01*
X127202275Y-59992870D01*
X127116665Y-59972348D01*
X127017950Y-59948531D01*
X126956177Y-59936092D01*
X126814260Y-59917279D01*
X126641176Y-59902766D01*
X126449857Y-59892958D01*
X126253236Y-59888264D01*
X126064247Y-59889091D01*
X125895823Y-59895847D01*
X125760897Y-59908938D01*
X125689483Y-59920135D01*
X125542410Y-59947402D01*
X125389310Y-59980167D01*
X125244436Y-60015100D01*
X125122038Y-60048874D01*
X125036367Y-60078160D01*
X125019012Y-60086471D01*
X125012434Y-60096666D01*
X125034909Y-60104612D01*
X125092062Y-60111168D01*
X125189522Y-60117196D01*
X125332915Y-60123559D01*
X125462439Y-60129784D01*
X125606323Y-60140998D01*
X125728950Y-60157694D01*
X125847786Y-60182411D01*
X125980294Y-60217689D01*
X126228143Y-60299314D01*
X126576838Y-60456917D01*
X126896779Y-60656988D01*
X127189684Y-60900656D01*
X127457272Y-61189052D01*
X127472198Y-61207493D01*
X127533668Y-61287811D01*
X127595190Y-61373728D01*
X127648889Y-61453627D01*
X127686885Y-61515892D01*
X127701300Y-61548905D01*
X127703470Y-61555788D01*
X127724418Y-61596429D01*
X127760411Y-61657603D01*
X127786545Y-61703978D01*
X127843724Y-61825054D01*
X127902294Y-61970203D01*
X127951255Y-62109991D01*
X127955466Y-62122015D01*
X127996454Y-62263083D01*
G37*
G36*
X123590768Y-65888588D02*
G01*
X123587342Y-65893838D01*
X123561863Y-65917587D01*
X123549625Y-65906988D01*
X123551930Y-65901188D01*
X123579396Y-65877217D01*
X123593807Y-65870943D01*
X123590768Y-65888588D01*
G37*
G36*
X125174194Y-61753791D02*
G01*
X125161300Y-61766684D01*
X125148407Y-61753791D01*
X125161300Y-61740898D01*
X125174194Y-61753791D01*
G37*
G36*
X123601199Y-62192167D02*
G01*
X123588306Y-62205060D01*
X123575412Y-62192167D01*
X123588306Y-62179273D01*
X123601199Y-62192167D01*
G37*
G36*
X127830234Y-64384045D02*
G01*
X127817341Y-64396938D01*
X127804448Y-64384045D01*
X127817341Y-64371151D01*
X127830234Y-64384045D01*
G37*
G36*
X129970539Y-59897141D02*
G01*
X129957646Y-59910035D01*
X129944752Y-59897141D01*
X129957646Y-59884248D01*
X129970539Y-59897141D01*
G37*
G36*
X128474905Y-60387091D02*
G01*
X128462011Y-60399984D01*
X128449118Y-60387091D01*
X128462011Y-60374197D01*
X128474905Y-60387091D01*
G37*
G36*
X128464474Y-66352751D02*
G01*
X128461048Y-66358000D01*
X128435569Y-66381749D01*
X128423331Y-66371150D01*
X128425636Y-66365350D01*
X128453102Y-66341379D01*
X128467513Y-66335105D01*
X128464474Y-66352751D01*
G37*
G36*
X123821877Y-66048454D02*
G01*
X123846174Y-66073080D01*
X123850977Y-66082210D01*
X123849217Y-66098867D01*
X123844683Y-66097707D01*
X123820387Y-66073080D01*
X123815584Y-66063950D01*
X123817343Y-66047294D01*
X123821877Y-66048454D01*
G37*
G36*
X127314498Y-67530035D02*
G01*
X127301605Y-67542928D01*
X127288712Y-67530035D01*
X127301605Y-67517141D01*
X127314498Y-67530035D01*
G37*
G36*
X128453127Y-60254674D02*
G01*
X128507526Y-60285027D01*
X128580523Y-60329070D01*
X128684402Y-60382971D01*
X128810995Y-60412177D01*
X128932622Y-60393389D01*
X129057315Y-60326563D01*
X129113277Y-60288452D01*
X129173711Y-60254300D01*
X129197279Y-60255063D01*
X129185122Y-60291258D01*
X129138383Y-60363407D01*
X129129957Y-60375485D01*
X129082571Y-60455228D01*
X129060522Y-60530435D01*
X129055108Y-60628856D01*
X129065716Y-60752509D01*
X129100056Y-60839494D01*
X129138824Y-60893843D01*
X129187009Y-60960847D01*
X129209388Y-61000817D01*
X129201196Y-61016801D01*
X129163240Y-61002084D01*
X129101510Y-60956941D01*
X129036964Y-60914388D01*
X128932832Y-60871313D01*
X128825929Y-60848080D01*
X128737722Y-60850943D01*
X128709314Y-60861096D01*
X128637825Y-60897829D01*
X128560720Y-60947463D01*
X128516022Y-60977822D01*
X128462610Y-61008317D01*
X128436599Y-61014944D01*
X128437803Y-61002011D01*
X128461030Y-60957152D01*
X128503526Y-60894192D01*
X128513955Y-60879609D01*
X128581572Y-60745995D01*
X128598492Y-60611174D01*
X128564623Y-60472936D01*
X128479872Y-60329070D01*
X128464980Y-60308573D01*
X128436145Y-60263316D01*
X128431450Y-60245263D01*
X128453127Y-60254674D01*
G37*
G36*
X130389015Y-59844219D02*
G01*
X130367796Y-59886731D01*
X130327547Y-59950654D01*
X130325554Y-59953613D01*
X130278190Y-60033406D01*
X130258993Y-60097809D01*
X130261336Y-60168634D01*
X130262362Y-60175539D01*
X130288253Y-60265544D01*
X130328939Y-60344737D01*
X130336066Y-60354889D01*
X130369522Y-60407309D01*
X130383128Y-60437285D01*
X130375111Y-60438685D01*
X130334562Y-60422365D01*
X130271268Y-60388178D01*
X130246566Y-60374420D01*
X130118577Y-60329125D01*
X129998167Y-60333772D01*
X129880860Y-60388365D01*
X129851248Y-60407594D01*
X129798677Y-60436574D01*
X129772840Y-60442962D01*
X129772860Y-60434171D01*
X129791900Y-60392874D01*
X129829801Y-60332093D01*
X129867352Y-60269705D01*
X129888011Y-60199104D01*
X129886353Y-60109041D01*
X129865225Y-60007784D01*
X129819523Y-59926871D01*
X129818635Y-59925924D01*
X129780191Y-59879717D01*
X129764245Y-59850352D01*
X129772516Y-59834891D01*
X129806071Y-59839105D01*
X129850714Y-59871254D01*
X129910200Y-59917084D01*
X130021753Y-59954868D01*
X130144336Y-59948675D01*
X130267087Y-59897814D01*
X130299544Y-59878332D01*
X130357484Y-59846435D01*
X130388702Y-59833479D01*
X130389015Y-59844219D01*
G37*
G36*
X126076732Y-65853893D02*
G01*
X126063839Y-65866786D01*
X126050945Y-65853893D01*
X126063839Y-65840999D01*
X126076732Y-65853893D01*
G37*
G36*
X128500691Y-60490238D02*
G01*
X128487798Y-60503131D01*
X128474905Y-60490238D01*
X128487798Y-60477344D01*
X128500691Y-60490238D01*
G37*
G36*
X123111250Y-65054502D02*
G01*
X123098356Y-65067395D01*
X123085463Y-65054502D01*
X123098356Y-65041608D01*
X123111250Y-65054502D01*
G37*
G36*
X123523839Y-65853893D02*
G01*
X123510945Y-65866786D01*
X123498052Y-65853893D01*
X123510945Y-65840999D01*
X123523839Y-65853893D01*
G37*
G36*
X121589828Y-65853893D02*
G01*
X121576935Y-65866786D01*
X121564042Y-65853893D01*
X121576935Y-65840999D01*
X121589828Y-65853893D01*
G37*
G36*
X124323229Y-63584654D02*
G01*
X124310336Y-63597547D01*
X124297443Y-63584654D01*
X124310336Y-63571761D01*
X124323229Y-63584654D01*
G37*
G36*
X122182925Y-66550136D02*
G01*
X122170031Y-66563030D01*
X122157138Y-66550136D01*
X122170031Y-66537243D01*
X122182925Y-66550136D01*
G37*
G36*
X123575412Y-67555821D02*
G01*
X123562519Y-67568715D01*
X123549625Y-67555821D01*
X123562519Y-67542928D01*
X123575412Y-67555821D01*
G37*
G36*
X126334600Y-62166380D02*
G01*
X126321707Y-62179273D01*
X126308813Y-62166380D01*
X126321707Y-62153486D01*
X126334600Y-62166380D01*
G37*
G36*
X128500691Y-60696532D02*
G01*
X128487798Y-60709426D01*
X128474905Y-60696532D01*
X128487798Y-60683639D01*
X128500691Y-60696532D01*
G37*
%TO.C,J3*%
X130750000Y-54615000D02*
X133410000Y-54615000D01*
X130750000Y-52015000D02*
X133410000Y-52015000D01*
X130750000Y-57215000D02*
X132080000Y-57215000D01*
X130750000Y-54615000D02*
X130750000Y-52015000D01*
X130750000Y-55885000D02*
X130750000Y-57215000D01*
X133410000Y-54615000D02*
X133410000Y-52015000D01*
%TD*%
M02*
