M48
; DRILL file {KiCad (6.0.9)} date Sun Mar 12 14:29:05 2023
; FORMAT={-:-/ absolute / inch / decimal}
; #@! TF.CreationDate,2023-03-12T14:29:05+01:00
; #@! TF.GenerationSoftware,Kicad,Pcbnew,(6.0.9)
; #@! TF.FileFunction,Plated,1,4,PTH
FMAT,2
INCH
; #@! TA.AperFunction,Plated,PTH,ViaDrill
T1C0.0079
; #@! TA.AperFunction,Plated,PTH,ComponentDrill
T2C0.0118
; #@! TA.AperFunction,Plated,PTH,ComponentDrill
T3C0.0197
; #@! TA.AperFunction,Plated,PTH,ComponentDrill
T4C0.0394
%
G90
G05
T1
X4.4685Y-3.2039
X4.4697Y-3.1386
X4.472Y-3.2803
X4.4732Y-3.3846
X4.4898Y-3.4469
X4.498Y-3.5055
X4.5087Y-3.1031
X4.5402Y-3.5453
X4.5669Y-2.0669
X4.5669Y-2.126
X4.585Y-2.8362
X4.5862Y-2.7799
X4.5866Y-2.6717
X4.5866Y-2.726
X4.5866Y-3.0512
X4.5874Y-2.8898
X4.5886Y-2.9602
X4.5894Y-2.0953
X4.5925Y-3.0067
X4.6Y-2.16
X4.6118Y-2.5933
X4.6161Y-2.0669
X4.6161Y-2.126
X4.6197Y-2.9374
X4.6209Y-3.5386
X4.6358Y-2.185
X4.6358Y-2.2441
X4.6358Y-2.3031
X4.6358Y-2.3622
X4.64Y-2.15
X4.6425Y-3.0398
X4.6492Y-3.1535
X4.65Y-2.4
X4.6508Y-2.0988
X4.6563Y-2.5559
X4.6587Y-2.2122
X4.6587Y-2.2752
X4.6606Y-2.3362
X4.661Y-3.2335
X4.6654Y-2.6969
X4.6705Y-2.7496
X4.6748Y-3.0835
X4.6752Y-3.1866
X4.678Y-2.1547
X4.6819Y-2.0937
X4.6843Y-3.0445
X4.685Y-2.0669
X4.685Y-2.126
X4.685Y-2.185
X4.685Y-2.2441
X4.685Y-2.3031
X4.6906Y-2.2713
X4.6949Y-2.3622
X4.7091Y-3.2205
X4.7122Y-2.7724
X4.7142Y-2.7102
X4.7146Y-2.4016
X4.7389Y-2.6089
X4.7421Y-2.9827
X4.7457Y-2.061
X4.7508Y-2.2677
X4.7528Y-2.3331
X4.7539Y-2.3031
X4.7539Y-2.3622
X4.7543Y-2.4409
X4.7571Y-2.1303
X4.7571Y-2.1622
X4.7571Y-2.1902
X4.7586Y-2.6417
X4.7638Y-2.7953
X4.7638Y-3.2087
X4.7736Y-2.7067
X4.7736Y-3.0118
X4.7752Y-2.7508
X4.78Y-2.61
X4.7803Y-2.3984
X4.7835Y-2.2638
X4.7835Y-3.189
X4.787Y-2.0626
X4.7933Y-2.0965
X4.7933Y-2.1457
X4.7933Y-2.2047
X4.8Y-3.54
X4.8039Y-3.4807
X4.8047Y-2.2327
X4.8098Y-2.7827
X4.8157Y-2.7228
X4.8228Y-3.0118
X4.8232Y-2.65
X4.83Y-2.13
X4.8307Y-2.2756
X4.837Y-2.437
X4.837Y-2.5
X4.837Y-2.563
X4.8425Y-2.0965
X4.8425Y-2.2047
X4.8425Y-2.2441
X4.85Y-2.7
X4.8524Y-3.435
X4.8524Y-3.5335
X4.8622Y-2.9937
X4.8622Y-3.376
X4.8819Y-2.1358
X4.8819Y-3.1791
X4.887Y-2.0748
X4.8917Y-3.2382
X4.8941Y-2.6551
X4.8949Y-2.1083
X4.9Y-2.437
X4.9Y-2.5
X4.9Y-2.563
X4.9016Y-2.9921
X4.9114Y-3.3563
X4.9146Y-3.5402
X4.9189Y-3.4795
X4.9213Y-2.2638
X4.9268Y-2.7382
X4.9311Y-2.1063
X4.9319Y-2.672
X4.9346Y-2.7055
X4.9409Y-2.8937
X4.952Y-3.0248
X4.9606Y-3.376
X4.9622Y-2.0709
X4.963Y-2.437
X4.963Y-2.5
X4.963Y-2.563
X4.9705Y-2.9429
X4.9705Y-3.435
X4.9705Y-3.5335
X4.9902Y-2.1063
X4.9902Y-2.6476
X5.0Y-2.372
X5.0021Y-2.732
X5.0098Y-3.002
X5.0106Y-3.4878
X5.0197Y-2.4016
X5.0248Y-3.5425
X5.0252Y-2.072
X5.0492Y-2.1063
X5.0492Y-2.2638
X5.0689Y-2.1457
X5.0689Y-2.1949
X5.0689Y-2.2343
X5.0783Y-2.074
X5.0929Y-2.6618
X5.0972Y-2.7154
X5.0984Y-3.002
X5.1Y-2.4
X5.1083Y-3.2579
X5.11Y-2.11
X5.11Y-2.14
X5.11Y-2.18
X5.1181Y-2.9331
X5.1185Y-3.048
X5.1311Y-3.5575
X5.1378Y-2.3622
X5.14Y-2.07
X5.1453Y-2.3276
X5.1476Y-2.5787
X5.1476Y-2.6575
X5.1476Y-2.7067
X5.1575Y-3.2579
X5.1575Y-3.3957
X5.1732Y-2.3717
X5.1882Y-2.3244
X5.2067Y-2.3622
X5.2075Y-3.5465
X5.2094Y-2.9614
X5.2122Y-3.0228
X5.2354Y-2.326
X5.2492Y-2.3677
X5.2504Y-3.0858
X5.2874Y-3.5512
X5.2953Y-3.248
X5.3094Y-3.4984
X5.3106Y-3.428
X5.3157Y-3.087
T2
X4.6382Y-2.0033
T3
X4.7927Y-2.8526
X4.7927Y-2.9274
T4
X4.5Y-2.1
X4.5Y-2.2
X4.5Y-2.3
X4.5Y-2.4
X4.5Y-2.5
X4.5Y-2.6
X4.5Y-2.7
X4.5Y-2.8
X4.5Y-2.9
X4.5Y-3.0
X5.2Y-2.1002
X5.2Y-2.2002
X5.3Y-2.1
X5.3Y-2.2
X5.3Y-2.3
X5.3Y-2.4
X5.3Y-2.5
X5.3Y-2.6
X5.3Y-2.7
X5.3Y-2.8
X5.3Y-2.9
X5.3Y-3.0
T0
M30
