%TF.GenerationSoftware,KiCad,Pcbnew,(6.0.9)*%
%TF.CreationDate,2023-03-12T14:29:19+01:00*%
%TF.ProjectId,ESP32-C3 Devboard,45535033-322d-4433-9320-446576626f61,rev?*%
%TF.SameCoordinates,Original*%
%TF.FileFunction,Copper,L2,Inr*%
%TF.FilePolarity,Positive*%
%FSLAX46Y46*%
G04 Gerber Fmt 4.6, Leading zero omitted, Abs format (unit mm)*
G04 Created by KiCad (PCBNEW (6.0.9)) date 2023-03-12 14:29:19*
%MOMM*%
%LPD*%
G01*
G04 APERTURE LIST*
%TA.AperFunction,Profile*%
%ADD10C,0.100000*%
%TD*%
%TA.AperFunction,ComponentPad*%
%ADD11R,0.900000X0.800000*%
%TD*%
%TA.AperFunction,ComponentPad*%
%ADD12C,1.000000*%
%TD*%
%TA.AperFunction,ComponentPad*%
%ADD13R,1.700000X1.700000*%
%TD*%
%TA.AperFunction,ComponentPad*%
%ADD14O,1.700000X1.700000*%
%TD*%
%TA.AperFunction,ViaPad*%
%ADD15C,0.500000*%
%TD*%
G04 APERTURE END LIST*
D10*
X112460000Y-89500000D02*
G75*
G03*
X114460000Y-91500000I2000000J0D01*
G01*
X134460000Y-45000000D02*
X114460000Y-45000000D01*
X112460000Y-47000000D02*
X112460000Y-89500000D01*
X114460000Y-91500000D02*
X134460000Y-91500000D01*
X136460000Y-89500000D02*
X136460000Y-47000000D01*
X134460000Y-91500000D02*
G75*
G03*
X136460000Y-89500000I0J2000000D01*
G01*
X114460000Y-45000000D02*
G75*
G03*
X112460000Y-47000000I0J-2000000D01*
G01*
X136460000Y-47000000D02*
G75*
G03*
X134460000Y-45000000I-2000000J0D01*
G01*
D11*
%TO.N,GND*%
%TO.C,E1*%
X117810000Y-50885000D03*
%TD*%
D12*
%TO.N,Net-(C2-Pad2)*%
%TO.C,Y1*%
X121734000Y-72456000D03*
%TO.N,Net-(C1-Pad2)*%
X121734000Y-74356000D03*
%TD*%
D13*
%TO.N,GND*%
%TO.C,J2*%
X134620000Y-53340000D03*
D14*
%TO.N,GPIO6*%
X134620000Y-55880000D03*
%TO.N,GPIO7*%
X134620000Y-58420000D03*
%TO.N,GPIO10*%
X134620000Y-60960000D03*
%TO.N,SPIQ*%
X134620000Y-63500000D03*
%TO.N,SPID*%
X134620000Y-66040000D03*
%TO.N,SPICLK*%
X134620000Y-68580000D03*
%TO.N,SPICSO*%
X134620000Y-71120000D03*
%TO.N,SPIWP*%
X134620000Y-73660000D03*
%TO.N,SPIHD*%
X134620000Y-76200000D03*
%TD*%
D13*
%TO.N,GPIO0*%
%TO.C,J1*%
X114300000Y-53340000D03*
D14*
%TO.N,GPIO1*%
X114300000Y-55880000D03*
%TO.N,GPIO2*%
X114300000Y-58420000D03*
%TO.N,GPIO3*%
X114300000Y-60960000D03*
%TO.N,GPIO4*%
X114300000Y-63500000D03*
%TO.N,GPIO5*%
X114300000Y-66040000D03*
%TO.N,+3.3V*%
X114300000Y-68580000D03*
%TO.N,GND*%
X114300000Y-71120000D03*
X114300000Y-73660000D03*
%TO.N,+5V*%
X114300000Y-76200000D03*
%TD*%
D13*
%TO.N,Net-(IC1-Pad27)*%
%TO.C,J3*%
X132080000Y-55885000D03*
D14*
%TO.N,Net-(R8-Pad1)*%
X132080000Y-53345000D03*
%TD*%
D15*
%TO.N,GND*%
X122860000Y-61900000D03*
X129794000Y-53594000D03*
X134500000Y-82500000D03*
X125000000Y-57500000D03*
X118630000Y-69840000D03*
X116000000Y-54000000D03*
X121750000Y-53250000D03*
X124330000Y-53550000D03*
X116550000Y-75190000D03*
X128750000Y-54500000D03*
X118330000Y-57790000D03*
X132980000Y-59080000D03*
X119000000Y-58500000D03*
X127270000Y-88590000D03*
X121250000Y-68750000D03*
X113590000Y-83320000D03*
X117920000Y-77210000D03*
X121920000Y-89916000D03*
X114040000Y-87550000D03*
X119750000Y-61000000D03*
X116460000Y-72040000D03*
X131400000Y-60240000D03*
X117856000Y-54610000D03*
X132390000Y-76780000D03*
X120750000Y-60000000D03*
X119610000Y-81800000D03*
X118330000Y-56190000D03*
X123000000Y-57000000D03*
X117750000Y-58500000D03*
X126060000Y-65100000D03*
X125780000Y-76830000D03*
X113530000Y-79720000D03*
X134860000Y-88860000D03*
X120830000Y-54920000D03*
X120450000Y-75760000D03*
X119000000Y-57000000D03*
X116000000Y-52500000D03*
X122682000Y-54102000D03*
X118090000Y-80100000D03*
X126040000Y-52600000D03*
X134300000Y-90200000D03*
X120750000Y-58500000D03*
X128990000Y-52680000D03*
X129470000Y-68970000D03*
X113500000Y-81380000D03*
X122040000Y-56710000D03*
X127052129Y-69392131D03*
X129540000Y-60960000D03*
X130750000Y-67500000D03*
X132250000Y-60000000D03*
X124940000Y-88380000D03*
X121750000Y-54500000D03*
X128750000Y-55750000D03*
X126000000Y-85750000D03*
X123000000Y-56000000D03*
X130010000Y-77420000D03*
X116650000Y-76370000D03*
X118390000Y-82130000D03*
X121420000Y-60920000D03*
X126250000Y-89750000D03*
X115320000Y-90050000D03*
X116500000Y-69240000D03*
X121500000Y-57500000D03*
X129750000Y-82750000D03*
X131000000Y-82750000D03*
X130690000Y-59120000D03*
X124460000Y-65100000D03*
X116500000Y-67860000D03*
X122020000Y-88410000D03*
X118820000Y-54730000D03*
X118750000Y-80940000D03*
X121290000Y-69870000D03*
X126750000Y-53500000D03*
X124000000Y-54250000D03*
X130500000Y-60000000D03*
X132270000Y-90080000D03*
X128750000Y-56750000D03*
X123500000Y-85750000D03*
X126060000Y-61900000D03*
X129360000Y-67610000D03*
X127640000Y-52630000D03*
X126250000Y-87250000D03*
X133330000Y-60140000D03*
X120720000Y-59260000D03*
X116490000Y-70610000D03*
X119000000Y-54000000D03*
X122860000Y-65100000D03*
X125250000Y-53500000D03*
X118380000Y-59340000D03*
X135020000Y-78410000D03*
X119740000Y-68840000D03*
X124460000Y-63500000D03*
X124130000Y-52700000D03*
X119140000Y-57690000D03*
X132320000Y-75220000D03*
X120540000Y-52350000D03*
X119000000Y-55500000D03*
X114520000Y-78820000D03*
X125140000Y-69550000D03*
X123250000Y-87250000D03*
X114250000Y-89040000D03*
X131780000Y-59040000D03*
X121000000Y-71000000D03*
X120830000Y-55630000D03*
X133360000Y-78380000D03*
X118980000Y-77330000D03*
X122320000Y-69160000D03*
X117250000Y-54000000D03*
X117370000Y-89880000D03*
X119250000Y-60000000D03*
X129794000Y-54356000D03*
X117750000Y-60000000D03*
X130556000Y-52578000D03*
X121750000Y-56000000D03*
X120670000Y-57600000D03*
X128250000Y-57500000D03*
X117750000Y-57000000D03*
X118270000Y-64920000D03*
X124830000Y-89920000D03*
X129794000Y-55372000D03*
X124460000Y-61900000D03*
X117750000Y-55500000D03*
X127630000Y-89980000D03*
X116570000Y-53220000D03*
X120830000Y-54110000D03*
X117340000Y-74610000D03*
X119690000Y-70420000D03*
X123250000Y-89750000D03*
X130330000Y-90360000D03*
X121590000Y-52390000D03*
X122170000Y-70680000D03*
X113620000Y-85970000D03*
X118920000Y-53180000D03*
X130750000Y-68750000D03*
X116520000Y-73400000D03*
X134890000Y-87070000D03*
X119000000Y-52500000D03*
X120760000Y-62000000D03*
X131000000Y-86250000D03*
X117250000Y-52500000D03*
X123000000Y-53250000D03*
X126060000Y-63500000D03*
X124500000Y-76000000D03*
X118130000Y-53310000D03*
X116840000Y-54864000D03*
X123500000Y-76040000D03*
X122860000Y-63500000D03*
X128250000Y-53500000D03*
%TO.N,EN*%
X120369244Y-66267244D03*
X116500000Y-77500000D03*
%TO.N,+3.3V*%
X130750000Y-65500000D03*
X118110000Y-60960000D03*
X125340000Y-68720000D03*
X125500000Y-73500000D03*
X130000000Y-74500000D03*
X127250000Y-76250000D03*
X129500000Y-76250000D03*
X118740000Y-78320000D03*
X122700000Y-57800000D03*
X126250000Y-74750000D03*
%TO.N,+5V*%
X121000000Y-81500000D03*
%TO.N,GPIO18*%
X127500000Y-61000000D03*
X121250000Y-76500000D03*
%TO.N,USB_DN*%
X121500000Y-81000000D03*
X124250000Y-82250000D03*
%TO.N,USB_DP*%
X124750000Y-85250000D03*
X124000000Y-80750000D03*
%TO.N,GPIO19*%
X127000000Y-60250000D03*
X122500000Y-76500000D03*
%TO.N,GPIO1*%
X118500000Y-68500000D03*
X117140000Y-65870000D03*
%TO.N,GPIO2*%
X120868744Y-67100000D03*
%TO.N,GPIO3*%
X121412000Y-66294000D03*
%TO.N,GPIO4*%
X122510500Y-67310000D03*
%TO.N,GPIO5*%
X123190000Y-68580000D03*
%TO.N,GPIO6*%
X124310000Y-67440000D03*
%TO.N,GPIO7*%
X125270000Y-67870000D03*
%TO.N,GPIO10*%
X126750000Y-67250000D03*
%TD*%
%TA.AperFunction,Conductor*%
%TO.N,GND*%
G36*
X118265931Y-50520002D02*
G01*
X118286905Y-50536905D01*
X118713095Y-50963095D01*
X118747121Y-51025407D01*
X118750000Y-51052190D01*
X118750000Y-52250000D01*
X116750000Y-52250000D01*
X116750000Y-51052190D01*
X116770002Y-50984069D01*
X116786905Y-50963095D01*
X117213095Y-50536905D01*
X117275407Y-50502879D01*
X117302190Y-50500000D01*
X118197810Y-50500000D01*
X118265931Y-50520002D01*
G37*
%TD.AperFunction*%
%TD*%
%TA.AperFunction,Conductor*%
%TO.N,GND*%
G36*
X133271778Y-52090002D02*
G01*
X133318271Y-52143658D01*
X133328375Y-52213932D01*
X133318650Y-52243096D01*
X133319828Y-52243538D01*
X133271522Y-52372394D01*
X133267895Y-52387649D01*
X133262369Y-52438514D01*
X133262000Y-52445328D01*
X133262000Y-52944999D01*
X133241998Y-53013120D01*
X133188342Y-53059613D01*
X133118068Y-53069717D01*
X133053488Y-53040223D01*
X133015378Y-52981417D01*
X133009484Y-52961894D01*
X132917370Y-52788653D01*
X132793361Y-52636602D01*
X132642180Y-52511535D01*
X132469585Y-52418213D01*
X132328697Y-52374601D01*
X132288039Y-52362015D01*
X132288036Y-52362014D01*
X132282152Y-52360193D01*
X132276027Y-52359549D01*
X132276026Y-52359549D01*
X132093147Y-52340327D01*
X132093146Y-52340327D01*
X132087019Y-52339683D01*
X131964383Y-52350844D01*
X131897759Y-52356907D01*
X131897758Y-52356907D01*
X131891618Y-52357466D01*
X131885704Y-52359207D01*
X131885702Y-52359207D01*
X131774911Y-52391815D01*
X131703393Y-52412864D01*
X131697928Y-52415721D01*
X131534972Y-52500912D01*
X131534968Y-52500915D01*
X131529512Y-52503767D01*
X131524712Y-52507627D01*
X131524711Y-52507627D01*
X131490326Y-52535273D01*
X131376600Y-52626711D01*
X131250480Y-52777016D01*
X131247516Y-52782408D01*
X131247513Y-52782412D01*
X131168813Y-52925567D01*
X131155956Y-52948954D01*
X131096628Y-53135978D01*
X131074757Y-53330963D01*
X131091175Y-53526483D01*
X131145258Y-53715091D01*
X131148076Y-53720574D01*
X131232123Y-53884113D01*
X131232126Y-53884117D01*
X131234944Y-53889601D01*
X131356818Y-54043369D01*
X131506238Y-54170535D01*
X131511616Y-54173541D01*
X131511618Y-54173542D01*
X131567584Y-54204820D01*
X131677513Y-54266257D01*
X131864118Y-54326889D01*
X132058946Y-54350121D01*
X132065081Y-54349649D01*
X132065083Y-54349649D01*
X132248434Y-54335541D01*
X132248438Y-54335540D01*
X132254576Y-54335068D01*
X132443556Y-54282303D01*
X132618689Y-54193837D01*
X132648515Y-54170535D01*
X132768453Y-54076829D01*
X132773303Y-54073040D01*
X132803084Y-54038539D01*
X132897485Y-53929173D01*
X132897485Y-53929172D01*
X132901509Y-53924511D01*
X132998425Y-53753909D01*
X133016443Y-53699745D01*
X133056925Y-53641421D01*
X133122513Y-53614242D01*
X133192384Y-53626837D01*
X133244353Y-53675207D01*
X133262001Y-53739518D01*
X133262001Y-54234669D01*
X133262371Y-54241490D01*
X133267895Y-54292352D01*
X133271521Y-54307604D01*
X133316676Y-54428054D01*
X133325214Y-54443649D01*
X133401715Y-54545724D01*
X133414276Y-54558285D01*
X133516351Y-54634786D01*
X133531946Y-54643324D01*
X133652394Y-54688478D01*
X133667649Y-54692105D01*
X133718514Y-54697631D01*
X133725328Y-54698000D01*
X134217981Y-54698000D01*
X134286102Y-54718002D01*
X134332595Y-54771658D01*
X134342699Y-54841932D01*
X134313205Y-54906512D01*
X134253557Y-54944872D01*
X134243393Y-54947864D01*
X134237928Y-54950721D01*
X134074972Y-55035912D01*
X134074968Y-55035915D01*
X134069512Y-55038767D01*
X134064712Y-55042627D01*
X134064711Y-55042627D01*
X134030326Y-55070273D01*
X133916600Y-55161711D01*
X133790480Y-55312016D01*
X133787516Y-55317408D01*
X133787513Y-55317412D01*
X133708813Y-55460567D01*
X133695956Y-55483954D01*
X133636628Y-55670978D01*
X133614757Y-55865963D01*
X133631175Y-56061483D01*
X133685258Y-56250091D01*
X133688076Y-56255574D01*
X133772123Y-56419113D01*
X133772126Y-56419117D01*
X133774944Y-56424601D01*
X133896818Y-56578369D01*
X134046238Y-56705535D01*
X134051616Y-56708541D01*
X134051618Y-56708542D01*
X134087932Y-56728837D01*
X134217513Y-56801257D01*
X134404118Y-56861889D01*
X134598946Y-56885121D01*
X134605081Y-56884649D01*
X134605083Y-56884649D01*
X134788434Y-56870541D01*
X134788438Y-56870540D01*
X134794576Y-56870068D01*
X134983556Y-56817303D01*
X135158689Y-56728837D01*
X135188515Y-56705535D01*
X135308453Y-56611829D01*
X135313303Y-56608040D01*
X135343084Y-56573539D01*
X135437485Y-56464173D01*
X135437485Y-56464172D01*
X135441509Y-56459511D01*
X135538425Y-56288909D01*
X135600358Y-56102732D01*
X135624949Y-55908071D01*
X135625341Y-55880000D01*
X135606194Y-55684728D01*
X135604413Y-55678829D01*
X135604412Y-55678824D01*
X135551265Y-55502793D01*
X135549484Y-55496894D01*
X135457370Y-55323653D01*
X135333361Y-55171602D01*
X135182180Y-55046535D01*
X135009585Y-54953213D01*
X134980998Y-54944364D01*
X134921839Y-54905112D01*
X134893292Y-54840108D01*
X134904421Y-54769989D01*
X134951692Y-54717018D01*
X135018258Y-54697999D01*
X135514669Y-54697999D01*
X135521490Y-54697629D01*
X135572352Y-54692105D01*
X135587604Y-54688479D01*
X135716462Y-54640172D01*
X135717437Y-54642772D01*
X135772851Y-54630654D01*
X135839399Y-54655392D01*
X135882007Y-54712182D01*
X135890000Y-54756343D01*
X135890000Y-88735499D01*
X135889679Y-88744487D01*
X135870286Y-89015645D01*
X135867728Y-89033433D01*
X135810903Y-89294654D01*
X135805840Y-89311900D01*
X135712411Y-89562393D01*
X135704945Y-89578740D01*
X135576824Y-89813375D01*
X135567105Y-89828498D01*
X135406897Y-90042510D01*
X135395124Y-90056096D01*
X135206096Y-90245124D01*
X135192510Y-90256897D01*
X134978498Y-90417105D01*
X134963375Y-90426824D01*
X134728740Y-90554945D01*
X134712393Y-90562411D01*
X134461900Y-90655840D01*
X134444658Y-90660902D01*
X134183433Y-90717728D01*
X134165650Y-90720285D01*
X133943871Y-90736147D01*
X133894487Y-90739679D01*
X133885499Y-90740000D01*
X115034501Y-90740000D01*
X115025513Y-90739679D01*
X114976129Y-90736147D01*
X114754350Y-90720285D01*
X114736567Y-90717728D01*
X114475342Y-90660902D01*
X114458100Y-90655840D01*
X114207607Y-90562411D01*
X114191260Y-90554945D01*
X113956625Y-90426824D01*
X113941502Y-90417105D01*
X113727490Y-90256897D01*
X113713904Y-90245124D01*
X113524876Y-90056096D01*
X113513103Y-90042510D01*
X113352895Y-89828498D01*
X113343176Y-89813375D01*
X113215055Y-89578740D01*
X113207589Y-89562393D01*
X113114160Y-89311900D01*
X113109097Y-89294654D01*
X113052272Y-89033433D01*
X113049714Y-89015645D01*
X113030321Y-88744487D01*
X113030000Y-88735499D01*
X113030000Y-85092196D01*
X121094055Y-85092196D01*
X121096522Y-85100828D01*
X121103344Y-85124696D01*
X121131484Y-85223158D01*
X121204165Y-85338350D01*
X121306255Y-85428513D01*
X121314378Y-85432327D01*
X121314380Y-85432328D01*
X121373607Y-85460135D01*
X121429548Y-85486399D01*
X121438412Y-85487779D01*
X121438415Y-85487780D01*
X121501897Y-85497664D01*
X121532956Y-85502500D01*
X121604145Y-85502500D01*
X121654051Y-85495353D01*
X121695943Y-85489354D01*
X121695946Y-85489353D01*
X121704829Y-85488081D01*
X121723683Y-85479509D01*
X121744973Y-85469829D01*
X121828820Y-85431706D01*
X121932004Y-85342796D01*
X121939807Y-85330757D01*
X121992152Y-85250000D01*
X124344508Y-85250000D01*
X124346059Y-85259793D01*
X124360134Y-85348657D01*
X124364354Y-85375304D01*
X124421950Y-85488342D01*
X124511658Y-85578050D01*
X124624696Y-85635646D01*
X124634485Y-85637196D01*
X124634487Y-85637197D01*
X124740207Y-85653941D01*
X124750000Y-85655492D01*
X124759793Y-85653941D01*
X124865513Y-85637197D01*
X124865515Y-85637196D01*
X124875304Y-85635646D01*
X124988342Y-85578050D01*
X125078050Y-85488342D01*
X125135646Y-85375304D01*
X125139867Y-85348657D01*
X125153941Y-85259793D01*
X125155492Y-85250000D01*
X125135646Y-85124696D01*
X125119086Y-85092196D01*
X126874055Y-85092196D01*
X126876522Y-85100828D01*
X126883344Y-85124696D01*
X126911484Y-85223158D01*
X126984165Y-85338350D01*
X127086255Y-85428513D01*
X127094378Y-85432327D01*
X127094380Y-85432328D01*
X127153607Y-85460135D01*
X127209548Y-85486399D01*
X127218412Y-85487779D01*
X127218415Y-85487780D01*
X127281897Y-85497664D01*
X127312956Y-85502500D01*
X127384145Y-85502500D01*
X127434051Y-85495353D01*
X127475943Y-85489354D01*
X127475946Y-85489353D01*
X127484829Y-85488081D01*
X127503683Y-85479509D01*
X127524973Y-85469829D01*
X127608820Y-85431706D01*
X127712004Y-85342796D01*
X127719807Y-85330757D01*
X127781206Y-85236032D01*
X127781207Y-85236030D01*
X127786087Y-85228501D01*
X127825113Y-85098006D01*
X127825945Y-84961804D01*
X127821826Y-84947391D01*
X127790983Y-84839473D01*
X127790982Y-84839471D01*
X127788516Y-84830842D01*
X127715835Y-84715650D01*
X127613745Y-84625487D01*
X127605622Y-84621673D01*
X127605620Y-84621672D01*
X127546393Y-84593865D01*
X127490452Y-84567601D01*
X127481588Y-84566221D01*
X127481585Y-84566220D01*
X127418103Y-84556336D01*
X127387044Y-84551500D01*
X127315855Y-84551500D01*
X127276411Y-84557149D01*
X127224057Y-84564646D01*
X127224054Y-84564647D01*
X127215171Y-84565919D01*
X127091180Y-84622294D01*
X126987996Y-84711204D01*
X126913913Y-84825499D01*
X126874887Y-84955994D01*
X126874055Y-85092196D01*
X125119086Y-85092196D01*
X125078050Y-85011658D01*
X124988342Y-84921950D01*
X124875304Y-84864354D01*
X124865515Y-84862804D01*
X124865513Y-84862803D01*
X124759793Y-84846059D01*
X124750000Y-84844508D01*
X124740207Y-84846059D01*
X124634487Y-84862803D01*
X124634485Y-84862804D01*
X124624696Y-84864354D01*
X124511658Y-84921950D01*
X124421950Y-85011658D01*
X124364354Y-85124696D01*
X124344508Y-85250000D01*
X121992152Y-85250000D01*
X122001206Y-85236032D01*
X122001207Y-85236030D01*
X122006087Y-85228501D01*
X122045113Y-85098006D01*
X122045945Y-84961804D01*
X122041826Y-84947391D01*
X122010983Y-84839473D01*
X122010982Y-84839471D01*
X122008516Y-84830842D01*
X121935835Y-84715650D01*
X121833745Y-84625487D01*
X121825622Y-84621673D01*
X121825620Y-84621672D01*
X121766393Y-84593865D01*
X121710452Y-84567601D01*
X121701588Y-84566221D01*
X121701585Y-84566220D01*
X121638103Y-84556336D01*
X121607044Y-84551500D01*
X121535855Y-84551500D01*
X121496411Y-84557149D01*
X121444057Y-84564646D01*
X121444054Y-84564647D01*
X121435171Y-84565919D01*
X121311180Y-84622294D01*
X121207996Y-84711204D01*
X121133913Y-84825499D01*
X121094887Y-84955994D01*
X121094055Y-85092196D01*
X113030000Y-85092196D01*
X113030000Y-82250000D01*
X123844508Y-82250000D01*
X123864354Y-82375304D01*
X123921950Y-82488342D01*
X124011658Y-82578050D01*
X124124696Y-82635646D01*
X124134485Y-82637196D01*
X124134487Y-82637197D01*
X124240207Y-82653941D01*
X124250000Y-82655492D01*
X124259793Y-82653941D01*
X124365513Y-82637197D01*
X124365515Y-82637196D01*
X124375304Y-82635646D01*
X124488342Y-82578050D01*
X124578050Y-82488342D01*
X124635646Y-82375304D01*
X124655492Y-82250000D01*
X124635646Y-82124696D01*
X124578050Y-82011658D01*
X124488342Y-81921950D01*
X124375304Y-81864354D01*
X124365515Y-81862804D01*
X124365513Y-81862803D01*
X124259793Y-81846059D01*
X124250000Y-81844508D01*
X124240207Y-81846059D01*
X124134487Y-81862803D01*
X124134485Y-81862804D01*
X124124696Y-81864354D01*
X124011658Y-81921950D01*
X123921950Y-82011658D01*
X123864354Y-82124696D01*
X123844508Y-82250000D01*
X113030000Y-82250000D01*
X113030000Y-81500000D01*
X120594508Y-81500000D01*
X120614354Y-81625304D01*
X120671950Y-81738342D01*
X120761658Y-81828050D01*
X120874696Y-81885646D01*
X120884485Y-81887196D01*
X120884487Y-81887197D01*
X120990207Y-81903941D01*
X121000000Y-81905492D01*
X121009793Y-81903941D01*
X121115513Y-81887197D01*
X121115515Y-81887196D01*
X121125304Y-81885646D01*
X121238342Y-81828050D01*
X121328050Y-81738342D01*
X121385646Y-81625304D01*
X121404093Y-81508831D01*
X121434505Y-81444679D01*
X121494773Y-81407151D01*
X121508829Y-81404094D01*
X121571270Y-81394204D01*
X121615512Y-81387197D01*
X121615513Y-81387197D01*
X121625304Y-81385646D01*
X121738342Y-81328050D01*
X121828050Y-81238342D01*
X121885646Y-81125304D01*
X121887381Y-81114354D01*
X121903941Y-81009793D01*
X121905492Y-81000000D01*
X121885646Y-80874696D01*
X121828050Y-80761658D01*
X121816392Y-80750000D01*
X123594508Y-80750000D01*
X123614354Y-80875304D01*
X123671950Y-80988342D01*
X123761658Y-81078050D01*
X123874696Y-81135646D01*
X123884485Y-81137196D01*
X123884487Y-81137197D01*
X123990207Y-81153941D01*
X124000000Y-81155492D01*
X124009793Y-81153941D01*
X124115513Y-81137197D01*
X124115515Y-81137196D01*
X124125304Y-81135646D01*
X124238342Y-81078050D01*
X124328050Y-80988342D01*
X124385646Y-80875304D01*
X124405492Y-80750000D01*
X124393130Y-80671950D01*
X124387197Y-80634487D01*
X124387196Y-80634485D01*
X124385646Y-80624696D01*
X124328050Y-80511658D01*
X124238342Y-80421950D01*
X124125304Y-80364354D01*
X124115515Y-80362804D01*
X124115513Y-80362803D01*
X124009793Y-80346059D01*
X124000000Y-80344508D01*
X123990207Y-80346059D01*
X123884487Y-80362803D01*
X123884485Y-80362804D01*
X123874696Y-80364354D01*
X123761658Y-80421950D01*
X123671950Y-80511658D01*
X123614354Y-80624696D01*
X123612804Y-80634485D01*
X123612803Y-80634487D01*
X123606870Y-80671950D01*
X123594508Y-80750000D01*
X121816392Y-80750000D01*
X121738342Y-80671950D01*
X121625304Y-80614354D01*
X121615515Y-80612804D01*
X121615513Y-80612803D01*
X121509793Y-80596059D01*
X121500000Y-80594508D01*
X121490207Y-80596059D01*
X121384487Y-80612803D01*
X121384485Y-80612804D01*
X121374696Y-80614354D01*
X121261658Y-80671950D01*
X121171950Y-80761658D01*
X121114354Y-80874696D01*
X121096355Y-80988342D01*
X121095907Y-80991168D01*
X121065495Y-81055321D01*
X121005227Y-81092849D01*
X120991171Y-81095906D01*
X120928730Y-81105796D01*
X120884488Y-81112803D01*
X120884487Y-81112803D01*
X120874696Y-81114354D01*
X120761658Y-81171950D01*
X120671950Y-81261658D01*
X120614354Y-81374696D01*
X120612804Y-81384485D01*
X120612803Y-81384487D01*
X120603270Y-81444679D01*
X120594508Y-81500000D01*
X113030000Y-81500000D01*
X113030000Y-78320000D01*
X118334508Y-78320000D01*
X118354354Y-78445304D01*
X118411950Y-78558342D01*
X118501658Y-78648050D01*
X118614696Y-78705646D01*
X118624485Y-78707196D01*
X118624487Y-78707197D01*
X118730207Y-78723941D01*
X118740000Y-78725492D01*
X118749793Y-78723941D01*
X118855513Y-78707197D01*
X118855515Y-78707196D01*
X118865304Y-78705646D01*
X118978342Y-78648050D01*
X119068050Y-78558342D01*
X119125646Y-78445304D01*
X119145492Y-78320000D01*
X119125646Y-78194696D01*
X119068050Y-78081658D01*
X118978342Y-77991950D01*
X118865304Y-77934354D01*
X118855515Y-77932804D01*
X118855513Y-77932803D01*
X118749793Y-77916059D01*
X118740000Y-77914508D01*
X118730207Y-77916059D01*
X118624487Y-77932803D01*
X118624485Y-77932804D01*
X118614696Y-77934354D01*
X118501658Y-77991950D01*
X118411950Y-78081658D01*
X118354354Y-78194696D01*
X118334508Y-78320000D01*
X113030000Y-78320000D01*
X113030000Y-77500000D01*
X116094508Y-77500000D01*
X116114354Y-77625304D01*
X116171950Y-77738342D01*
X116261658Y-77828050D01*
X116374696Y-77885646D01*
X116384485Y-77887196D01*
X116384487Y-77887197D01*
X116490207Y-77903941D01*
X116500000Y-77905492D01*
X116509793Y-77903941D01*
X116615513Y-77887197D01*
X116615515Y-77887196D01*
X116625304Y-77885646D01*
X116738342Y-77828050D01*
X116828050Y-77738342D01*
X116885646Y-77625304D01*
X116905492Y-77500000D01*
X116885646Y-77374696D01*
X116828050Y-77261658D01*
X116738342Y-77171950D01*
X116625304Y-77114354D01*
X116615515Y-77112804D01*
X116615513Y-77112803D01*
X116509793Y-77096059D01*
X116500000Y-77094508D01*
X116490207Y-77096059D01*
X116384487Y-77112803D01*
X116384485Y-77112804D01*
X116374696Y-77114354D01*
X116261658Y-77171950D01*
X116171950Y-77261658D01*
X116114354Y-77374696D01*
X116094508Y-77500000D01*
X113030000Y-77500000D01*
X113030000Y-74605985D01*
X113050002Y-74537864D01*
X113103658Y-74491371D01*
X113173932Y-74481267D01*
X113238512Y-74510761D01*
X113251237Y-74523488D01*
X113343213Y-74629667D01*
X113350580Y-74636883D01*
X113514434Y-74772916D01*
X113522881Y-74778831D01*
X113706756Y-74886279D01*
X113716042Y-74890729D01*
X113915001Y-74966703D01*
X113924899Y-74969579D01*
X114026192Y-74990187D01*
X114088958Y-75023369D01*
X114123820Y-75085217D01*
X114119711Y-75156094D01*
X114077935Y-75213499D01*
X114036648Y-75234531D01*
X113923393Y-75267864D01*
X113917928Y-75270721D01*
X113754972Y-75355912D01*
X113754968Y-75355915D01*
X113749512Y-75358767D01*
X113744712Y-75362627D01*
X113744711Y-75362627D01*
X113710326Y-75390273D01*
X113596600Y-75481711D01*
X113470480Y-75632016D01*
X113467516Y-75637408D01*
X113467513Y-75637412D01*
X113388813Y-75780567D01*
X113375956Y-75803954D01*
X113316628Y-75990978D01*
X113294757Y-76185963D01*
X113311175Y-76381483D01*
X113365258Y-76570091D01*
X113368076Y-76575574D01*
X113452123Y-76739113D01*
X113452126Y-76739117D01*
X113454944Y-76744601D01*
X113576818Y-76898369D01*
X113581511Y-76902363D01*
X113581512Y-76902364D01*
X113585188Y-76905492D01*
X113726238Y-77025535D01*
X113731616Y-77028541D01*
X113731618Y-77028542D01*
X113767932Y-77048837D01*
X113897513Y-77121257D01*
X114084118Y-77181889D01*
X114278946Y-77205121D01*
X114285081Y-77204649D01*
X114285083Y-77204649D01*
X114468434Y-77190541D01*
X114468438Y-77190540D01*
X114474576Y-77190068D01*
X114663556Y-77137303D01*
X114838689Y-77048837D01*
X114868515Y-77025535D01*
X114988453Y-76931829D01*
X114993303Y-76928040D01*
X115023084Y-76893539D01*
X115117485Y-76784173D01*
X115117485Y-76784172D01*
X115121509Y-76779511D01*
X115218425Y-76608909D01*
X115254654Y-76500000D01*
X120844508Y-76500000D01*
X120846059Y-76509793D01*
X120862607Y-76614272D01*
X120864354Y-76625304D01*
X120921950Y-76738342D01*
X121011658Y-76828050D01*
X121124696Y-76885646D01*
X121134485Y-76887196D01*
X121134487Y-76887197D01*
X121240207Y-76903941D01*
X121250000Y-76905492D01*
X121259793Y-76903941D01*
X121365513Y-76887197D01*
X121365515Y-76887196D01*
X121375304Y-76885646D01*
X121488342Y-76828050D01*
X121578050Y-76738342D01*
X121635646Y-76625304D01*
X121637394Y-76614272D01*
X121653941Y-76509793D01*
X121655492Y-76500000D01*
X122094508Y-76500000D01*
X122096059Y-76509793D01*
X122112607Y-76614272D01*
X122114354Y-76625304D01*
X122171950Y-76738342D01*
X122261658Y-76828050D01*
X122374696Y-76885646D01*
X122384485Y-76887196D01*
X122384487Y-76887197D01*
X122490207Y-76903941D01*
X122500000Y-76905492D01*
X122509793Y-76903941D01*
X122615513Y-76887197D01*
X122615515Y-76887196D01*
X122625304Y-76885646D01*
X122738342Y-76828050D01*
X122828050Y-76738342D01*
X122885646Y-76625304D01*
X122887394Y-76614272D01*
X122903941Y-76509793D01*
X122905492Y-76500000D01*
X122885646Y-76374696D01*
X122828050Y-76261658D01*
X122816392Y-76250000D01*
X126844508Y-76250000D01*
X126864354Y-76375304D01*
X126921950Y-76488342D01*
X127011658Y-76578050D01*
X127124696Y-76635646D01*
X127134485Y-76637196D01*
X127134487Y-76637197D01*
X127240207Y-76653941D01*
X127250000Y-76655492D01*
X127259793Y-76653941D01*
X127365513Y-76637197D01*
X127365515Y-76637196D01*
X127375304Y-76635646D01*
X127488342Y-76578050D01*
X127578050Y-76488342D01*
X127635646Y-76375304D01*
X127655492Y-76250000D01*
X129094508Y-76250000D01*
X129114354Y-76375304D01*
X129171950Y-76488342D01*
X129261658Y-76578050D01*
X129374696Y-76635646D01*
X129384485Y-76637196D01*
X129384487Y-76637197D01*
X129490207Y-76653941D01*
X129500000Y-76655492D01*
X129509793Y-76653941D01*
X129615513Y-76637197D01*
X129615515Y-76637196D01*
X129625304Y-76635646D01*
X129738342Y-76578050D01*
X129828050Y-76488342D01*
X129885646Y-76375304D01*
X129905492Y-76250000D01*
X129895349Y-76185963D01*
X133614757Y-76185963D01*
X133631175Y-76381483D01*
X133685258Y-76570091D01*
X133688076Y-76575574D01*
X133772123Y-76739113D01*
X133772126Y-76739117D01*
X133774944Y-76744601D01*
X133896818Y-76898369D01*
X133901511Y-76902363D01*
X133901512Y-76902364D01*
X133905188Y-76905492D01*
X134046238Y-77025535D01*
X134051616Y-77028541D01*
X134051618Y-77028542D01*
X134087932Y-77048837D01*
X134217513Y-77121257D01*
X134404118Y-77181889D01*
X134598946Y-77205121D01*
X134605081Y-77204649D01*
X134605083Y-77204649D01*
X134788434Y-77190541D01*
X134788438Y-77190540D01*
X134794576Y-77190068D01*
X134983556Y-77137303D01*
X135158689Y-77048837D01*
X135188515Y-77025535D01*
X135308453Y-76931829D01*
X135313303Y-76928040D01*
X135343084Y-76893539D01*
X135437485Y-76784173D01*
X135437485Y-76784172D01*
X135441509Y-76779511D01*
X135538425Y-76608909D01*
X135600358Y-76422732D01*
X135624949Y-76228071D01*
X135625341Y-76200000D01*
X135606194Y-76004728D01*
X135604413Y-75998829D01*
X135604412Y-75998824D01*
X135551265Y-75822793D01*
X135549484Y-75816894D01*
X135457370Y-75643653D01*
X135333361Y-75491602D01*
X135182180Y-75366535D01*
X135009585Y-75273213D01*
X134890648Y-75236396D01*
X134828039Y-75217015D01*
X134828036Y-75217014D01*
X134822152Y-75215193D01*
X134816027Y-75214549D01*
X134816026Y-75214549D01*
X134633147Y-75195327D01*
X134633146Y-75195327D01*
X134627019Y-75194683D01*
X134504383Y-75205844D01*
X134437759Y-75211907D01*
X134437758Y-75211907D01*
X134431618Y-75212466D01*
X134425704Y-75214207D01*
X134425702Y-75214207D01*
X134356648Y-75234531D01*
X134243393Y-75267864D01*
X134237928Y-75270721D01*
X134074972Y-75355912D01*
X134074968Y-75355915D01*
X134069512Y-75358767D01*
X134064712Y-75362627D01*
X134064711Y-75362627D01*
X134030326Y-75390273D01*
X133916600Y-75481711D01*
X133790480Y-75632016D01*
X133787516Y-75637408D01*
X133787513Y-75637412D01*
X133708813Y-75780567D01*
X133695956Y-75803954D01*
X133636628Y-75990978D01*
X133614757Y-76185963D01*
X129895349Y-76185963D01*
X129893130Y-76171950D01*
X129887197Y-76134487D01*
X129887196Y-76134485D01*
X129885646Y-76124696D01*
X129828050Y-76011658D01*
X129738342Y-75921950D01*
X129625304Y-75864354D01*
X129615515Y-75862804D01*
X129615513Y-75862803D01*
X129509793Y-75846059D01*
X129500000Y-75844508D01*
X129490207Y-75846059D01*
X129384487Y-75862803D01*
X129384485Y-75862804D01*
X129374696Y-75864354D01*
X129261658Y-75921950D01*
X129171950Y-76011658D01*
X129114354Y-76124696D01*
X129112804Y-76134485D01*
X129112803Y-76134487D01*
X129106870Y-76171950D01*
X129094508Y-76250000D01*
X127655492Y-76250000D01*
X127643130Y-76171950D01*
X127637197Y-76134487D01*
X127637196Y-76134485D01*
X127635646Y-76124696D01*
X127578050Y-76011658D01*
X127488342Y-75921950D01*
X127375304Y-75864354D01*
X127365515Y-75862804D01*
X127365513Y-75862803D01*
X127259793Y-75846059D01*
X127250000Y-75844508D01*
X127240207Y-75846059D01*
X127134487Y-75862803D01*
X127134485Y-75862804D01*
X127124696Y-75864354D01*
X127011658Y-75921950D01*
X126921950Y-76011658D01*
X126864354Y-76124696D01*
X126862804Y-76134485D01*
X126862803Y-76134487D01*
X126856870Y-76171950D01*
X126844508Y-76250000D01*
X122816392Y-76250000D01*
X122738342Y-76171950D01*
X122625304Y-76114354D01*
X122615515Y-76112804D01*
X122615513Y-76112803D01*
X122509793Y-76096059D01*
X122500000Y-76094508D01*
X122490207Y-76096059D01*
X122384487Y-76112803D01*
X122384485Y-76112804D01*
X122374696Y-76114354D01*
X122261658Y-76171950D01*
X122171950Y-76261658D01*
X122114354Y-76374696D01*
X122094508Y-76500000D01*
X121655492Y-76500000D01*
X121635646Y-76374696D01*
X121578050Y-76261658D01*
X121488342Y-76171950D01*
X121375304Y-76114354D01*
X121365515Y-76112804D01*
X121365513Y-76112803D01*
X121259793Y-76096059D01*
X121250000Y-76094508D01*
X121240207Y-76096059D01*
X121134487Y-76112803D01*
X121134485Y-76112804D01*
X121124696Y-76114354D01*
X121011658Y-76171950D01*
X120921950Y-76261658D01*
X120864354Y-76374696D01*
X120844508Y-76500000D01*
X115254654Y-76500000D01*
X115280358Y-76422732D01*
X115304949Y-76228071D01*
X115305341Y-76200000D01*
X115286194Y-76004728D01*
X115284413Y-75998829D01*
X115284412Y-75998824D01*
X115231265Y-75822793D01*
X115229484Y-75816894D01*
X115137370Y-75643653D01*
X115013361Y-75491602D01*
X114862180Y-75366535D01*
X114689585Y-75273213D01*
X114623840Y-75252862D01*
X114570649Y-75236396D01*
X114511489Y-75197145D01*
X114482942Y-75132140D01*
X114494071Y-75062021D01*
X114541342Y-75009050D01*
X114581713Y-74992784D01*
X114588260Y-74991392D01*
X114792255Y-74930191D01*
X114801842Y-74926433D01*
X114993095Y-74832739D01*
X115001945Y-74827464D01*
X115175328Y-74703792D01*
X115183200Y-74697139D01*
X115334052Y-74546812D01*
X115340730Y-74538965D01*
X115465003Y-74366020D01*
X115470313Y-74357183D01*
X115474289Y-74349138D01*
X121078758Y-74349138D01*
X121096035Y-74505633D01*
X121150143Y-74653490D01*
X121154380Y-74659796D01*
X121154382Y-74659799D01*
X121179474Y-74697139D01*
X121237958Y-74784172D01*
X121354410Y-74890135D01*
X121382171Y-74905208D01*
X121486099Y-74961637D01*
X121486101Y-74961638D01*
X121492776Y-74965262D01*
X121500125Y-74967190D01*
X121637719Y-75003287D01*
X121637721Y-75003287D01*
X121645069Y-75005215D01*
X121728380Y-75006524D01*
X121794898Y-75007569D01*
X121794901Y-75007569D01*
X121802495Y-75007688D01*
X121955968Y-74972538D01*
X122096625Y-74901795D01*
X122139106Y-74865513D01*
X122210574Y-74804474D01*
X122210576Y-74804471D01*
X122216348Y-74799542D01*
X122251948Y-74750000D01*
X125844508Y-74750000D01*
X125846059Y-74759793D01*
X125857583Y-74832550D01*
X125864354Y-74875304D01*
X125921950Y-74988342D01*
X126011658Y-75078050D01*
X126124696Y-75135646D01*
X126134485Y-75137196D01*
X126134487Y-75137197D01*
X126240207Y-75153941D01*
X126250000Y-75155492D01*
X126259793Y-75153941D01*
X126365513Y-75137197D01*
X126365515Y-75137196D01*
X126375304Y-75135646D01*
X126488342Y-75078050D01*
X126578050Y-74988342D01*
X126635646Y-74875304D01*
X126642418Y-74832550D01*
X126653941Y-74759793D01*
X126655492Y-74750000D01*
X126652247Y-74729509D01*
X126637197Y-74634487D01*
X126637196Y-74634485D01*
X126635646Y-74624696D01*
X126578050Y-74511658D01*
X126566392Y-74500000D01*
X129594508Y-74500000D01*
X129596059Y-74509793D01*
X129610182Y-74598960D01*
X129614354Y-74625304D01*
X129671950Y-74738342D01*
X129761658Y-74828050D01*
X129874696Y-74885646D01*
X129884485Y-74887196D01*
X129884487Y-74887197D01*
X129990207Y-74903941D01*
X130000000Y-74905492D01*
X130009793Y-74903941D01*
X130115513Y-74887197D01*
X130115515Y-74887196D01*
X130125304Y-74885646D01*
X130238342Y-74828050D01*
X130328050Y-74738342D01*
X130385646Y-74625304D01*
X130389819Y-74598960D01*
X130403941Y-74509793D01*
X130405492Y-74500000D01*
X130393130Y-74421950D01*
X130387197Y-74384487D01*
X130387196Y-74384485D01*
X130385646Y-74374696D01*
X130328050Y-74261658D01*
X130238342Y-74171950D01*
X130125304Y-74114354D01*
X130115515Y-74112804D01*
X130115513Y-74112803D01*
X130009793Y-74096059D01*
X130000000Y-74094508D01*
X129990207Y-74096059D01*
X129884487Y-74112803D01*
X129884485Y-74112804D01*
X129874696Y-74114354D01*
X129761658Y-74171950D01*
X129671950Y-74261658D01*
X129614354Y-74374696D01*
X129612804Y-74384485D01*
X129612803Y-74384487D01*
X129606870Y-74421950D01*
X129594508Y-74500000D01*
X126566392Y-74500000D01*
X126488342Y-74421950D01*
X126375304Y-74364354D01*
X126365515Y-74362804D01*
X126365513Y-74362803D01*
X126259793Y-74346059D01*
X126250000Y-74344508D01*
X126240207Y-74346059D01*
X126134487Y-74362803D01*
X126134485Y-74362804D01*
X126124696Y-74364354D01*
X126011658Y-74421950D01*
X125921950Y-74511658D01*
X125864354Y-74624696D01*
X125862804Y-74634485D01*
X125862803Y-74634487D01*
X125847753Y-74729509D01*
X125844508Y-74750000D01*
X122251948Y-74750000D01*
X122308224Y-74671683D01*
X122366950Y-74525598D01*
X122389134Y-74369723D01*
X122389278Y-74356000D01*
X122370363Y-74199694D01*
X122362529Y-74178961D01*
X122317394Y-74059514D01*
X122317393Y-74059511D01*
X122314710Y-74052412D01*
X122225531Y-73922657D01*
X122134424Y-73841483D01*
X122113648Y-73822972D01*
X122113645Y-73822970D01*
X122107976Y-73817919D01*
X121968831Y-73744245D01*
X121910164Y-73729509D01*
X121823498Y-73707740D01*
X121823496Y-73707740D01*
X121816128Y-73705889D01*
X121808530Y-73705849D01*
X121808528Y-73705849D01*
X121741319Y-73705497D01*
X121658684Y-73705065D01*
X121651305Y-73706837D01*
X121651301Y-73706837D01*
X121512967Y-73740048D01*
X121512963Y-73740049D01*
X121505588Y-73741820D01*
X121365679Y-73814032D01*
X121359957Y-73819024D01*
X121359955Y-73819025D01*
X121252759Y-73912538D01*
X121252756Y-73912541D01*
X121247034Y-73917533D01*
X121242667Y-73923747D01*
X121167927Y-74030091D01*
X121156501Y-74046348D01*
X121099309Y-74193039D01*
X121078758Y-74349138D01*
X115474289Y-74349138D01*
X115562250Y-74171164D01*
X115562324Y-74163233D01*
X115555416Y-74160000D01*
X113926000Y-74160000D01*
X113857879Y-74139998D01*
X113811386Y-74086342D01*
X113800000Y-74034000D01*
X113800000Y-73500000D01*
X125094508Y-73500000D01*
X125114354Y-73625304D01*
X125171950Y-73738342D01*
X125261658Y-73828050D01*
X125374696Y-73885646D01*
X125384485Y-73887196D01*
X125384487Y-73887197D01*
X125490207Y-73903941D01*
X125500000Y-73905492D01*
X125509793Y-73903941D01*
X125615513Y-73887197D01*
X125615515Y-73887196D01*
X125625304Y-73885646D01*
X125738342Y-73828050D01*
X125828050Y-73738342D01*
X125875120Y-73645963D01*
X133614757Y-73645963D01*
X133631175Y-73841483D01*
X133685258Y-74030091D01*
X133688076Y-74035574D01*
X133772123Y-74199113D01*
X133772126Y-74199117D01*
X133774944Y-74204601D01*
X133896818Y-74358369D01*
X133901511Y-74362363D01*
X133901512Y-74362364D01*
X133979764Y-74428961D01*
X134046238Y-74485535D01*
X134051616Y-74488541D01*
X134051618Y-74488542D01*
X134130544Y-74532652D01*
X134217513Y-74581257D01*
X134404118Y-74641889D01*
X134598946Y-74665121D01*
X134605081Y-74664649D01*
X134605083Y-74664649D01*
X134788434Y-74650541D01*
X134788438Y-74650540D01*
X134794576Y-74650068D01*
X134983556Y-74597303D01*
X135158689Y-74508837D01*
X135172453Y-74498084D01*
X135308453Y-74391829D01*
X135313303Y-74388040D01*
X135332675Y-74365598D01*
X135437485Y-74244173D01*
X135437485Y-74244172D01*
X135441509Y-74239511D01*
X135538425Y-74068909D01*
X135600358Y-73882732D01*
X135624949Y-73688071D01*
X135625341Y-73660000D01*
X135606194Y-73464728D01*
X135604413Y-73458829D01*
X135604412Y-73458824D01*
X135551265Y-73282793D01*
X135549484Y-73276894D01*
X135457370Y-73103653D01*
X135333361Y-72951602D01*
X135182180Y-72826535D01*
X135009585Y-72733213D01*
X134915868Y-72704203D01*
X134828039Y-72677015D01*
X134828036Y-72677014D01*
X134822152Y-72675193D01*
X134816027Y-72674549D01*
X134816026Y-72674549D01*
X134633147Y-72655327D01*
X134633146Y-72655327D01*
X134627019Y-72654683D01*
X134504383Y-72665844D01*
X134437759Y-72671907D01*
X134437758Y-72671907D01*
X134431618Y-72672466D01*
X134425704Y-72674207D01*
X134425702Y-72674207D01*
X134307331Y-72709046D01*
X134243393Y-72727864D01*
X134237928Y-72730721D01*
X134074972Y-72815912D01*
X134074968Y-72815915D01*
X134069512Y-72818767D01*
X134064712Y-72822627D01*
X134064711Y-72822627D01*
X134053642Y-72831527D01*
X133916600Y-72941711D01*
X133790480Y-73092016D01*
X133787516Y-73097408D01*
X133787513Y-73097412D01*
X133746536Y-73171950D01*
X133695956Y-73263954D01*
X133636628Y-73450978D01*
X133614757Y-73645963D01*
X125875120Y-73645963D01*
X125885646Y-73625304D01*
X125905492Y-73500000D01*
X125899906Y-73464728D01*
X125887197Y-73384487D01*
X125887196Y-73384485D01*
X125885646Y-73374696D01*
X125828050Y-73261658D01*
X125738342Y-73171950D01*
X125625304Y-73114354D01*
X125615515Y-73112804D01*
X125615513Y-73112803D01*
X125509793Y-73096059D01*
X125500000Y-73094508D01*
X125490207Y-73096059D01*
X125384487Y-73112803D01*
X125384485Y-73112804D01*
X125374696Y-73114354D01*
X125261658Y-73171950D01*
X125171950Y-73261658D01*
X125114354Y-73374696D01*
X125112804Y-73384485D01*
X125112803Y-73384487D01*
X125100094Y-73464728D01*
X125094508Y-73500000D01*
X113800000Y-73500000D01*
X113800000Y-72394651D01*
X113801323Y-72394651D01*
X113800683Y-72387336D01*
X114798676Y-72387336D01*
X114799521Y-72396351D01*
X114800000Y-72396351D01*
X114800000Y-72401459D01*
X114800054Y-72402035D01*
X114800000Y-72402580D01*
X114800000Y-73141885D01*
X114804475Y-73157124D01*
X114805865Y-73158329D01*
X114813548Y-73160000D01*
X115545376Y-73160000D01*
X115558907Y-73156027D01*
X115559617Y-73151089D01*
X115502972Y-73020814D01*
X115498105Y-73011739D01*
X115382426Y-72832926D01*
X115376136Y-72824757D01*
X115232806Y-72667240D01*
X115225273Y-72660215D01*
X115058139Y-72528222D01*
X115049552Y-72522517D01*
X115012116Y-72501851D01*
X114962146Y-72451419D01*
X114961661Y-72449138D01*
X121078758Y-72449138D01*
X121096035Y-72605633D01*
X121150143Y-72753490D01*
X121154380Y-72759796D01*
X121154382Y-72759799D01*
X121178774Y-72796097D01*
X121237958Y-72884172D01*
X121354410Y-72990135D01*
X121410913Y-73020814D01*
X121486099Y-73061637D01*
X121486101Y-73061638D01*
X121492776Y-73065262D01*
X121500125Y-73067190D01*
X121637719Y-73103287D01*
X121637721Y-73103287D01*
X121645069Y-73105215D01*
X121728380Y-73106524D01*
X121794898Y-73107569D01*
X121794901Y-73107569D01*
X121802495Y-73107688D01*
X121955968Y-73072538D01*
X122096625Y-73001795D01*
X122161449Y-72946430D01*
X122210574Y-72904474D01*
X122210576Y-72904471D01*
X122216348Y-72899542D01*
X122308224Y-72771683D01*
X122366950Y-72625598D01*
X122373953Y-72576393D01*
X122388553Y-72473807D01*
X122388553Y-72473804D01*
X122389134Y-72469723D01*
X122389278Y-72456000D01*
X122370363Y-72299694D01*
X122345130Y-72232916D01*
X122317394Y-72159514D01*
X122317393Y-72159511D01*
X122314710Y-72152412D01*
X122225531Y-72022657D01*
X122145522Y-71951371D01*
X122113648Y-71922972D01*
X122113645Y-71922970D01*
X122107976Y-71917919D01*
X121968831Y-71844245D01*
X121896274Y-71826020D01*
X121823498Y-71807740D01*
X121823496Y-71807740D01*
X121816128Y-71805889D01*
X121808530Y-71805849D01*
X121808528Y-71805849D01*
X121741319Y-71805497D01*
X121658684Y-71805065D01*
X121651305Y-71806837D01*
X121651301Y-71806837D01*
X121512967Y-71840048D01*
X121512963Y-71840049D01*
X121505588Y-71841820D01*
X121365679Y-71914032D01*
X121359957Y-71919024D01*
X121359955Y-71919025D01*
X121252759Y-72012538D01*
X121252756Y-72012541D01*
X121247034Y-72017533D01*
X121229022Y-72043161D01*
X121171420Y-72125121D01*
X121156501Y-72146348D01*
X121099309Y-72293039D01*
X121098318Y-72300568D01*
X121084888Y-72402580D01*
X121078758Y-72449138D01*
X114961661Y-72449138D01*
X114947374Y-72381976D01*
X114972490Y-72315571D01*
X114999842Y-72288964D01*
X115175327Y-72163792D01*
X115183200Y-72157139D01*
X115334052Y-72006812D01*
X115340730Y-71998965D01*
X115465003Y-71826020D01*
X115470313Y-71817183D01*
X115562250Y-71631164D01*
X115562324Y-71623233D01*
X115555416Y-71620000D01*
X114818115Y-71620000D01*
X114802876Y-71624475D01*
X114801671Y-71625865D01*
X114800000Y-71633548D01*
X114800000Y-72387336D01*
X114798676Y-72387336D01*
X113800683Y-72387336D01*
X113800285Y-72382788D01*
X113800000Y-72382788D01*
X113800000Y-72379528D01*
X113799817Y-72377436D01*
X113800000Y-72375793D01*
X113800000Y-71105963D01*
X133614757Y-71105963D01*
X133631175Y-71301483D01*
X133685258Y-71490091D01*
X133688076Y-71495574D01*
X133772123Y-71659113D01*
X133772126Y-71659117D01*
X133774944Y-71664601D01*
X133896818Y-71818369D01*
X133901511Y-71822363D01*
X133901512Y-71822364D01*
X133925049Y-71842395D01*
X134046238Y-71945535D01*
X134051616Y-71948541D01*
X134051618Y-71948542D01*
X134087932Y-71968837D01*
X134217513Y-72041257D01*
X134404118Y-72101889D01*
X134598946Y-72125121D01*
X134605081Y-72124649D01*
X134605083Y-72124649D01*
X134788434Y-72110541D01*
X134788438Y-72110540D01*
X134794576Y-72110068D01*
X134983556Y-72057303D01*
X135158689Y-71968837D01*
X135188515Y-71945535D01*
X135308453Y-71851829D01*
X135313303Y-71848040D01*
X135320202Y-71840048D01*
X135437485Y-71704173D01*
X135437485Y-71704172D01*
X135441509Y-71699511D01*
X135538425Y-71528909D01*
X135600358Y-71342732D01*
X135624949Y-71148071D01*
X135625341Y-71120000D01*
X135606194Y-70924728D01*
X135604413Y-70918829D01*
X135604412Y-70918824D01*
X135551265Y-70742793D01*
X135549484Y-70736894D01*
X135457370Y-70563653D01*
X135333361Y-70411602D01*
X135182180Y-70286535D01*
X135009585Y-70193213D01*
X134915868Y-70164203D01*
X134828039Y-70137015D01*
X134828036Y-70137014D01*
X134822152Y-70135193D01*
X134816027Y-70134549D01*
X134816026Y-70134549D01*
X134633147Y-70115327D01*
X134633146Y-70115327D01*
X134627019Y-70114683D01*
X134504383Y-70125844D01*
X134437759Y-70131907D01*
X134437758Y-70131907D01*
X134431618Y-70132466D01*
X134425704Y-70134207D01*
X134425702Y-70134207D01*
X134307331Y-70169046D01*
X134243393Y-70187864D01*
X134237928Y-70190721D01*
X134074972Y-70275912D01*
X134074968Y-70275915D01*
X134069512Y-70278767D01*
X134064712Y-70282627D01*
X134064711Y-70282627D01*
X134053642Y-70291527D01*
X133916600Y-70401711D01*
X133790480Y-70552016D01*
X133787516Y-70557408D01*
X133787513Y-70557412D01*
X133753105Y-70620000D01*
X133695956Y-70723954D01*
X133694095Y-70729821D01*
X133694094Y-70729823D01*
X133666292Y-70817466D01*
X133636628Y-70910978D01*
X133614757Y-71105963D01*
X113800000Y-71105963D01*
X113800000Y-70746000D01*
X113820002Y-70677879D01*
X113873658Y-70631386D01*
X113926000Y-70620000D01*
X115545376Y-70620000D01*
X115558907Y-70616027D01*
X115559617Y-70611089D01*
X115502972Y-70480814D01*
X115498105Y-70471739D01*
X115382426Y-70292926D01*
X115376136Y-70284757D01*
X115232806Y-70127240D01*
X115225273Y-70120215D01*
X115058139Y-69988222D01*
X115049552Y-69982517D01*
X114863117Y-69879599D01*
X114853705Y-69875369D01*
X114652959Y-69804280D01*
X114642988Y-69801646D01*
X114577600Y-69789999D01*
X114514043Y-69758361D01*
X114477679Y-69697384D01*
X114480056Y-69626427D01*
X114520417Y-69568019D01*
X114565812Y-69544594D01*
X114663556Y-69517303D01*
X114838689Y-69428837D01*
X114868515Y-69405535D01*
X114988453Y-69311829D01*
X114993303Y-69308040D01*
X115023084Y-69273539D01*
X115117485Y-69164173D01*
X115117485Y-69164172D01*
X115121509Y-69159511D01*
X115218425Y-68988909D01*
X115280358Y-68802732D01*
X115304949Y-68608071D01*
X115305341Y-68580000D01*
X115297497Y-68500000D01*
X118094508Y-68500000D01*
X118096059Y-68509793D01*
X118112180Y-68611575D01*
X118114354Y-68625304D01*
X118171950Y-68738342D01*
X118261658Y-68828050D01*
X118374696Y-68885646D01*
X118384485Y-68887196D01*
X118384487Y-68887197D01*
X118490207Y-68903941D01*
X118500000Y-68905492D01*
X118509793Y-68903941D01*
X118615513Y-68887197D01*
X118615515Y-68887196D01*
X118625304Y-68885646D01*
X118738342Y-68828050D01*
X118828050Y-68738342D01*
X118885646Y-68625304D01*
X118887821Y-68611575D01*
X118892822Y-68580000D01*
X122784508Y-68580000D01*
X122804354Y-68705304D01*
X122861950Y-68818342D01*
X122951658Y-68908050D01*
X123064696Y-68965646D01*
X123074485Y-68967196D01*
X123074487Y-68967197D01*
X123180207Y-68983941D01*
X123190000Y-68985492D01*
X123199793Y-68983941D01*
X123305513Y-68967197D01*
X123305515Y-68967196D01*
X123315304Y-68965646D01*
X123428342Y-68908050D01*
X123518050Y-68818342D01*
X123575646Y-68705304D01*
X123595492Y-68580000D01*
X123592299Y-68559838D01*
X123577197Y-68464487D01*
X123577196Y-68464485D01*
X123575646Y-68454696D01*
X123518050Y-68341658D01*
X123428342Y-68251950D01*
X123315304Y-68194354D01*
X123305515Y-68192804D01*
X123305513Y-68192803D01*
X123199793Y-68176059D01*
X123190000Y-68174508D01*
X123180207Y-68176059D01*
X123074487Y-68192803D01*
X123074485Y-68192804D01*
X123064696Y-68194354D01*
X122951658Y-68251950D01*
X122861950Y-68341658D01*
X122804354Y-68454696D01*
X122802804Y-68464485D01*
X122802803Y-68464487D01*
X122787701Y-68559838D01*
X122784508Y-68580000D01*
X118892822Y-68580000D01*
X118903941Y-68509793D01*
X118905492Y-68500000D01*
X118888379Y-68391950D01*
X118887197Y-68384487D01*
X118887196Y-68384485D01*
X118885646Y-68374696D01*
X118828050Y-68261658D01*
X118738342Y-68171950D01*
X118625304Y-68114354D01*
X118615515Y-68112804D01*
X118615513Y-68112803D01*
X118509793Y-68096059D01*
X118500000Y-68094508D01*
X118490207Y-68096059D01*
X118384487Y-68112803D01*
X118384485Y-68112804D01*
X118374696Y-68114354D01*
X118261658Y-68171950D01*
X118171950Y-68261658D01*
X118114354Y-68374696D01*
X118112804Y-68384485D01*
X118112803Y-68384487D01*
X118111621Y-68391950D01*
X118094508Y-68500000D01*
X115297497Y-68500000D01*
X115286194Y-68384728D01*
X115284413Y-68378829D01*
X115284412Y-68378824D01*
X115231265Y-68202793D01*
X115229484Y-68196894D01*
X115137370Y-68023653D01*
X115013361Y-67871602D01*
X115011425Y-67870000D01*
X124864508Y-67870000D01*
X124884354Y-67995304D01*
X124941950Y-68108342D01*
X125031658Y-68198050D01*
X125051959Y-68208394D01*
X125103574Y-68257141D01*
X125120641Y-68326055D01*
X125097741Y-68393257D01*
X125083852Y-68409756D01*
X125011950Y-68481658D01*
X124954354Y-68594696D01*
X124952804Y-68604485D01*
X124952803Y-68604487D01*
X124951057Y-68615513D01*
X124934508Y-68720000D01*
X124936059Y-68729793D01*
X124950084Y-68818342D01*
X124954354Y-68845304D01*
X125011950Y-68958342D01*
X125101658Y-69048050D01*
X125214696Y-69105646D01*
X125224485Y-69107196D01*
X125224487Y-69107197D01*
X125330207Y-69123941D01*
X125340000Y-69125492D01*
X125349793Y-69123941D01*
X125455513Y-69107197D01*
X125455515Y-69107196D01*
X125465304Y-69105646D01*
X125578342Y-69048050D01*
X125668050Y-68958342D01*
X125725646Y-68845304D01*
X125729917Y-68818342D01*
X125743941Y-68729793D01*
X125745492Y-68720000D01*
X125728943Y-68615513D01*
X125727197Y-68604487D01*
X125727196Y-68604485D01*
X125725646Y-68594696D01*
X125711006Y-68565963D01*
X133614757Y-68565963D01*
X133631175Y-68761483D01*
X133685258Y-68950091D01*
X133690939Y-68961145D01*
X133772123Y-69119113D01*
X133772126Y-69119117D01*
X133774944Y-69124601D01*
X133896818Y-69278369D01*
X134046238Y-69405535D01*
X134051616Y-69408541D01*
X134051618Y-69408542D01*
X134087932Y-69428837D01*
X134217513Y-69501257D01*
X134404118Y-69561889D01*
X134598946Y-69585121D01*
X134605081Y-69584649D01*
X134605083Y-69584649D01*
X134788434Y-69570541D01*
X134788438Y-69570540D01*
X134794576Y-69570068D01*
X134983556Y-69517303D01*
X135158689Y-69428837D01*
X135188515Y-69405535D01*
X135308453Y-69311829D01*
X135313303Y-69308040D01*
X135343084Y-69273539D01*
X135437485Y-69164173D01*
X135437485Y-69164172D01*
X135441509Y-69159511D01*
X135538425Y-68988909D01*
X135600358Y-68802732D01*
X135624949Y-68608071D01*
X135625341Y-68580000D01*
X135606194Y-68384728D01*
X135604413Y-68378829D01*
X135604412Y-68378824D01*
X135551265Y-68202793D01*
X135549484Y-68196894D01*
X135457370Y-68023653D01*
X135333361Y-67871602D01*
X135182180Y-67746535D01*
X135009585Y-67653213D01*
X134915869Y-67624203D01*
X134828039Y-67597015D01*
X134828036Y-67597014D01*
X134822152Y-67595193D01*
X134816027Y-67594549D01*
X134816026Y-67594549D01*
X134633147Y-67575327D01*
X134633146Y-67575327D01*
X134627019Y-67574683D01*
X134518600Y-67584550D01*
X134437759Y-67591907D01*
X134437758Y-67591907D01*
X134431618Y-67592466D01*
X134425704Y-67594207D01*
X134425702Y-67594207D01*
X134322277Y-67624647D01*
X134243393Y-67647864D01*
X134237928Y-67650721D01*
X134074972Y-67735912D01*
X134074968Y-67735915D01*
X134069512Y-67738767D01*
X134064712Y-67742627D01*
X134064711Y-67742627D01*
X134049963Y-67754485D01*
X133916600Y-67861711D01*
X133790480Y-68012016D01*
X133787516Y-68017408D01*
X133787513Y-68017412D01*
X133708813Y-68160567D01*
X133695956Y-68183954D01*
X133694095Y-68189821D01*
X133694094Y-68189823D01*
X133672162Y-68258961D01*
X133636628Y-68370978D01*
X133614757Y-68565963D01*
X125711006Y-68565963D01*
X125668050Y-68481658D01*
X125578342Y-68391950D01*
X125558041Y-68381606D01*
X125506426Y-68332859D01*
X125489359Y-68263945D01*
X125512259Y-68196743D01*
X125526148Y-68180244D01*
X125598050Y-68108342D01*
X125655646Y-67995304D01*
X125675492Y-67870000D01*
X125659345Y-67768050D01*
X125657197Y-67754487D01*
X125657196Y-67754485D01*
X125655646Y-67744696D01*
X125598050Y-67631658D01*
X125508342Y-67541950D01*
X125395304Y-67484354D01*
X125385515Y-67482804D01*
X125385513Y-67482803D01*
X125279793Y-67466059D01*
X125270000Y-67464508D01*
X125260207Y-67466059D01*
X125154487Y-67482803D01*
X125154485Y-67482804D01*
X125144696Y-67484354D01*
X125031658Y-67541950D01*
X124941950Y-67631658D01*
X124937449Y-67640491D01*
X124937448Y-67640493D01*
X124924957Y-67665008D01*
X124888911Y-67703175D01*
X124891145Y-67725450D01*
X124888118Y-67737308D01*
X124884354Y-67744696D01*
X124864508Y-67870000D01*
X115011425Y-67870000D01*
X114862180Y-67746535D01*
X114689585Y-67653213D01*
X114595869Y-67624203D01*
X114508039Y-67597015D01*
X114508036Y-67597014D01*
X114502152Y-67595193D01*
X114496027Y-67594549D01*
X114496026Y-67594549D01*
X114313147Y-67575327D01*
X114313146Y-67575327D01*
X114307019Y-67574683D01*
X114198600Y-67584550D01*
X114117759Y-67591907D01*
X114117758Y-67591907D01*
X114111618Y-67592466D01*
X114105704Y-67594207D01*
X114105702Y-67594207D01*
X114002277Y-67624647D01*
X113923393Y-67647864D01*
X113917928Y-67650721D01*
X113754972Y-67735912D01*
X113754968Y-67735915D01*
X113749512Y-67738767D01*
X113744712Y-67742627D01*
X113744711Y-67742627D01*
X113729963Y-67754485D01*
X113596600Y-67861711D01*
X113470480Y-68012016D01*
X113467516Y-68017408D01*
X113467513Y-68017412D01*
X113388813Y-68160567D01*
X113375956Y-68183954D01*
X113374095Y-68189821D01*
X113374094Y-68189823D01*
X113352162Y-68258961D01*
X113316628Y-68370978D01*
X113294757Y-68565963D01*
X113311175Y-68761483D01*
X113365258Y-68950091D01*
X113370939Y-68961145D01*
X113452123Y-69119113D01*
X113452126Y-69119117D01*
X113454944Y-69124601D01*
X113576818Y-69278369D01*
X113726238Y-69405535D01*
X113731616Y-69408541D01*
X113731618Y-69408542D01*
X113767932Y-69428837D01*
X113897513Y-69501257D01*
X114033745Y-69545522D01*
X114092350Y-69585594D01*
X114119987Y-69650991D01*
X114107880Y-69720948D01*
X114059874Y-69773254D01*
X114013869Y-69789904D01*
X113989318Y-69793661D01*
X113979293Y-69796050D01*
X113776868Y-69862212D01*
X113767359Y-69866209D01*
X113578463Y-69964542D01*
X113569738Y-69970036D01*
X113399433Y-70097905D01*
X113391726Y-70104748D01*
X113247094Y-70256097D01*
X113185570Y-70291527D01*
X113114657Y-70288070D01*
X113056871Y-70246824D01*
X113030557Y-70180884D01*
X113030000Y-70169046D01*
X113030000Y-66025963D01*
X113294757Y-66025963D01*
X113311175Y-66221483D01*
X113365258Y-66410091D01*
X113368076Y-66415574D01*
X113452123Y-66579113D01*
X113452126Y-66579117D01*
X113454944Y-66584601D01*
X113576818Y-66738369D01*
X113581511Y-66742363D01*
X113581512Y-66742364D01*
X113703354Y-66846059D01*
X113726238Y-66865535D01*
X113731616Y-66868541D01*
X113731618Y-66868542D01*
X113767932Y-66888837D01*
X113897513Y-66961257D01*
X114084118Y-67021889D01*
X114278946Y-67045121D01*
X114285081Y-67044649D01*
X114285083Y-67044649D01*
X114468434Y-67030541D01*
X114468438Y-67030540D01*
X114474576Y-67030068D01*
X114663556Y-66977303D01*
X114838689Y-66888837D01*
X114868515Y-66865535D01*
X114915996Y-66828439D01*
X114993303Y-66768040D01*
X115023084Y-66733539D01*
X115117485Y-66624173D01*
X115117485Y-66624172D01*
X115121509Y-66619511D01*
X115144030Y-66579868D01*
X115187125Y-66504006D01*
X115218425Y-66448909D01*
X115280358Y-66262732D01*
X115304949Y-66068071D01*
X115305341Y-66040000D01*
X115288672Y-65870000D01*
X116734508Y-65870000D01*
X116736059Y-65879793D01*
X116746578Y-65946205D01*
X116754354Y-65995304D01*
X116811950Y-66108342D01*
X116901658Y-66198050D01*
X117014696Y-66255646D01*
X117024485Y-66257196D01*
X117024487Y-66257197D01*
X117130207Y-66273941D01*
X117140000Y-66275492D01*
X117149793Y-66273941D01*
X117192077Y-66267244D01*
X119963752Y-66267244D01*
X119965303Y-66277037D01*
X119965310Y-66277078D01*
X119983598Y-66392548D01*
X120041194Y-66505586D01*
X120130902Y-66595294D01*
X120243940Y-66652890D01*
X120253729Y-66654440D01*
X120253731Y-66654441D01*
X120359451Y-66671185D01*
X120369244Y-66672736D01*
X120379037Y-66671185D01*
X120379038Y-66671185D01*
X120419819Y-66664726D01*
X120490230Y-66673826D01*
X120544544Y-66719548D01*
X120565516Y-66787376D01*
X120546489Y-66855775D01*
X120546308Y-66856044D01*
X120540694Y-66861658D01*
X120536192Y-66870494D01*
X120536191Y-66870495D01*
X120518861Y-66904508D01*
X120483098Y-66974696D01*
X120481548Y-66984485D01*
X120481547Y-66984487D01*
X120469769Y-67058855D01*
X120463252Y-67100000D01*
X120483098Y-67225304D01*
X120540694Y-67338342D01*
X120630402Y-67428050D01*
X120743440Y-67485646D01*
X120753229Y-67487196D01*
X120753231Y-67487197D01*
X120858951Y-67503941D01*
X120868744Y-67505492D01*
X120878537Y-67503941D01*
X120984257Y-67487197D01*
X120984259Y-67487196D01*
X120994048Y-67485646D01*
X121107086Y-67428050D01*
X121196794Y-67338342D01*
X121211235Y-67310000D01*
X122105008Y-67310000D01*
X122106559Y-67319793D01*
X122122595Y-67421039D01*
X122124854Y-67435304D01*
X122182450Y-67548342D01*
X122272158Y-67638050D01*
X122385196Y-67695646D01*
X122394985Y-67697196D01*
X122394987Y-67697197D01*
X122500707Y-67713941D01*
X122510500Y-67715492D01*
X122520293Y-67713941D01*
X122626013Y-67697197D01*
X122626015Y-67697196D01*
X122635804Y-67695646D01*
X122748842Y-67638050D01*
X122838550Y-67548342D01*
X122893753Y-67440000D01*
X123904508Y-67440000D01*
X123906059Y-67449793D01*
X123921766Y-67548961D01*
X123924354Y-67565304D01*
X123981950Y-67678342D01*
X124071658Y-67768050D01*
X124184696Y-67825646D01*
X124194485Y-67827196D01*
X124194487Y-67827197D01*
X124300207Y-67843941D01*
X124310000Y-67845492D01*
X124319793Y-67843941D01*
X124425513Y-67827197D01*
X124425515Y-67827196D01*
X124435304Y-67825646D01*
X124548342Y-67768050D01*
X124638050Y-67678342D01*
X124651783Y-67651391D01*
X124655043Y-67644992D01*
X124691089Y-67606825D01*
X124688855Y-67584550D01*
X124691882Y-67572692D01*
X124695646Y-67565304D01*
X124715492Y-67440000D01*
X124695646Y-67314696D01*
X124662682Y-67250000D01*
X126344508Y-67250000D01*
X126364354Y-67375304D01*
X126421950Y-67488342D01*
X126511658Y-67578050D01*
X126624696Y-67635646D01*
X126634485Y-67637196D01*
X126634487Y-67637197D01*
X126740207Y-67653941D01*
X126750000Y-67655492D01*
X126759793Y-67653941D01*
X126865513Y-67637197D01*
X126865515Y-67637196D01*
X126875304Y-67635646D01*
X126988342Y-67578050D01*
X127078050Y-67488342D01*
X127135646Y-67375304D01*
X127155492Y-67250000D01*
X127150030Y-67215513D01*
X127137197Y-67134487D01*
X127137196Y-67134485D01*
X127135646Y-67124696D01*
X127078050Y-67011658D01*
X126988342Y-66921950D01*
X126875304Y-66864354D01*
X126865515Y-66862804D01*
X126865513Y-66862803D01*
X126759793Y-66846059D01*
X126750000Y-66844508D01*
X126740207Y-66846059D01*
X126634487Y-66862803D01*
X126634485Y-66862804D01*
X126624696Y-66864354D01*
X126511658Y-66921950D01*
X126421950Y-67011658D01*
X126364354Y-67124696D01*
X126362804Y-67134485D01*
X126362803Y-67134487D01*
X126349970Y-67215513D01*
X126344508Y-67250000D01*
X124662682Y-67250000D01*
X124638050Y-67201658D01*
X124548342Y-67111950D01*
X124435304Y-67054354D01*
X124425515Y-67052804D01*
X124425513Y-67052803D01*
X124319793Y-67036059D01*
X124310000Y-67034508D01*
X124300207Y-67036059D01*
X124194487Y-67052803D01*
X124194485Y-67052804D01*
X124184696Y-67054354D01*
X124071658Y-67111950D01*
X123981950Y-67201658D01*
X123924354Y-67314696D01*
X123904508Y-67440000D01*
X122893753Y-67440000D01*
X122896146Y-67435304D01*
X122898406Y-67421039D01*
X122914441Y-67319793D01*
X122915992Y-67310000D01*
X122901027Y-67215513D01*
X122897697Y-67194487D01*
X122897696Y-67194485D01*
X122896146Y-67184696D01*
X122838550Y-67071658D01*
X122748842Y-66981950D01*
X122635804Y-66924354D01*
X122626015Y-66922804D01*
X122626013Y-66922803D01*
X122520293Y-66906059D01*
X122510500Y-66904508D01*
X122500707Y-66906059D01*
X122394987Y-66922803D01*
X122394985Y-66922804D01*
X122385196Y-66924354D01*
X122272158Y-66981950D01*
X122182450Y-67071658D01*
X122124854Y-67184696D01*
X122123304Y-67194485D01*
X122123303Y-67194487D01*
X122119973Y-67215513D01*
X122105008Y-67310000D01*
X121211235Y-67310000D01*
X121254390Y-67225304D01*
X121274236Y-67100000D01*
X121267719Y-67058855D01*
X121255941Y-66984487D01*
X121255940Y-66984485D01*
X121254390Y-66974696D01*
X121200288Y-66868515D01*
X121187184Y-66798740D01*
X121213884Y-66732955D01*
X121271911Y-66692048D01*
X121332265Y-66686864D01*
X121402206Y-66697941D01*
X121402207Y-66697941D01*
X121412000Y-66699492D01*
X121421793Y-66697941D01*
X121527513Y-66681197D01*
X121527515Y-66681196D01*
X121537304Y-66679646D01*
X121650342Y-66622050D01*
X121740050Y-66532342D01*
X121797646Y-66419304D01*
X121803435Y-66382757D01*
X121815941Y-66303793D01*
X121817492Y-66294000D01*
X121815941Y-66284207D01*
X121799197Y-66178487D01*
X121799196Y-66178485D01*
X121797646Y-66168696D01*
X121740050Y-66055658D01*
X121710355Y-66025963D01*
X133614757Y-66025963D01*
X133631175Y-66221483D01*
X133685258Y-66410091D01*
X133688076Y-66415574D01*
X133772123Y-66579113D01*
X133772126Y-66579117D01*
X133774944Y-66584601D01*
X133896818Y-66738369D01*
X133901511Y-66742363D01*
X133901512Y-66742364D01*
X134023354Y-66846059D01*
X134046238Y-66865535D01*
X134051616Y-66868541D01*
X134051618Y-66868542D01*
X134087932Y-66888837D01*
X134217513Y-66961257D01*
X134404118Y-67021889D01*
X134598946Y-67045121D01*
X134605081Y-67044649D01*
X134605083Y-67044649D01*
X134788434Y-67030541D01*
X134788438Y-67030540D01*
X134794576Y-67030068D01*
X134983556Y-66977303D01*
X135158689Y-66888837D01*
X135188515Y-66865535D01*
X135235996Y-66828439D01*
X135313303Y-66768040D01*
X135343084Y-66733539D01*
X135437485Y-66624173D01*
X135437485Y-66624172D01*
X135441509Y-66619511D01*
X135464030Y-66579868D01*
X135507125Y-66504006D01*
X135538425Y-66448909D01*
X135600358Y-66262732D01*
X135624949Y-66068071D01*
X135625341Y-66040000D01*
X135606194Y-65844728D01*
X135604413Y-65838829D01*
X135604412Y-65838824D01*
X135551265Y-65662793D01*
X135549484Y-65656894D01*
X135457370Y-65483653D01*
X135333361Y-65331602D01*
X135182180Y-65206535D01*
X135009585Y-65113213D01*
X134915869Y-65084203D01*
X134828039Y-65057015D01*
X134828036Y-65057014D01*
X134822152Y-65055193D01*
X134816027Y-65054549D01*
X134816026Y-65054549D01*
X134633147Y-65035327D01*
X134633146Y-65035327D01*
X134627019Y-65034683D01*
X134504383Y-65045844D01*
X134437759Y-65051907D01*
X134437758Y-65051907D01*
X134431618Y-65052466D01*
X134425704Y-65054207D01*
X134425702Y-65054207D01*
X134296734Y-65092165D01*
X134243393Y-65107864D01*
X134237928Y-65110721D01*
X134074972Y-65195912D01*
X134074968Y-65195915D01*
X134069512Y-65198767D01*
X134064712Y-65202627D01*
X134064711Y-65202627D01*
X134030326Y-65230273D01*
X133916600Y-65321711D01*
X133790480Y-65472016D01*
X133787516Y-65477408D01*
X133787513Y-65477412D01*
X133754507Y-65537450D01*
X133695956Y-65643954D01*
X133636628Y-65830978D01*
X133614757Y-66025963D01*
X121710355Y-66025963D01*
X121650342Y-65965950D01*
X121537304Y-65908354D01*
X121527515Y-65906804D01*
X121527513Y-65906803D01*
X121421793Y-65890059D01*
X121412000Y-65888508D01*
X121402207Y-65890059D01*
X121296487Y-65906803D01*
X121296485Y-65906804D01*
X121286696Y-65908354D01*
X121173658Y-65965950D01*
X121083950Y-66055658D01*
X121026354Y-66168696D01*
X121024803Y-66178487D01*
X121024803Y-66178488D01*
X121017190Y-66226556D01*
X120989880Y-66284166D01*
X121012952Y-66334687D01*
X121020566Y-66382757D01*
X121026354Y-66419304D01*
X121079450Y-66523509D01*
X121080456Y-66525484D01*
X121093560Y-66595260D01*
X121066860Y-66661045D01*
X121008833Y-66701952D01*
X120948479Y-66707136D01*
X120878538Y-66696059D01*
X120878537Y-66696059D01*
X120868744Y-66694508D01*
X120858951Y-66696059D01*
X120858950Y-66696059D01*
X120818169Y-66702518D01*
X120747758Y-66693418D01*
X120693444Y-66647696D01*
X120672472Y-66579868D01*
X120691499Y-66511469D01*
X120691680Y-66511200D01*
X120697294Y-66505586D01*
X120754890Y-66392548D01*
X120764054Y-66334687D01*
X120791364Y-66277078D01*
X120768292Y-66226557D01*
X120756441Y-66151731D01*
X120756440Y-66151729D01*
X120754890Y-66141940D01*
X120697294Y-66028902D01*
X120607586Y-65939194D01*
X120494548Y-65881598D01*
X120484759Y-65880048D01*
X120484757Y-65880047D01*
X120379037Y-65863303D01*
X120369244Y-65861752D01*
X120359451Y-65863303D01*
X120253731Y-65880047D01*
X120253729Y-65880048D01*
X120243940Y-65881598D01*
X120130902Y-65939194D01*
X120041194Y-66028902D01*
X119983598Y-66141940D01*
X119982048Y-66151729D01*
X119982047Y-66151731D01*
X119974711Y-66198050D01*
X119963752Y-66267244D01*
X117192077Y-66267244D01*
X117255513Y-66257197D01*
X117255515Y-66257196D01*
X117265304Y-66255646D01*
X117378342Y-66198050D01*
X117468050Y-66108342D01*
X117525646Y-65995304D01*
X117533423Y-65946205D01*
X117543941Y-65879793D01*
X117545492Y-65870000D01*
X117538382Y-65825109D01*
X117527197Y-65754487D01*
X117527196Y-65754485D01*
X117525646Y-65744696D01*
X117468050Y-65631658D01*
X117378342Y-65541950D01*
X117296011Y-65500000D01*
X130344508Y-65500000D01*
X130346059Y-65509793D01*
X130352263Y-65548961D01*
X130364354Y-65625304D01*
X130421950Y-65738342D01*
X130511658Y-65828050D01*
X130624696Y-65885646D01*
X130634485Y-65887196D01*
X130634487Y-65887197D01*
X130740207Y-65903941D01*
X130750000Y-65905492D01*
X130759793Y-65903941D01*
X130865513Y-65887197D01*
X130865515Y-65887196D01*
X130875304Y-65885646D01*
X130988342Y-65828050D01*
X131078050Y-65738342D01*
X131135646Y-65625304D01*
X131147738Y-65548961D01*
X131153941Y-65509793D01*
X131155492Y-65500000D01*
X131152145Y-65478869D01*
X131137197Y-65384487D01*
X131137196Y-65384485D01*
X131135646Y-65374696D01*
X131078050Y-65261658D01*
X130988342Y-65171950D01*
X130875304Y-65114354D01*
X130865515Y-65112804D01*
X130865513Y-65112803D01*
X130759793Y-65096059D01*
X130750000Y-65094508D01*
X130740207Y-65096059D01*
X130634487Y-65112803D01*
X130634485Y-65112804D01*
X130624696Y-65114354D01*
X130511658Y-65171950D01*
X130421950Y-65261658D01*
X130364354Y-65374696D01*
X130362804Y-65384485D01*
X130362803Y-65384487D01*
X130347855Y-65478869D01*
X130344508Y-65500000D01*
X117296011Y-65500000D01*
X117265304Y-65484354D01*
X117255515Y-65482804D01*
X117255513Y-65482803D01*
X117149793Y-65466059D01*
X117140000Y-65464508D01*
X117130207Y-65466059D01*
X117024487Y-65482803D01*
X117024485Y-65482804D01*
X117014696Y-65484354D01*
X116901658Y-65541950D01*
X116811950Y-65631658D01*
X116754354Y-65744696D01*
X116752804Y-65754485D01*
X116752803Y-65754487D01*
X116741618Y-65825109D01*
X116734508Y-65870000D01*
X115288672Y-65870000D01*
X115286194Y-65844728D01*
X115284413Y-65838829D01*
X115284412Y-65838824D01*
X115231265Y-65662793D01*
X115229484Y-65656894D01*
X115137370Y-65483653D01*
X115013361Y-65331602D01*
X114862180Y-65206535D01*
X114689585Y-65113213D01*
X114595869Y-65084203D01*
X114508039Y-65057015D01*
X114508036Y-65057014D01*
X114502152Y-65055193D01*
X114496027Y-65054549D01*
X114496026Y-65054549D01*
X114313147Y-65035327D01*
X114313146Y-65035327D01*
X114307019Y-65034683D01*
X114184383Y-65045844D01*
X114117759Y-65051907D01*
X114117758Y-65051907D01*
X114111618Y-65052466D01*
X114105704Y-65054207D01*
X114105702Y-65054207D01*
X113976734Y-65092165D01*
X113923393Y-65107864D01*
X113917928Y-65110721D01*
X113754972Y-65195912D01*
X113754968Y-65195915D01*
X113749512Y-65198767D01*
X113744712Y-65202627D01*
X113744711Y-65202627D01*
X113710326Y-65230273D01*
X113596600Y-65321711D01*
X113470480Y-65472016D01*
X113467516Y-65477408D01*
X113467513Y-65477412D01*
X113434507Y-65537450D01*
X113375956Y-65643954D01*
X113316628Y-65830978D01*
X113294757Y-66025963D01*
X113030000Y-66025963D01*
X113030000Y-63485963D01*
X113294757Y-63485963D01*
X113311175Y-63681483D01*
X113365258Y-63870091D01*
X113368076Y-63875574D01*
X113452123Y-64039113D01*
X113452126Y-64039117D01*
X113454944Y-64044601D01*
X113576818Y-64198369D01*
X113726238Y-64325535D01*
X113731616Y-64328541D01*
X113731618Y-64328542D01*
X113767932Y-64348837D01*
X113897513Y-64421257D01*
X114084118Y-64481889D01*
X114278946Y-64505121D01*
X114285081Y-64504649D01*
X114285083Y-64504649D01*
X114468434Y-64490541D01*
X114468438Y-64490540D01*
X114474576Y-64490068D01*
X114663556Y-64437303D01*
X114838689Y-64348837D01*
X114868515Y-64325535D01*
X114988453Y-64231829D01*
X114993303Y-64228040D01*
X115023084Y-64193539D01*
X115117485Y-64084173D01*
X115117485Y-64084172D01*
X115121509Y-64079511D01*
X115218425Y-63908909D01*
X115280358Y-63722732D01*
X115304949Y-63528071D01*
X115305341Y-63500000D01*
X115303965Y-63485963D01*
X133614757Y-63485963D01*
X133631175Y-63681483D01*
X133685258Y-63870091D01*
X133688076Y-63875574D01*
X133772123Y-64039113D01*
X133772126Y-64039117D01*
X133774944Y-64044601D01*
X133896818Y-64198369D01*
X134046238Y-64325535D01*
X134051616Y-64328541D01*
X134051618Y-64328542D01*
X134087932Y-64348837D01*
X134217513Y-64421257D01*
X134404118Y-64481889D01*
X134598946Y-64505121D01*
X134605081Y-64504649D01*
X134605083Y-64504649D01*
X134788434Y-64490541D01*
X134788438Y-64490540D01*
X134794576Y-64490068D01*
X134983556Y-64437303D01*
X135158689Y-64348837D01*
X135188515Y-64325535D01*
X135308453Y-64231829D01*
X135313303Y-64228040D01*
X135343084Y-64193539D01*
X135437485Y-64084173D01*
X135437485Y-64084172D01*
X135441509Y-64079511D01*
X135538425Y-63908909D01*
X135600358Y-63722732D01*
X135624949Y-63528071D01*
X135625341Y-63500000D01*
X135606194Y-63304728D01*
X135604413Y-63298829D01*
X135604412Y-63298824D01*
X135551265Y-63122793D01*
X135549484Y-63116894D01*
X135457370Y-62943653D01*
X135333361Y-62791602D01*
X135182180Y-62666535D01*
X135009585Y-62573213D01*
X134915869Y-62544203D01*
X134828039Y-62517015D01*
X134828036Y-62517014D01*
X134822152Y-62515193D01*
X134816027Y-62514549D01*
X134816026Y-62514549D01*
X134633147Y-62495327D01*
X134633146Y-62495327D01*
X134627019Y-62494683D01*
X134504383Y-62505844D01*
X134437759Y-62511907D01*
X134437758Y-62511907D01*
X134431618Y-62512466D01*
X134425704Y-62514207D01*
X134425702Y-62514207D01*
X134296734Y-62552165D01*
X134243393Y-62567864D01*
X134237928Y-62570721D01*
X134074972Y-62655912D01*
X134074968Y-62655915D01*
X134069512Y-62658767D01*
X134064712Y-62662627D01*
X134064711Y-62662627D01*
X134030326Y-62690273D01*
X133916600Y-62781711D01*
X133790480Y-62932016D01*
X133787516Y-62937408D01*
X133787513Y-62937412D01*
X133708813Y-63080567D01*
X133695956Y-63103954D01*
X133636628Y-63290978D01*
X133614757Y-63485963D01*
X115303965Y-63485963D01*
X115286194Y-63304728D01*
X115284413Y-63298829D01*
X115284412Y-63298824D01*
X115231265Y-63122793D01*
X115229484Y-63116894D01*
X115137370Y-62943653D01*
X115013361Y-62791602D01*
X114862180Y-62666535D01*
X114689585Y-62573213D01*
X114595869Y-62544203D01*
X114508039Y-62517015D01*
X114508036Y-62517014D01*
X114502152Y-62515193D01*
X114496027Y-62514549D01*
X114496026Y-62514549D01*
X114313147Y-62495327D01*
X114313146Y-62495327D01*
X114307019Y-62494683D01*
X114184383Y-62505844D01*
X114117759Y-62511907D01*
X114117758Y-62511907D01*
X114111618Y-62512466D01*
X114105704Y-62514207D01*
X114105702Y-62514207D01*
X113976734Y-62552165D01*
X113923393Y-62567864D01*
X113917928Y-62570721D01*
X113754972Y-62655912D01*
X113754968Y-62655915D01*
X113749512Y-62658767D01*
X113744712Y-62662627D01*
X113744711Y-62662627D01*
X113710326Y-62690273D01*
X113596600Y-62781711D01*
X113470480Y-62932016D01*
X113467516Y-62937408D01*
X113467513Y-62937412D01*
X113388813Y-63080567D01*
X113375956Y-63103954D01*
X113316628Y-63290978D01*
X113294757Y-63485963D01*
X113030000Y-63485963D01*
X113030000Y-60945963D01*
X113294757Y-60945963D01*
X113311175Y-61141483D01*
X113365258Y-61330091D01*
X113368076Y-61335574D01*
X113452123Y-61499113D01*
X113452126Y-61499117D01*
X113454944Y-61504601D01*
X113576818Y-61658369D01*
X113726238Y-61785535D01*
X113731616Y-61788541D01*
X113731618Y-61788542D01*
X113767932Y-61808837D01*
X113897513Y-61881257D01*
X114084118Y-61941889D01*
X114278946Y-61965121D01*
X114285081Y-61964649D01*
X114285083Y-61964649D01*
X114468434Y-61950541D01*
X114468438Y-61950540D01*
X114474576Y-61950068D01*
X114663556Y-61897303D01*
X114838689Y-61808837D01*
X114868515Y-61785535D01*
X114988453Y-61691829D01*
X114993303Y-61688040D01*
X115023084Y-61653539D01*
X115117485Y-61544173D01*
X115117485Y-61544172D01*
X115121509Y-61539511D01*
X115218425Y-61368909D01*
X115280358Y-61182732D01*
X115304949Y-60988071D01*
X115305341Y-60960000D01*
X117704508Y-60960000D01*
X117724354Y-61085304D01*
X117781950Y-61198342D01*
X117871658Y-61288050D01*
X117984696Y-61345646D01*
X117994485Y-61347196D01*
X117994487Y-61347197D01*
X118100207Y-61363941D01*
X118110000Y-61365492D01*
X118119793Y-61363941D01*
X118225513Y-61347197D01*
X118225515Y-61347196D01*
X118235304Y-61345646D01*
X118348342Y-61288050D01*
X118438050Y-61198342D01*
X118495646Y-61085304D01*
X118515492Y-60960000D01*
X118503532Y-60884487D01*
X118497197Y-60844487D01*
X118497196Y-60844485D01*
X118495646Y-60834696D01*
X118438050Y-60721658D01*
X118348342Y-60631950D01*
X118235304Y-60574354D01*
X118225515Y-60572804D01*
X118225513Y-60572803D01*
X118119793Y-60556059D01*
X118110000Y-60554508D01*
X118100207Y-60556059D01*
X117994487Y-60572803D01*
X117994485Y-60572804D01*
X117984696Y-60574354D01*
X117871658Y-60631950D01*
X117781950Y-60721658D01*
X117724354Y-60834696D01*
X117722804Y-60844485D01*
X117722803Y-60844487D01*
X117716468Y-60884487D01*
X117704508Y-60960000D01*
X115305341Y-60960000D01*
X115286194Y-60764728D01*
X115284413Y-60758829D01*
X115284412Y-60758824D01*
X115231265Y-60582793D01*
X115229484Y-60576894D01*
X115137370Y-60403653D01*
X115013361Y-60251602D01*
X115011425Y-60250000D01*
X126594508Y-60250000D01*
X126614354Y-60375304D01*
X126671950Y-60488342D01*
X126761658Y-60578050D01*
X126874696Y-60635646D01*
X126884485Y-60637196D01*
X126884487Y-60637197D01*
X126990207Y-60653941D01*
X127000000Y-60655492D01*
X127009793Y-60653941D01*
X127019711Y-60653941D01*
X127019711Y-60657566D01*
X127072058Y-60664334D01*
X127126370Y-60710058D01*
X127147340Y-60777887D01*
X127133620Y-60836883D01*
X127129746Y-60844487D01*
X127114354Y-60874696D01*
X127112804Y-60884485D01*
X127112803Y-60884487D01*
X127102394Y-60950207D01*
X127094508Y-61000000D01*
X127096059Y-61009793D01*
X127109418Y-61094137D01*
X127114354Y-61125304D01*
X127171950Y-61238342D01*
X127261658Y-61328050D01*
X127374696Y-61385646D01*
X127384485Y-61387196D01*
X127384487Y-61387197D01*
X127490207Y-61403941D01*
X127500000Y-61405492D01*
X127509793Y-61403941D01*
X127615513Y-61387197D01*
X127615515Y-61387196D01*
X127625304Y-61385646D01*
X127738342Y-61328050D01*
X127828050Y-61238342D01*
X127885646Y-61125304D01*
X127890583Y-61094137D01*
X127903941Y-61009793D01*
X127905492Y-61000000D01*
X127897606Y-60950207D01*
X127896934Y-60945963D01*
X133614757Y-60945963D01*
X133631175Y-61141483D01*
X133685258Y-61330091D01*
X133688076Y-61335574D01*
X133772123Y-61499113D01*
X133772126Y-61499117D01*
X133774944Y-61504601D01*
X133896818Y-61658369D01*
X134046238Y-61785535D01*
X134051616Y-61788541D01*
X134051618Y-61788542D01*
X134087932Y-61808837D01*
X134217513Y-61881257D01*
X134404118Y-61941889D01*
X134598946Y-61965121D01*
X134605081Y-61964649D01*
X134605083Y-61964649D01*
X134788434Y-61950541D01*
X134788438Y-61950540D01*
X134794576Y-61950068D01*
X134983556Y-61897303D01*
X135158689Y-61808837D01*
X135188515Y-61785535D01*
X135308453Y-61691829D01*
X135313303Y-61688040D01*
X135343084Y-61653539D01*
X135437485Y-61544173D01*
X135437485Y-61544172D01*
X135441509Y-61539511D01*
X135538425Y-61368909D01*
X135600358Y-61182732D01*
X135624949Y-60988071D01*
X135625341Y-60960000D01*
X135606194Y-60764728D01*
X135604413Y-60758829D01*
X135604412Y-60758824D01*
X135551265Y-60582793D01*
X135549484Y-60576894D01*
X135457370Y-60403653D01*
X135333361Y-60251602D01*
X135182180Y-60126535D01*
X135009585Y-60033213D01*
X134915868Y-60004203D01*
X134828039Y-59977015D01*
X134828036Y-59977014D01*
X134822152Y-59975193D01*
X134816027Y-59974549D01*
X134816026Y-59974549D01*
X134633147Y-59955327D01*
X134633146Y-59955327D01*
X134627019Y-59954683D01*
X134504383Y-59965844D01*
X134437759Y-59971907D01*
X134437758Y-59971907D01*
X134431618Y-59972466D01*
X134425704Y-59974207D01*
X134425702Y-59974207D01*
X134322277Y-60004647D01*
X134243393Y-60027864D01*
X134237928Y-60030721D01*
X134074972Y-60115912D01*
X134074968Y-60115915D01*
X134069512Y-60118767D01*
X134064712Y-60122627D01*
X134064711Y-60122627D01*
X134049960Y-60134487D01*
X133916600Y-60241711D01*
X133790480Y-60392016D01*
X133787516Y-60397408D01*
X133787513Y-60397412D01*
X133746446Y-60472113D01*
X133695956Y-60563954D01*
X133694095Y-60569821D01*
X133694094Y-60569823D01*
X133680460Y-60612803D01*
X133636628Y-60750978D01*
X133614757Y-60945963D01*
X127896934Y-60945963D01*
X127887197Y-60884487D01*
X127887196Y-60884485D01*
X127885646Y-60874696D01*
X127828050Y-60761658D01*
X127738342Y-60671950D01*
X127625304Y-60614354D01*
X127615515Y-60612804D01*
X127615513Y-60612803D01*
X127509793Y-60596059D01*
X127500000Y-60594508D01*
X127490207Y-60596059D01*
X127480289Y-60596059D01*
X127480289Y-60592434D01*
X127427942Y-60585666D01*
X127373630Y-60539942D01*
X127352660Y-60472113D01*
X127366380Y-60413117D01*
X127381144Y-60384140D01*
X127381145Y-60384137D01*
X127385646Y-60375304D01*
X127405492Y-60250000D01*
X127385646Y-60124696D01*
X127328050Y-60011658D01*
X127238342Y-59921950D01*
X127125304Y-59864354D01*
X127115515Y-59862804D01*
X127115513Y-59862803D01*
X127009793Y-59846059D01*
X127000000Y-59844508D01*
X126990207Y-59846059D01*
X126884487Y-59862803D01*
X126884485Y-59862804D01*
X126874696Y-59864354D01*
X126761658Y-59921950D01*
X126671950Y-60011658D01*
X126614354Y-60124696D01*
X126594508Y-60250000D01*
X115011425Y-60250000D01*
X114862180Y-60126535D01*
X114689585Y-60033213D01*
X114595868Y-60004203D01*
X114508039Y-59977015D01*
X114508036Y-59977014D01*
X114502152Y-59975193D01*
X114496027Y-59974549D01*
X114496026Y-59974549D01*
X114313147Y-59955327D01*
X114313146Y-59955327D01*
X114307019Y-59954683D01*
X114184383Y-59965844D01*
X114117759Y-59971907D01*
X114117758Y-59971907D01*
X114111618Y-59972466D01*
X114105704Y-59974207D01*
X114105702Y-59974207D01*
X114002277Y-60004647D01*
X113923393Y-60027864D01*
X113917928Y-60030721D01*
X113754972Y-60115912D01*
X113754968Y-60115915D01*
X113749512Y-60118767D01*
X113744712Y-60122627D01*
X113744711Y-60122627D01*
X113729960Y-60134487D01*
X113596600Y-60241711D01*
X113470480Y-60392016D01*
X113467516Y-60397408D01*
X113467513Y-60397412D01*
X113426446Y-60472113D01*
X113375956Y-60563954D01*
X113374095Y-60569821D01*
X113374094Y-60569823D01*
X113360460Y-60612803D01*
X113316628Y-60750978D01*
X113294757Y-60945963D01*
X113030000Y-60945963D01*
X113030000Y-58405963D01*
X113294757Y-58405963D01*
X113311175Y-58601483D01*
X113365258Y-58790091D01*
X113368076Y-58795574D01*
X113452123Y-58959113D01*
X113452126Y-58959117D01*
X113454944Y-58964601D01*
X113576818Y-59118369D01*
X113726238Y-59245535D01*
X113731616Y-59248541D01*
X113731618Y-59248542D01*
X113767932Y-59268837D01*
X113897513Y-59341257D01*
X114084118Y-59401889D01*
X114278946Y-59425121D01*
X114285081Y-59424649D01*
X114285083Y-59424649D01*
X114468434Y-59410541D01*
X114468438Y-59410540D01*
X114474576Y-59410068D01*
X114663556Y-59357303D01*
X114838689Y-59268837D01*
X114868515Y-59245535D01*
X114988453Y-59151829D01*
X114993303Y-59148040D01*
X115023084Y-59113539D01*
X115117485Y-59004173D01*
X115117485Y-59004172D01*
X115121509Y-58999511D01*
X115218425Y-58828909D01*
X115280358Y-58642732D01*
X115304949Y-58448071D01*
X115305341Y-58420000D01*
X115303965Y-58405963D01*
X133614757Y-58405963D01*
X133631175Y-58601483D01*
X133685258Y-58790091D01*
X133688076Y-58795574D01*
X133772123Y-58959113D01*
X133772126Y-58959117D01*
X133774944Y-58964601D01*
X133896818Y-59118369D01*
X134046238Y-59245535D01*
X134051616Y-59248541D01*
X134051618Y-59248542D01*
X134087932Y-59268837D01*
X134217513Y-59341257D01*
X134404118Y-59401889D01*
X134598946Y-59425121D01*
X134605081Y-59424649D01*
X134605083Y-59424649D01*
X134788434Y-59410541D01*
X134788438Y-59410540D01*
X134794576Y-59410068D01*
X134983556Y-59357303D01*
X135158689Y-59268837D01*
X135188515Y-59245535D01*
X135308453Y-59151829D01*
X135313303Y-59148040D01*
X135343084Y-59113539D01*
X135437485Y-59004173D01*
X135437485Y-59004172D01*
X135441509Y-58999511D01*
X135538425Y-58828909D01*
X135600358Y-58642732D01*
X135624949Y-58448071D01*
X135625341Y-58420000D01*
X135606194Y-58224728D01*
X135604413Y-58218829D01*
X135604412Y-58218824D01*
X135551265Y-58042793D01*
X135549484Y-58036894D01*
X135457370Y-57863653D01*
X135333361Y-57711602D01*
X135182180Y-57586535D01*
X135009585Y-57493213D01*
X134915868Y-57464203D01*
X134828039Y-57437015D01*
X134828036Y-57437014D01*
X134822152Y-57435193D01*
X134816027Y-57434549D01*
X134816026Y-57434549D01*
X134633147Y-57415327D01*
X134633146Y-57415327D01*
X134627019Y-57414683D01*
X134504383Y-57425844D01*
X134437759Y-57431907D01*
X134437758Y-57431907D01*
X134431618Y-57432466D01*
X134425704Y-57434207D01*
X134425702Y-57434207D01*
X134312753Y-57467450D01*
X134243393Y-57487864D01*
X134237928Y-57490721D01*
X134074972Y-57575912D01*
X134074968Y-57575915D01*
X134069512Y-57578767D01*
X134064712Y-57582627D01*
X134064711Y-57582627D01*
X134030326Y-57610273D01*
X133916600Y-57701711D01*
X133790480Y-57852016D01*
X133787516Y-57857408D01*
X133787513Y-57857412D01*
X133755572Y-57915513D01*
X133695956Y-58023954D01*
X133636628Y-58210978D01*
X133614757Y-58405963D01*
X115303965Y-58405963D01*
X115286194Y-58224728D01*
X115284413Y-58218829D01*
X115284412Y-58218824D01*
X115231265Y-58042793D01*
X115229484Y-58036894D01*
X115137370Y-57863653D01*
X115085456Y-57800000D01*
X122294508Y-57800000D01*
X122296059Y-57809793D01*
X122304590Y-57863653D01*
X122314354Y-57925304D01*
X122371950Y-58038342D01*
X122461658Y-58128050D01*
X122574696Y-58185646D01*
X122584485Y-58187196D01*
X122584487Y-58187197D01*
X122690207Y-58203941D01*
X122700000Y-58205492D01*
X122709793Y-58203941D01*
X122815513Y-58187197D01*
X122815515Y-58187196D01*
X122825304Y-58185646D01*
X122938342Y-58128050D01*
X123028050Y-58038342D01*
X123085646Y-57925304D01*
X123095411Y-57863653D01*
X123103941Y-57809793D01*
X123105492Y-57800000D01*
X123103941Y-57790207D01*
X123087197Y-57684487D01*
X123087196Y-57684485D01*
X123085646Y-57674696D01*
X123028050Y-57561658D01*
X122938342Y-57471950D01*
X122825304Y-57414354D01*
X122815515Y-57412804D01*
X122815513Y-57412803D01*
X122709793Y-57396059D01*
X122700000Y-57394508D01*
X122690207Y-57396059D01*
X122584487Y-57412803D01*
X122584485Y-57412804D01*
X122574696Y-57414354D01*
X122461658Y-57471950D01*
X122371950Y-57561658D01*
X122314354Y-57674696D01*
X122312804Y-57684485D01*
X122312803Y-57684487D01*
X122296059Y-57790207D01*
X122294508Y-57800000D01*
X115085456Y-57800000D01*
X115013361Y-57711602D01*
X114862180Y-57586535D01*
X114689585Y-57493213D01*
X114595868Y-57464203D01*
X114508039Y-57437015D01*
X114508036Y-57437014D01*
X114502152Y-57435193D01*
X114496027Y-57434549D01*
X114496026Y-57434549D01*
X114313147Y-57415327D01*
X114313146Y-57415327D01*
X114307019Y-57414683D01*
X114184383Y-57425844D01*
X114117759Y-57431907D01*
X114117758Y-57431907D01*
X114111618Y-57432466D01*
X114105704Y-57434207D01*
X114105702Y-57434207D01*
X113992753Y-57467450D01*
X113923393Y-57487864D01*
X113917928Y-57490721D01*
X113754972Y-57575912D01*
X113754968Y-57575915D01*
X113749512Y-57578767D01*
X113744712Y-57582627D01*
X113744711Y-57582627D01*
X113710326Y-57610273D01*
X113596600Y-57701711D01*
X113470480Y-57852016D01*
X113467516Y-57857408D01*
X113467513Y-57857412D01*
X113435572Y-57915513D01*
X113375956Y-58023954D01*
X113316628Y-58210978D01*
X113294757Y-58405963D01*
X113030000Y-58405963D01*
X113030000Y-55865963D01*
X113294757Y-55865963D01*
X113311175Y-56061483D01*
X113365258Y-56250091D01*
X113368076Y-56255574D01*
X113452123Y-56419113D01*
X113452126Y-56419117D01*
X113454944Y-56424601D01*
X113576818Y-56578369D01*
X113726238Y-56705535D01*
X113731616Y-56708541D01*
X113731618Y-56708542D01*
X113767932Y-56728837D01*
X113897513Y-56801257D01*
X114084118Y-56861889D01*
X114278946Y-56885121D01*
X114285081Y-56884649D01*
X114285083Y-56884649D01*
X114468434Y-56870541D01*
X114468438Y-56870540D01*
X114474576Y-56870068D01*
X114663556Y-56817303D01*
X114797150Y-56749820D01*
X131079500Y-56749820D01*
X131088233Y-56793722D01*
X131095127Y-56804040D01*
X131095128Y-56804042D01*
X131103989Y-56817303D01*
X131121496Y-56843504D01*
X131131815Y-56850399D01*
X131160958Y-56869872D01*
X131160960Y-56869873D01*
X131171278Y-56876767D01*
X131215180Y-56885500D01*
X132944820Y-56885500D01*
X132988722Y-56876767D01*
X132999040Y-56869873D01*
X132999042Y-56869872D01*
X133028185Y-56850399D01*
X133038504Y-56843504D01*
X133056011Y-56817303D01*
X133064872Y-56804042D01*
X133064873Y-56804040D01*
X133071767Y-56793722D01*
X133080500Y-56749820D01*
X133080500Y-55020180D01*
X133071767Y-54976278D01*
X133064873Y-54965960D01*
X133064872Y-54965958D01*
X133045399Y-54936815D01*
X133038504Y-54926496D01*
X133008596Y-54906512D01*
X132999042Y-54900128D01*
X132999040Y-54900127D01*
X132988722Y-54893233D01*
X132944820Y-54884500D01*
X131215180Y-54884500D01*
X131171278Y-54893233D01*
X131160960Y-54900127D01*
X131160958Y-54900128D01*
X131151404Y-54906512D01*
X131121496Y-54926496D01*
X131114601Y-54936815D01*
X131095128Y-54965958D01*
X131095127Y-54965960D01*
X131088233Y-54976278D01*
X131079500Y-55020180D01*
X131079500Y-56749820D01*
X114797150Y-56749820D01*
X114838689Y-56728837D01*
X114868515Y-56705535D01*
X114988453Y-56611829D01*
X114993303Y-56608040D01*
X115023084Y-56573539D01*
X115117485Y-56464173D01*
X115117485Y-56464172D01*
X115121509Y-56459511D01*
X115218425Y-56288909D01*
X115280358Y-56102732D01*
X115304949Y-55908071D01*
X115305341Y-55880000D01*
X115286194Y-55684728D01*
X115284413Y-55678829D01*
X115284412Y-55678824D01*
X115231265Y-55502793D01*
X115229484Y-55496894D01*
X115137370Y-55323653D01*
X115013361Y-55171602D01*
X114862180Y-55046535D01*
X114689585Y-54953213D01*
X114581002Y-54919601D01*
X114508039Y-54897015D01*
X114508036Y-54897014D01*
X114502152Y-54895193D01*
X114496027Y-54894549D01*
X114496026Y-54894549D01*
X114313147Y-54875327D01*
X114313146Y-54875327D01*
X114307019Y-54874683D01*
X114199149Y-54884500D01*
X114117759Y-54891907D01*
X114117758Y-54891907D01*
X114111618Y-54892466D01*
X114105704Y-54894207D01*
X114105702Y-54894207D01*
X114063894Y-54906512D01*
X113923393Y-54947864D01*
X113917928Y-54950721D01*
X113754972Y-55035912D01*
X113754968Y-55035915D01*
X113749512Y-55038767D01*
X113744712Y-55042627D01*
X113744711Y-55042627D01*
X113710326Y-55070273D01*
X113596600Y-55161711D01*
X113470480Y-55312016D01*
X113467516Y-55317408D01*
X113467513Y-55317412D01*
X113388813Y-55460567D01*
X113375956Y-55483954D01*
X113316628Y-55670978D01*
X113294757Y-55865963D01*
X113030000Y-55865963D01*
X113030000Y-54074501D01*
X113030321Y-54065512D01*
X113047821Y-53820828D01*
X113072632Y-53754308D01*
X113129467Y-53711761D01*
X113200283Y-53706696D01*
X113262595Y-53740721D01*
X113296620Y-53803034D01*
X113299500Y-53829817D01*
X113299500Y-54204820D01*
X113308233Y-54248722D01*
X113315127Y-54259040D01*
X113315128Y-54259042D01*
X113328815Y-54279526D01*
X113341496Y-54298504D01*
X113351815Y-54305399D01*
X113380958Y-54324872D01*
X113380960Y-54324873D01*
X113391278Y-54331767D01*
X113435180Y-54340500D01*
X115164820Y-54340500D01*
X115208722Y-54331767D01*
X115219040Y-54324873D01*
X115219042Y-54324872D01*
X115248185Y-54305399D01*
X115258504Y-54298504D01*
X115271185Y-54279526D01*
X115284872Y-54259042D01*
X115284873Y-54259040D01*
X115291767Y-54248722D01*
X115300500Y-54204820D01*
X115300500Y-52475180D01*
X115291767Y-52431278D01*
X115284873Y-52420960D01*
X115284872Y-52420958D01*
X115265399Y-52391815D01*
X115258504Y-52381496D01*
X115244882Y-52372394D01*
X115219042Y-52355128D01*
X115219040Y-52355127D01*
X115208722Y-52348233D01*
X115164820Y-52339500D01*
X114789817Y-52339500D01*
X114721696Y-52319498D01*
X114675203Y-52265842D01*
X114665099Y-52195568D01*
X114694593Y-52130988D01*
X114754319Y-52092604D01*
X114780828Y-52087821D01*
X115025512Y-52070321D01*
X115034501Y-52070000D01*
X133203657Y-52070000D01*
X133271778Y-52090002D01*
G37*
%TD.AperFunction*%
%TD*%
M02*
