%TF.GenerationSoftware,KiCad,Pcbnew,(6.0.9)*%
%TF.CreationDate,2023-03-12T14:29:19+01:00*%
%TF.ProjectId,ESP32-C3 Devboard,45535033-322d-4433-9320-446576626f61,rev?*%
%TF.SameCoordinates,Original*%
%TF.FileFunction,Legend,Top*%
%TF.FilePolarity,Positive*%
%FSLAX46Y46*%
G04 Gerber Fmt 4.6, Leading zero omitted, Abs format (unit mm)*
G04 Created by KiCad (PCBNEW (6.0.9)) date 2023-03-12 14:29:19*
%MOMM*%
%LPD*%
G01*
G04 APERTURE LIST*
%TA.AperFunction,Profile*%
%ADD10C,0.100000*%
%TD*%
%ADD11C,0.150000*%
%ADD12C,0.254000*%
%ADD13C,0.200000*%
%ADD14C,0.120000*%
%ADD15C,0.100000*%
%ADD16C,0.250000*%
G04 APERTURE END LIST*
D10*
X112460000Y-89500000D02*
G75*
G03*
X114460000Y-91500000I2000000J0D01*
G01*
X134460000Y-45000000D02*
X114460000Y-45000000D01*
X112460000Y-47000000D02*
X112460000Y-89500000D01*
X114460000Y-91500000D02*
X134460000Y-91500000D01*
X136460000Y-89500000D02*
X136460000Y-47000000D01*
X134460000Y-91500000D02*
G75*
G03*
X136460000Y-89500000I0J2000000D01*
G01*
X114460000Y-45000000D02*
G75*
G03*
X112460000Y-47000000I0J-2000000D01*
G01*
X136460000Y-47000000D02*
G75*
G03*
X134460000Y-45000000I-2000000J0D01*
G01*
D11*
X116821904Y-55628571D02*
X116821904Y-55971428D01*
X116821904Y-55800000D02*
X116021904Y-55800000D01*
X116136190Y-55857142D01*
X116212380Y-55914285D01*
X116250476Y-55971428D01*
X116021904Y-61200000D02*
X116021904Y-60828571D01*
X116326666Y-61028571D01*
X116326666Y-60942857D01*
X116364761Y-60885714D01*
X116402857Y-60857142D01*
X116479047Y-60828571D01*
X116669523Y-60828571D01*
X116745714Y-60857142D01*
X116783809Y-60885714D01*
X116821904Y-60942857D01*
X116821904Y-61114285D01*
X116783809Y-61171428D01*
X116745714Y-61200000D01*
X115821904Y-65985714D02*
X115821904Y-66100000D01*
X115860000Y-66157142D01*
X115898095Y-66185714D01*
X116012380Y-66242857D01*
X116164761Y-66271428D01*
X116469523Y-66271428D01*
X116545714Y-66242857D01*
X116583809Y-66214285D01*
X116621904Y-66157142D01*
X116621904Y-66042857D01*
X116583809Y-65985714D01*
X116545714Y-65957142D01*
X116469523Y-65928571D01*
X116279047Y-65928571D01*
X116202857Y-65957142D01*
X116164761Y-65985714D01*
X116126666Y-66042857D01*
X116126666Y-66157142D01*
X116164761Y-66214285D01*
X116202857Y-66242857D01*
X116279047Y-66271428D01*
X116060000Y-74157142D02*
X116021904Y-74214285D01*
X116021904Y-74300000D01*
X116060000Y-74385714D01*
X116136190Y-74442857D01*
X116212380Y-74471428D01*
X116364761Y-74500000D01*
X116479047Y-74500000D01*
X116631428Y-74471428D01*
X116707619Y-74442857D01*
X116783809Y-74385714D01*
X116821904Y-74300000D01*
X116821904Y-74242857D01*
X116783809Y-74157142D01*
X116745714Y-74128571D01*
X116479047Y-74128571D01*
X116479047Y-74242857D01*
X116821904Y-73871428D02*
X116021904Y-73871428D01*
X116821904Y-73528571D01*
X116021904Y-73528571D01*
X116821904Y-73242857D02*
X116021904Y-73242857D01*
X116021904Y-73100000D01*
X116060000Y-73014285D01*
X116136190Y-72957142D01*
X116212380Y-72928571D01*
X116364761Y-72900000D01*
X116479047Y-72900000D01*
X116631428Y-72928571D01*
X116707619Y-72957142D01*
X116783809Y-73014285D01*
X116821904Y-73100000D01*
X116821904Y-73242857D01*
X116021904Y-69442857D02*
X116021904Y-69071428D01*
X116326666Y-69271428D01*
X116326666Y-69185714D01*
X116364761Y-69128571D01*
X116402857Y-69100000D01*
X116479047Y-69071428D01*
X116669523Y-69071428D01*
X116745714Y-69100000D01*
X116783809Y-69128571D01*
X116821904Y-69185714D01*
X116821904Y-69357142D01*
X116783809Y-69414285D01*
X116745714Y-69442857D01*
X116021904Y-68900000D02*
X116821904Y-68700000D01*
X116021904Y-68500000D01*
X116021904Y-68357142D02*
X116021904Y-67985714D01*
X116326666Y-68185714D01*
X116326666Y-68100000D01*
X116364761Y-68042857D01*
X116402857Y-68014285D01*
X116479047Y-67985714D01*
X116669523Y-67985714D01*
X116745714Y-68014285D01*
X116783809Y-68042857D01*
X116821904Y-68100000D01*
X116821904Y-68271428D01*
X116783809Y-68328571D01*
X116745714Y-68357142D01*
X116060000Y-71657142D02*
X116021904Y-71714285D01*
X116021904Y-71800000D01*
X116060000Y-71885714D01*
X116136190Y-71942857D01*
X116212380Y-71971428D01*
X116364761Y-72000000D01*
X116479047Y-72000000D01*
X116631428Y-71971428D01*
X116707619Y-71942857D01*
X116783809Y-71885714D01*
X116821904Y-71800000D01*
X116821904Y-71742857D01*
X116783809Y-71657142D01*
X116745714Y-71628571D01*
X116479047Y-71628571D01*
X116479047Y-71742857D01*
X116821904Y-71371428D02*
X116021904Y-71371428D01*
X116821904Y-71028571D01*
X116021904Y-71028571D01*
X116821904Y-70742857D02*
X116021904Y-70742857D01*
X116021904Y-70600000D01*
X116060000Y-70514285D01*
X116136190Y-70457142D01*
X116212380Y-70428571D01*
X116364761Y-70400000D01*
X116479047Y-70400000D01*
X116631428Y-70428571D01*
X116707619Y-70457142D01*
X116783809Y-70514285D01*
X116821904Y-70600000D01*
X116821904Y-70742857D01*
X132883809Y-64528571D02*
X132921904Y-64442857D01*
X132921904Y-64300000D01*
X132883809Y-64242857D01*
X132845714Y-64214285D01*
X132769523Y-64185714D01*
X132693333Y-64185714D01*
X132617142Y-64214285D01*
X132579047Y-64242857D01*
X132540952Y-64300000D01*
X132502857Y-64414285D01*
X132464761Y-64471428D01*
X132426666Y-64500000D01*
X132350476Y-64528571D01*
X132274285Y-64528571D01*
X132198095Y-64500000D01*
X132160000Y-64471428D01*
X132121904Y-64414285D01*
X132121904Y-64271428D01*
X132160000Y-64185714D01*
X132921904Y-63928571D02*
X132121904Y-63928571D01*
X132121904Y-63700000D01*
X132160000Y-63642857D01*
X132198095Y-63614285D01*
X132274285Y-63585714D01*
X132388571Y-63585714D01*
X132464761Y-63614285D01*
X132502857Y-63642857D01*
X132540952Y-63700000D01*
X132540952Y-63928571D01*
X132921904Y-63328571D02*
X132121904Y-63328571D01*
X132998095Y-62642857D02*
X132960000Y-62700000D01*
X132883809Y-62757142D01*
X132769523Y-62842857D01*
X132731428Y-62900000D01*
X132731428Y-62957142D01*
X132921904Y-62928571D02*
X132883809Y-62985714D01*
X132807619Y-63042857D01*
X132655238Y-63071428D01*
X132388571Y-63071428D01*
X132236190Y-63042857D01*
X132160000Y-62985714D01*
X132121904Y-62928571D01*
X132121904Y-62814285D01*
X132160000Y-62757142D01*
X132236190Y-62700000D01*
X132388571Y-62671428D01*
X132655238Y-62671428D01*
X132807619Y-62700000D01*
X132883809Y-62757142D01*
X132921904Y-62814285D01*
X132921904Y-62928571D01*
X116021904Y-76957142D02*
X116821904Y-76757142D01*
X116021904Y-76557142D01*
X116821904Y-76357142D02*
X116021904Y-76357142D01*
X116821904Y-76071428D02*
X116021904Y-76071428D01*
X116821904Y-75728571D01*
X116021904Y-75728571D01*
X132149904Y-57543714D02*
X132149904Y-57658000D01*
X132188000Y-57715142D01*
X132226095Y-57743714D01*
X132340380Y-57800857D01*
X132492761Y-57829428D01*
X132797523Y-57829428D01*
X132873714Y-57800857D01*
X132911809Y-57772285D01*
X132949904Y-57715142D01*
X132949904Y-57600857D01*
X132911809Y-57543714D01*
X132873714Y-57515142D01*
X132797523Y-57486571D01*
X132607047Y-57486571D01*
X132530857Y-57515142D01*
X132492761Y-57543714D01*
X132454666Y-57600857D01*
X132454666Y-57715142D01*
X132492761Y-57772285D01*
X132530857Y-57800857D01*
X132607047Y-57829428D01*
X132883809Y-67014285D02*
X132921904Y-66928571D01*
X132921904Y-66785714D01*
X132883809Y-66728571D01*
X132845714Y-66700000D01*
X132769523Y-66671428D01*
X132693333Y-66671428D01*
X132617142Y-66700000D01*
X132579047Y-66728571D01*
X132540952Y-66785714D01*
X132502857Y-66900000D01*
X132464761Y-66957142D01*
X132426666Y-66985714D01*
X132350476Y-67014285D01*
X132274285Y-67014285D01*
X132198095Y-66985714D01*
X132160000Y-66957142D01*
X132121904Y-66900000D01*
X132121904Y-66757142D01*
X132160000Y-66671428D01*
X132921904Y-66414285D02*
X132121904Y-66414285D01*
X132121904Y-66185714D01*
X132160000Y-66128571D01*
X132198095Y-66100000D01*
X132274285Y-66071428D01*
X132388571Y-66071428D01*
X132464761Y-66100000D01*
X132502857Y-66128571D01*
X132540952Y-66185714D01*
X132540952Y-66414285D01*
X132921904Y-65814285D02*
X132121904Y-65814285D01*
X132921904Y-65528571D02*
X132121904Y-65528571D01*
X132121904Y-65385714D01*
X132160000Y-65300000D01*
X132236190Y-65242857D01*
X132312380Y-65214285D01*
X132464761Y-65185714D01*
X132579047Y-65185714D01*
X132731428Y-65214285D01*
X132807619Y-65242857D01*
X132883809Y-65300000D01*
X132921904Y-65385714D01*
X132921904Y-65528571D01*
X121588571Y-88761904D02*
X121588571Y-89333333D01*
X121560000Y-89447619D01*
X121502857Y-89523809D01*
X121417142Y-89561904D01*
X121360000Y-89561904D01*
X122160000Y-89561904D02*
X121874285Y-89561904D01*
X121874285Y-88761904D01*
X122702857Y-89485714D02*
X122674285Y-89523809D01*
X122588571Y-89561904D01*
X122531428Y-89561904D01*
X122445714Y-89523809D01*
X122388571Y-89447619D01*
X122360000Y-89371428D01*
X122331428Y-89219047D01*
X122331428Y-89104761D01*
X122360000Y-88952380D01*
X122388571Y-88876190D01*
X122445714Y-88800000D01*
X122531428Y-88761904D01*
X122588571Y-88761904D01*
X122674285Y-88800000D01*
X122702857Y-88838095D01*
X123131428Y-88761904D02*
X123131428Y-89333333D01*
X123102857Y-89447619D01*
X123045714Y-89523809D01*
X122960000Y-89561904D01*
X122902857Y-89561904D01*
X123702857Y-89561904D02*
X123417142Y-89561904D01*
X123417142Y-88761904D01*
X124245714Y-89485714D02*
X124217142Y-89523809D01*
X124131428Y-89561904D01*
X124074285Y-89561904D01*
X123988571Y-89523809D01*
X123931428Y-89447619D01*
X123902857Y-89371428D01*
X123874285Y-89219047D01*
X123874285Y-89104761D01*
X123902857Y-88952380D01*
X123931428Y-88876190D01*
X123988571Y-88800000D01*
X124074285Y-88761904D01*
X124131428Y-88761904D01*
X124217142Y-88800000D01*
X124245714Y-88838095D01*
X124674285Y-88761904D02*
X124674285Y-89333333D01*
X124645714Y-89447619D01*
X124588571Y-89523809D01*
X124502857Y-89561904D01*
X124445714Y-89561904D01*
X125245714Y-89561904D02*
X124960000Y-89561904D01*
X124960000Y-88761904D01*
X125788571Y-89485714D02*
X125760000Y-89523809D01*
X125674285Y-89561904D01*
X125617142Y-89561904D01*
X125531428Y-89523809D01*
X125474285Y-89447619D01*
X125445714Y-89371428D01*
X125417142Y-89219047D01*
X125417142Y-89104761D01*
X125445714Y-88952380D01*
X125474285Y-88876190D01*
X125531428Y-88800000D01*
X125617142Y-88761904D01*
X125674285Y-88761904D01*
X125760000Y-88800000D01*
X125788571Y-88838095D01*
X126217142Y-88761904D02*
X126217142Y-89333333D01*
X126188571Y-89447619D01*
X126131428Y-89523809D01*
X126045714Y-89561904D01*
X125988571Y-89561904D01*
X126788571Y-89561904D02*
X126502857Y-89561904D01*
X126502857Y-88761904D01*
X127331428Y-89485714D02*
X127302857Y-89523809D01*
X127217142Y-89561904D01*
X127160000Y-89561904D01*
X127074285Y-89523809D01*
X127017142Y-89447619D01*
X126988571Y-89371428D01*
X126960000Y-89219047D01*
X126960000Y-89104761D01*
X126988571Y-88952380D01*
X127017142Y-88876190D01*
X127074285Y-88800000D01*
X127160000Y-88761904D01*
X127217142Y-88761904D01*
X127302857Y-88800000D01*
X127331428Y-88838095D01*
X132121904Y-74257142D02*
X132921904Y-74114285D01*
X132350476Y-74000000D01*
X132921904Y-73885714D01*
X132121904Y-73742857D01*
X132921904Y-73514285D02*
X132121904Y-73514285D01*
X132121904Y-73285714D01*
X132160000Y-73228571D01*
X132198095Y-73200000D01*
X132274285Y-73171428D01*
X132388571Y-73171428D01*
X132464761Y-73200000D01*
X132502857Y-73228571D01*
X132540952Y-73285714D01*
X132540952Y-73514285D01*
X116302857Y-62861904D02*
X116017142Y-62861904D01*
X115988571Y-63242857D01*
X116017142Y-63204761D01*
X116074285Y-63166666D01*
X116217142Y-63166666D01*
X116274285Y-63204761D01*
X116302857Y-63242857D01*
X116331428Y-63319047D01*
X116331428Y-63509523D01*
X116302857Y-63585714D01*
X116274285Y-63623809D01*
X116217142Y-63661904D01*
X116074285Y-63661904D01*
X116017142Y-63623809D01*
X115988571Y-63585714D01*
X132121904Y-58700000D02*
X132121904Y-58300000D01*
X132921904Y-58557142D01*
X121645714Y-52061904D02*
X121645714Y-51261904D01*
X121788571Y-51261904D01*
X121874285Y-51300000D01*
X121931428Y-51376190D01*
X121959999Y-51452380D01*
X121988571Y-51604761D01*
X121988571Y-51719047D01*
X121959999Y-51871428D01*
X121931428Y-51947619D01*
X121874285Y-52023809D01*
X121788571Y-52061904D01*
X121645714Y-52061904D01*
X122474285Y-52023809D02*
X122417142Y-52061904D01*
X122302857Y-52061904D01*
X122245714Y-52023809D01*
X122217142Y-51947619D01*
X122217142Y-51642857D01*
X122245714Y-51566666D01*
X122302857Y-51528571D01*
X122417142Y-51528571D01*
X122474285Y-51566666D01*
X122502857Y-51642857D01*
X122502857Y-51719047D01*
X122217142Y-51795238D01*
X122731428Y-52023809D02*
X122788571Y-52061904D01*
X122902857Y-52061904D01*
X122959999Y-52023809D01*
X122988571Y-51947619D01*
X122988571Y-51909523D01*
X122959999Y-51833333D01*
X122902857Y-51795238D01*
X122817142Y-51795238D01*
X122759999Y-51757142D01*
X122731428Y-51680952D01*
X122731428Y-51642857D01*
X122759999Y-51566666D01*
X122817142Y-51528571D01*
X122902857Y-51528571D01*
X122959999Y-51566666D01*
X123245714Y-52061904D02*
X123245714Y-51528571D01*
X123245714Y-51261904D02*
X123217142Y-51300000D01*
X123245714Y-51338095D01*
X123274285Y-51300000D01*
X123245714Y-51261904D01*
X123245714Y-51338095D01*
X123788571Y-51528571D02*
X123788571Y-52176190D01*
X123759999Y-52252380D01*
X123731428Y-52290476D01*
X123674285Y-52328571D01*
X123588571Y-52328571D01*
X123531428Y-52290476D01*
X123788571Y-52023809D02*
X123731428Y-52061904D01*
X123617142Y-52061904D01*
X123559999Y-52023809D01*
X123531428Y-51985714D01*
X123502857Y-51909523D01*
X123502857Y-51680952D01*
X123531428Y-51604761D01*
X123559999Y-51566666D01*
X123617142Y-51528571D01*
X123731428Y-51528571D01*
X123788571Y-51566666D01*
X124074285Y-51528571D02*
X124074285Y-52061904D01*
X124074285Y-51604761D02*
X124102857Y-51566666D01*
X124159999Y-51528571D01*
X124245714Y-51528571D01*
X124302857Y-51566666D01*
X124331428Y-51642857D01*
X124331428Y-52061904D01*
X124845714Y-52023809D02*
X124788571Y-52061904D01*
X124674285Y-52061904D01*
X124617142Y-52023809D01*
X124588571Y-51947619D01*
X124588571Y-51642857D01*
X124617142Y-51566666D01*
X124674285Y-51528571D01*
X124788571Y-51528571D01*
X124845714Y-51566666D01*
X124874285Y-51642857D01*
X124874285Y-51719047D01*
X124588571Y-51795238D01*
X125388571Y-52061904D02*
X125388571Y-51261904D01*
X125388571Y-52023809D02*
X125331428Y-52061904D01*
X125217142Y-52061904D01*
X125159999Y-52023809D01*
X125131428Y-51985714D01*
X125102857Y-51909523D01*
X125102857Y-51680952D01*
X125131428Y-51604761D01*
X125159999Y-51566666D01*
X125217142Y-51528571D01*
X125331428Y-51528571D01*
X125388571Y-51566666D01*
X126131428Y-52061904D02*
X126131428Y-51261904D01*
X126131428Y-51566666D02*
X126188571Y-51528571D01*
X126302857Y-51528571D01*
X126359999Y-51566666D01*
X126388571Y-51604761D01*
X126417142Y-51680952D01*
X126417142Y-51909523D01*
X126388571Y-51985714D01*
X126359999Y-52023809D01*
X126302857Y-52061904D01*
X126188571Y-52061904D01*
X126131428Y-52023809D01*
X126617142Y-51528571D02*
X126759999Y-52061904D01*
X126902857Y-51528571D02*
X126759999Y-52061904D01*
X126702857Y-52252380D01*
X126674285Y-52290476D01*
X126617142Y-52328571D01*
X127902857Y-51300000D02*
X127845714Y-51261904D01*
X127759999Y-51261904D01*
X127674285Y-51300000D01*
X127617142Y-51376190D01*
X127588571Y-51452380D01*
X127559999Y-51604761D01*
X127559999Y-51719047D01*
X127588571Y-51871428D01*
X127617142Y-51947619D01*
X127674285Y-52023809D01*
X127759999Y-52061904D01*
X127817142Y-52061904D01*
X127902857Y-52023809D01*
X127931428Y-51985714D01*
X127931428Y-51719047D01*
X127817142Y-51719047D01*
X128417142Y-52023809D02*
X128359999Y-52061904D01*
X128245714Y-52061904D01*
X128188571Y-52023809D01*
X128159999Y-51947619D01*
X128159999Y-51642857D01*
X128188571Y-51566666D01*
X128245714Y-51528571D01*
X128359999Y-51528571D01*
X128417142Y-51566666D01*
X128445714Y-51642857D01*
X128445714Y-51719047D01*
X128159999Y-51795238D01*
X128702857Y-51528571D02*
X128702857Y-52061904D01*
X128702857Y-51604761D02*
X128731428Y-51566666D01*
X128788571Y-51528571D01*
X128874285Y-51528571D01*
X128931428Y-51566666D01*
X128959999Y-51642857D01*
X128959999Y-52061904D01*
X129474285Y-52023809D02*
X129417142Y-52061904D01*
X129302857Y-52061904D01*
X129245714Y-52023809D01*
X129217142Y-51947619D01*
X129217142Y-51642857D01*
X129245714Y-51566666D01*
X129302857Y-51528571D01*
X129417142Y-51528571D01*
X129474285Y-51566666D01*
X129502857Y-51642857D01*
X129502857Y-51719047D01*
X129217142Y-51795238D01*
X129759999Y-52061904D02*
X129759999Y-51528571D01*
X129759999Y-51680952D02*
X129788571Y-51604761D01*
X129817142Y-51566666D01*
X129874285Y-51528571D01*
X129931428Y-51528571D01*
X130388571Y-52061904D02*
X130388571Y-51642857D01*
X130359999Y-51566666D01*
X130302857Y-51528571D01*
X130188571Y-51528571D01*
X130131428Y-51566666D01*
X130388571Y-52023809D02*
X130331428Y-52061904D01*
X130188571Y-52061904D01*
X130131428Y-52023809D01*
X130102857Y-51947619D01*
X130102857Y-51871428D01*
X130131428Y-51795238D01*
X130188571Y-51757142D01*
X130331428Y-51757142D01*
X130388571Y-51719047D01*
X130760000Y-52061904D02*
X130702857Y-52023809D01*
X130674285Y-51947619D01*
X130674285Y-51261904D01*
X130960000Y-52023809D02*
X131045714Y-52061904D01*
X131188571Y-52061904D01*
X131245714Y-52023809D01*
X131274285Y-51985714D01*
X131302857Y-51909523D01*
X131302857Y-51833333D01*
X131274285Y-51757142D01*
X131245714Y-51719047D01*
X131188571Y-51680952D01*
X131074285Y-51642857D01*
X131017142Y-51604761D01*
X130988571Y-51566666D01*
X130960000Y-51490476D01*
X130960000Y-51414285D01*
X130988571Y-51338095D01*
X131017142Y-51300000D01*
X131074285Y-51261904D01*
X131217142Y-51261904D01*
X131302857Y-51300000D01*
X131502857Y-51528571D02*
X131645714Y-52061904D01*
X131788571Y-51528571D02*
X131645714Y-52061904D01*
X131588571Y-52252380D01*
X131560000Y-52290476D01*
X131502857Y-52328571D01*
X132017142Y-52061904D02*
X132017142Y-51261904D01*
X132017142Y-51566666D02*
X132074285Y-51528571D01*
X132188571Y-51528571D01*
X132245714Y-51566666D01*
X132274285Y-51604761D01*
X132302857Y-51680952D01*
X132302857Y-51909523D01*
X132274285Y-51985714D01*
X132245714Y-52023809D01*
X132188571Y-52061904D01*
X132074285Y-52061904D01*
X132017142Y-52023809D01*
X132845714Y-69057142D02*
X132883809Y-69085714D01*
X132921904Y-69171428D01*
X132921904Y-69228571D01*
X132883809Y-69314285D01*
X132807619Y-69371428D01*
X132731428Y-69400000D01*
X132579047Y-69428571D01*
X132464761Y-69428571D01*
X132312380Y-69400000D01*
X132236190Y-69371428D01*
X132160000Y-69314285D01*
X132121904Y-69228571D01*
X132121904Y-69171428D01*
X132160000Y-69085714D01*
X132198095Y-69057142D01*
X132921904Y-68514285D02*
X132921904Y-68800000D01*
X132121904Y-68800000D01*
X132921904Y-68314285D02*
X132121904Y-68314285D01*
X132921904Y-67971428D02*
X132464761Y-68228571D01*
X132121904Y-67971428D02*
X132579047Y-68314285D01*
X134162857Y-50400000D02*
X134105714Y-50361904D01*
X134020000Y-50361904D01*
X133934285Y-50400000D01*
X133877142Y-50476190D01*
X133848571Y-50552380D01*
X133820000Y-50704761D01*
X133820000Y-50819047D01*
X133848571Y-50971428D01*
X133877142Y-51047619D01*
X133934285Y-51123809D01*
X134020000Y-51161904D01*
X134077142Y-51161904D01*
X134162857Y-51123809D01*
X134191428Y-51085714D01*
X134191428Y-50819047D01*
X134077142Y-50819047D01*
X134448571Y-51161904D02*
X134448571Y-50361904D01*
X134791428Y-51161904D01*
X134791428Y-50361904D01*
X135077142Y-51161904D02*
X135077142Y-50361904D01*
X135220000Y-50361904D01*
X135305714Y-50400000D01*
X135362857Y-50476190D01*
X135391428Y-50552380D01*
X135420000Y-50704761D01*
X135420000Y-50819047D01*
X135391428Y-50971428D01*
X135362857Y-51047619D01*
X135305714Y-51123809D01*
X135220000Y-51161904D01*
X135077142Y-51161904D01*
X129355904Y-56337142D02*
X129355904Y-55994285D01*
X130155904Y-56165714D02*
X129355904Y-56165714D01*
X129355904Y-55851428D02*
X130155904Y-55451428D01*
X129355904Y-55451428D02*
X130155904Y-55851428D01*
X116098095Y-58571428D02*
X116060000Y-58542857D01*
X116021904Y-58485714D01*
X116021904Y-58342857D01*
X116060000Y-58285714D01*
X116098095Y-58257142D01*
X116174285Y-58228571D01*
X116250476Y-58228571D01*
X116364761Y-58257142D01*
X116821904Y-58600000D01*
X116821904Y-58228571D01*
X132921904Y-61114285D02*
X132921904Y-61457142D01*
X132921904Y-61285714D02*
X132121904Y-61285714D01*
X132236190Y-61342857D01*
X132312380Y-61400000D01*
X132350476Y-61457142D01*
X132121904Y-60742857D02*
X132121904Y-60685714D01*
X132160000Y-60628571D01*
X132198095Y-60600000D01*
X132274285Y-60571428D01*
X132426666Y-60542857D01*
X132617142Y-60542857D01*
X132769523Y-60571428D01*
X132845714Y-60600000D01*
X132883809Y-60628571D01*
X132921904Y-60685714D01*
X132921904Y-60742857D01*
X132883809Y-60800000D01*
X132845714Y-60828571D01*
X132769523Y-60857142D01*
X132617142Y-60885714D01*
X132426666Y-60885714D01*
X132274285Y-60857142D01*
X132198095Y-60828571D01*
X132160000Y-60800000D01*
X132121904Y-60742857D01*
X132921904Y-76771428D02*
X132121904Y-76771428D01*
X132502857Y-76771428D02*
X132502857Y-76428571D01*
X132921904Y-76428571D02*
X132121904Y-76428571D01*
X132921904Y-76142857D02*
X132121904Y-76142857D01*
X132121904Y-76000000D01*
X132160000Y-75914285D01*
X132236190Y-75857142D01*
X132312380Y-75828571D01*
X132464761Y-75800000D01*
X132579047Y-75800000D01*
X132731428Y-75828571D01*
X132807619Y-75857142D01*
X132883809Y-75914285D01*
X132921904Y-76000000D01*
X132921904Y-76142857D01*
X132845714Y-71514285D02*
X132883809Y-71542857D01*
X132921904Y-71628571D01*
X132921904Y-71685714D01*
X132883809Y-71771428D01*
X132807619Y-71828571D01*
X132731428Y-71857142D01*
X132579047Y-71885714D01*
X132464761Y-71885714D01*
X132312380Y-71857142D01*
X132236190Y-71828571D01*
X132160000Y-71771428D01*
X132121904Y-71685714D01*
X132121904Y-71628571D01*
X132160000Y-71542857D01*
X132198095Y-71514285D01*
X132883809Y-71285714D02*
X132921904Y-71200000D01*
X132921904Y-71057142D01*
X132883809Y-71000000D01*
X132845714Y-70971428D01*
X132769523Y-70942857D01*
X132693333Y-70942857D01*
X132617142Y-70971428D01*
X132579047Y-71000000D01*
X132540952Y-71057142D01*
X132502857Y-71171428D01*
X132464761Y-71228571D01*
X132426666Y-71257142D01*
X132350476Y-71285714D01*
X132274285Y-71285714D01*
X132198095Y-71257142D01*
X132160000Y-71228571D01*
X132121904Y-71171428D01*
X132121904Y-71028571D01*
X132160000Y-70942857D01*
X132121904Y-70571428D02*
X132121904Y-70457142D01*
X132160000Y-70400000D01*
X132236190Y-70342857D01*
X132388571Y-70314285D01*
X132655238Y-70314285D01*
X132807619Y-70342857D01*
X132883809Y-70400000D01*
X132921904Y-70457142D01*
X132921904Y-70571428D01*
X132883809Y-70628571D01*
X132807619Y-70685714D01*
X132655238Y-70714285D01*
X132388571Y-70714285D01*
X132236190Y-70685714D01*
X132160000Y-70628571D01*
X132121904Y-70571428D01*
X130155904Y-53440000D02*
X129774952Y-53640000D01*
X130155904Y-53782857D02*
X129355904Y-53782857D01*
X129355904Y-53554285D01*
X129394000Y-53497142D01*
X129432095Y-53468571D01*
X129508285Y-53440000D01*
X129622571Y-53440000D01*
X129698761Y-53468571D01*
X129736857Y-53497142D01*
X129774952Y-53554285D01*
X129774952Y-53782857D01*
X129355904Y-53240000D02*
X130155904Y-52840000D01*
X129355904Y-52840000D02*
X130155904Y-53240000D01*
X116021904Y-53328571D02*
X116021904Y-53271428D01*
X116060000Y-53214285D01*
X116098095Y-53185714D01*
X116174285Y-53157142D01*
X116326666Y-53128571D01*
X116517142Y-53128571D01*
X116669523Y-53157142D01*
X116745714Y-53185714D01*
X116783809Y-53214285D01*
X116821904Y-53271428D01*
X116821904Y-53328571D01*
X116783809Y-53385714D01*
X116745714Y-53414285D01*
X116669523Y-53442857D01*
X116517142Y-53471428D01*
X116326666Y-53471428D01*
X116174285Y-53442857D01*
X116098095Y-53414285D01*
X116060000Y-53385714D01*
X116021904Y-53328571D01*
%TO.C,R4*%
X117921904Y-74516666D02*
X117540952Y-74750000D01*
X117921904Y-74916666D02*
X117121904Y-74916666D01*
X117121904Y-74650000D01*
X117160000Y-74583333D01*
X117198095Y-74550000D01*
X117274285Y-74516666D01*
X117388571Y-74516666D01*
X117464761Y-74550000D01*
X117502857Y-74583333D01*
X117540952Y-74650000D01*
X117540952Y-74916666D01*
X117388571Y-73916666D02*
X117921904Y-73916666D01*
X117083809Y-74083333D02*
X117655238Y-74250000D01*
X117655238Y-73816666D01*
%TO.C,R7*%
X119962030Y-68037732D02*
X119389610Y-67936717D01*
X119557969Y-68441793D02*
X118850862Y-67734687D01*
X119120236Y-67465312D01*
X119221251Y-67431641D01*
X119288595Y-67431641D01*
X119389610Y-67465312D01*
X119490625Y-67566328D01*
X119524297Y-67667343D01*
X119524297Y-67734687D01*
X119490625Y-67835702D01*
X119221251Y-68105076D01*
X119490625Y-67094923D02*
X119962030Y-66623519D01*
X120366091Y-67633671D01*
%TO.C,L2*%
X117693333Y-61352380D02*
X117217142Y-61352380D01*
X117217142Y-60352380D01*
X117979047Y-60447619D02*
X118026666Y-60400000D01*
X118121904Y-60352380D01*
X118360000Y-60352380D01*
X118455238Y-60400000D01*
X118502857Y-60447619D01*
X118550476Y-60542857D01*
X118550476Y-60638095D01*
X118502857Y-60780952D01*
X117931428Y-61352380D01*
X118550476Y-61352380D01*
%TO.C,D2*%
X125067142Y-73816666D02*
X124167142Y-73816666D01*
X124167142Y-73650000D01*
X124210000Y-73550000D01*
X124295714Y-73483333D01*
X124381428Y-73450000D01*
X124552857Y-73416666D01*
X124681428Y-73416666D01*
X124852857Y-73450000D01*
X124938571Y-73483333D01*
X125024285Y-73550000D01*
X125067142Y-73650000D01*
X125067142Y-73816666D01*
X124252857Y-73150000D02*
X124210000Y-73116666D01*
X124167142Y-73050000D01*
X124167142Y-72883333D01*
X124210000Y-72816666D01*
X124252857Y-72783333D01*
X124338571Y-72750000D01*
X124424285Y-72750000D01*
X124552857Y-72783333D01*
X125067142Y-73183333D01*
X125067142Y-72750000D01*
%TO.C,C14*%
X125717142Y-69142857D02*
X125764761Y-69190476D01*
X125812380Y-69333333D01*
X125812380Y-69428571D01*
X125764761Y-69571428D01*
X125669523Y-69666666D01*
X125574285Y-69714285D01*
X125383809Y-69761904D01*
X125240952Y-69761904D01*
X125050476Y-69714285D01*
X124955238Y-69666666D01*
X124860000Y-69571428D01*
X124812380Y-69428571D01*
X124812380Y-69333333D01*
X124860000Y-69190476D01*
X124907619Y-69142857D01*
X125812380Y-68190476D02*
X125812380Y-68761904D01*
X125812380Y-68476190D02*
X124812380Y-68476190D01*
X124955238Y-68571428D01*
X125050476Y-68666666D01*
X125098095Y-68761904D01*
X125145714Y-67333333D02*
X125812380Y-67333333D01*
X124764761Y-67571428D02*
X125479047Y-67809523D01*
X125479047Y-67190476D01*
%TO.C,C2*%
X118743333Y-70685714D02*
X118710000Y-70723809D01*
X118610000Y-70761904D01*
X118543333Y-70761904D01*
X118443333Y-70723809D01*
X118376666Y-70647619D01*
X118343333Y-70571428D01*
X118310000Y-70419047D01*
X118310000Y-70304761D01*
X118343333Y-70152380D01*
X118376666Y-70076190D01*
X118443333Y-70000000D01*
X118543333Y-69961904D01*
X118610000Y-69961904D01*
X118710000Y-70000000D01*
X118743333Y-70038095D01*
X119010000Y-70038095D02*
X119043333Y-70000000D01*
X119110000Y-69961904D01*
X119276666Y-69961904D01*
X119343333Y-70000000D01*
X119376666Y-70038095D01*
X119410000Y-70114285D01*
X119410000Y-70190476D01*
X119376666Y-70304761D01*
X118976666Y-70761904D01*
X119410000Y-70761904D01*
%TO.C,R2*%
X123112380Y-57666666D02*
X122636190Y-58000000D01*
X123112380Y-58238095D02*
X122112380Y-58238095D01*
X122112380Y-57857142D01*
X122160000Y-57761904D01*
X122207619Y-57714285D01*
X122302857Y-57666666D01*
X122445714Y-57666666D01*
X122540952Y-57714285D01*
X122588571Y-57761904D01*
X122636190Y-57857142D01*
X122636190Y-58238095D01*
X122207619Y-57285714D02*
X122160000Y-57238095D01*
X122112380Y-57142857D01*
X122112380Y-56904761D01*
X122160000Y-56809523D01*
X122207619Y-56761904D01*
X122302857Y-56714285D01*
X122398095Y-56714285D01*
X122540952Y-56761904D01*
X123112380Y-57333333D01*
X123112380Y-56714285D01*
%TO.C,R10*%
X132712380Y-90542857D02*
X132236190Y-90876190D01*
X132712380Y-91114285D02*
X131712380Y-91114285D01*
X131712380Y-90733333D01*
X131760000Y-90638095D01*
X131807619Y-90590476D01*
X131902857Y-90542857D01*
X132045714Y-90542857D01*
X132140952Y-90590476D01*
X132188571Y-90638095D01*
X132236190Y-90733333D01*
X132236190Y-91114285D01*
X132712380Y-89590476D02*
X132712380Y-90161904D01*
X132712380Y-89876190D02*
X131712380Y-89876190D01*
X131855238Y-89971428D01*
X131950476Y-90066666D01*
X131998095Y-90161904D01*
X131712380Y-88971428D02*
X131712380Y-88876190D01*
X131760000Y-88780952D01*
X131807619Y-88733333D01*
X131902857Y-88685714D01*
X132093333Y-88638095D01*
X132331428Y-88638095D01*
X132521904Y-88685714D01*
X132617142Y-88733333D01*
X132664761Y-88780952D01*
X132712380Y-88876190D01*
X132712380Y-88971428D01*
X132664761Y-89066666D01*
X132617142Y-89114285D01*
X132521904Y-89161904D01*
X132331428Y-89209523D01*
X132093333Y-89209523D01*
X131902857Y-89161904D01*
X131807619Y-89114285D01*
X131760000Y-89066666D01*
X131712380Y-88971428D01*
%TO.C,R5*%
X117821904Y-72516666D02*
X117440952Y-72750000D01*
X117821904Y-72916666D02*
X117021904Y-72916666D01*
X117021904Y-72650000D01*
X117060000Y-72583333D01*
X117098095Y-72550000D01*
X117174285Y-72516666D01*
X117288571Y-72516666D01*
X117364761Y-72550000D01*
X117402857Y-72583333D01*
X117440952Y-72650000D01*
X117440952Y-72916666D01*
X117021904Y-71883333D02*
X117021904Y-72216666D01*
X117402857Y-72250000D01*
X117364761Y-72216666D01*
X117326666Y-72150000D01*
X117326666Y-71983333D01*
X117364761Y-71916666D01*
X117402857Y-71883333D01*
X117479047Y-71850000D01*
X117669523Y-71850000D01*
X117745714Y-71883333D01*
X117783809Y-71916666D01*
X117821904Y-71983333D01*
X117821904Y-72150000D01*
X117783809Y-72216666D01*
X117745714Y-72250000D01*
%TO.C,R6*%
X131712380Y-73466666D02*
X131236190Y-73800000D01*
X131712380Y-74038095D02*
X130712380Y-74038095D01*
X130712380Y-73657142D01*
X130760000Y-73561904D01*
X130807619Y-73514285D01*
X130902857Y-73466666D01*
X131045714Y-73466666D01*
X131140952Y-73514285D01*
X131188571Y-73561904D01*
X131236190Y-73657142D01*
X131236190Y-74038095D01*
X130712380Y-72609523D02*
X130712380Y-72800000D01*
X130760000Y-72895238D01*
X130807619Y-72942857D01*
X130950476Y-73038095D01*
X131140952Y-73085714D01*
X131521904Y-73085714D01*
X131617142Y-73038095D01*
X131664761Y-72990476D01*
X131712380Y-72895238D01*
X131712380Y-72704761D01*
X131664761Y-72609523D01*
X131617142Y-72561904D01*
X131521904Y-72514285D01*
X131283809Y-72514285D01*
X131188571Y-72561904D01*
X131140952Y-72609523D01*
X131093333Y-72704761D01*
X131093333Y-72895238D01*
X131140952Y-72990476D01*
X131188571Y-73038095D01*
X131283809Y-73085714D01*
%TO.C,L1*%
X121487380Y-55030666D02*
X121487380Y-55506857D01*
X120487380Y-55506857D01*
X121487380Y-54173523D02*
X121487380Y-54744952D01*
X121487380Y-54459238D02*
X120487380Y-54459238D01*
X120630238Y-54554476D01*
X120725476Y-54649714D01*
X120773095Y-54744952D01*
D12*
%TO.C,S2*%
X133859047Y-83752619D02*
X133919523Y-83571190D01*
X133919523Y-83268809D01*
X133859047Y-83147857D01*
X133798571Y-83087380D01*
X133677619Y-83026904D01*
X133556666Y-83026904D01*
X133435714Y-83087380D01*
X133375238Y-83147857D01*
X133314761Y-83268809D01*
X133254285Y-83510714D01*
X133193809Y-83631666D01*
X133133333Y-83692142D01*
X133012380Y-83752619D01*
X132891428Y-83752619D01*
X132770476Y-83692142D01*
X132710000Y-83631666D01*
X132649523Y-83510714D01*
X132649523Y-83208333D01*
X132710000Y-83026904D01*
X132770476Y-82543095D02*
X132710000Y-82482619D01*
X132649523Y-82361666D01*
X132649523Y-82059285D01*
X132710000Y-81938333D01*
X132770476Y-81877857D01*
X132891428Y-81817380D01*
X133012380Y-81817380D01*
X133193809Y-81877857D01*
X133919523Y-82603571D01*
X133919523Y-81817380D01*
D11*
%TO.C,R11*%
X122582380Y-70842857D02*
X122106190Y-71176190D01*
X122582380Y-71414285D02*
X121582380Y-71414285D01*
X121582380Y-71033333D01*
X121630000Y-70938095D01*
X121677619Y-70890476D01*
X121772857Y-70842857D01*
X121915714Y-70842857D01*
X122010952Y-70890476D01*
X122058571Y-70938095D01*
X122106190Y-71033333D01*
X122106190Y-71414285D01*
X122582380Y-69890476D02*
X122582380Y-70461904D01*
X122582380Y-70176190D02*
X121582380Y-70176190D01*
X121725238Y-70271428D01*
X121820476Y-70366666D01*
X121868095Y-70461904D01*
X122582380Y-68938095D02*
X122582380Y-69509523D01*
X122582380Y-69223809D02*
X121582380Y-69223809D01*
X121725238Y-69319047D01*
X121820476Y-69414285D01*
X121868095Y-69509523D01*
D12*
%TO.C,J5*%
X124036666Y-86398523D02*
X124036666Y-87305666D01*
X123976190Y-87487095D01*
X123855238Y-87608047D01*
X123673809Y-87668523D01*
X123552857Y-87668523D01*
X125246190Y-86398523D02*
X124641428Y-86398523D01*
X124580952Y-87003285D01*
X124641428Y-86942809D01*
X124762380Y-86882333D01*
X125064761Y-86882333D01*
X125185714Y-86942809D01*
X125246190Y-87003285D01*
X125306666Y-87124238D01*
X125306666Y-87426619D01*
X125246190Y-87547571D01*
X125185714Y-87608047D01*
X125064761Y-87668523D01*
X124762380Y-87668523D01*
X124641428Y-87608047D01*
X124580952Y-87547571D01*
D11*
%TO.C,C15*%
X129217142Y-63942857D02*
X129264761Y-63990476D01*
X129312380Y-64133333D01*
X129312380Y-64228571D01*
X129264761Y-64371428D01*
X129169523Y-64466666D01*
X129074285Y-64514285D01*
X128883809Y-64561904D01*
X128740952Y-64561904D01*
X128550476Y-64514285D01*
X128455238Y-64466666D01*
X128360000Y-64371428D01*
X128312380Y-64228571D01*
X128312380Y-64133333D01*
X128360000Y-63990476D01*
X128407619Y-63942857D01*
X129312380Y-62990476D02*
X129312380Y-63561904D01*
X129312380Y-63276190D02*
X128312380Y-63276190D01*
X128455238Y-63371428D01*
X128550476Y-63466666D01*
X128598095Y-63561904D01*
X128312380Y-62085714D02*
X128312380Y-62561904D01*
X128788571Y-62609523D01*
X128740952Y-62561904D01*
X128693333Y-62466666D01*
X128693333Y-62228571D01*
X128740952Y-62133333D01*
X128788571Y-62085714D01*
X128883809Y-62038095D01*
X129121904Y-62038095D01*
X129217142Y-62085714D01*
X129264761Y-62133333D01*
X129312380Y-62228571D01*
X129312380Y-62466666D01*
X129264761Y-62561904D01*
X129217142Y-62609523D01*
%TO.C,C10*%
X117345714Y-63385714D02*
X117383809Y-63414285D01*
X117421904Y-63500000D01*
X117421904Y-63557142D01*
X117383809Y-63642857D01*
X117307619Y-63700000D01*
X117231428Y-63728571D01*
X117079047Y-63757142D01*
X116964761Y-63757142D01*
X116812380Y-63728571D01*
X116736190Y-63700000D01*
X116660000Y-63642857D01*
X116621904Y-63557142D01*
X116621904Y-63500000D01*
X116660000Y-63414285D01*
X116698095Y-63385714D01*
X117421904Y-62814285D02*
X117421904Y-63157142D01*
X117421904Y-62985714D02*
X116621904Y-62985714D01*
X116736190Y-63042857D01*
X116812380Y-63100000D01*
X116850476Y-63157142D01*
X116621904Y-62442857D02*
X116621904Y-62385714D01*
X116660000Y-62328571D01*
X116698095Y-62300000D01*
X116774285Y-62271428D01*
X116926666Y-62242857D01*
X117117142Y-62242857D01*
X117269523Y-62271428D01*
X117345714Y-62300000D01*
X117383809Y-62328571D01*
X117421904Y-62385714D01*
X117421904Y-62442857D01*
X117383809Y-62500000D01*
X117345714Y-62528571D01*
X117269523Y-62557142D01*
X117117142Y-62585714D01*
X116926666Y-62585714D01*
X116774285Y-62557142D01*
X116698095Y-62528571D01*
X116660000Y-62500000D01*
X116621904Y-62442857D01*
%TO.C,C13*%
X119317142Y-60457142D02*
X119269523Y-60504761D01*
X119126666Y-60552380D01*
X119031428Y-60552380D01*
X118888571Y-60504761D01*
X118793333Y-60409523D01*
X118745714Y-60314285D01*
X118698095Y-60123809D01*
X118698095Y-59980952D01*
X118745714Y-59790476D01*
X118793333Y-59695238D01*
X118888571Y-59600000D01*
X119031428Y-59552380D01*
X119126666Y-59552380D01*
X119269523Y-59600000D01*
X119317142Y-59647619D01*
X120269523Y-60552380D02*
X119698095Y-60552380D01*
X119983809Y-60552380D02*
X119983809Y-59552380D01*
X119888571Y-59695238D01*
X119793333Y-59790476D01*
X119698095Y-59838095D01*
X120602857Y-59552380D02*
X121221904Y-59552380D01*
X120888571Y-59933333D01*
X121031428Y-59933333D01*
X121126666Y-59980952D01*
X121174285Y-60028571D01*
X121221904Y-60123809D01*
X121221904Y-60361904D01*
X121174285Y-60457142D01*
X121126666Y-60504761D01*
X121031428Y-60552380D01*
X120745714Y-60552380D01*
X120650476Y-60504761D01*
X120602857Y-60457142D01*
%TO.C,C1*%
X118743333Y-76785714D02*
X118710000Y-76823809D01*
X118610000Y-76861904D01*
X118543333Y-76861904D01*
X118443333Y-76823809D01*
X118376666Y-76747619D01*
X118343333Y-76671428D01*
X118310000Y-76519047D01*
X118310000Y-76404761D01*
X118343333Y-76252380D01*
X118376666Y-76176190D01*
X118443333Y-76100000D01*
X118543333Y-76061904D01*
X118610000Y-76061904D01*
X118710000Y-76100000D01*
X118743333Y-76138095D01*
X119410000Y-76861904D02*
X119010000Y-76861904D01*
X119210000Y-76861904D02*
X119210000Y-76061904D01*
X119143333Y-76176190D01*
X119076666Y-76252380D01*
X119010000Y-76290476D01*
%TO.C,C18*%
X126917142Y-81957142D02*
X126869523Y-82004761D01*
X126726666Y-82052380D01*
X126631428Y-82052380D01*
X126488571Y-82004761D01*
X126393333Y-81909523D01*
X126345714Y-81814285D01*
X126298095Y-81623809D01*
X126298095Y-81480952D01*
X126345714Y-81290476D01*
X126393333Y-81195238D01*
X126488571Y-81100000D01*
X126631428Y-81052380D01*
X126726666Y-81052380D01*
X126869523Y-81100000D01*
X126917142Y-81147619D01*
X127869523Y-82052380D02*
X127298095Y-82052380D01*
X127583809Y-82052380D02*
X127583809Y-81052380D01*
X127488571Y-81195238D01*
X127393333Y-81290476D01*
X127298095Y-81338095D01*
X128440952Y-81480952D02*
X128345714Y-81433333D01*
X128298095Y-81385714D01*
X128250476Y-81290476D01*
X128250476Y-81242857D01*
X128298095Y-81147619D01*
X128345714Y-81100000D01*
X128440952Y-81052380D01*
X128631428Y-81052380D01*
X128726666Y-81100000D01*
X128774285Y-81147619D01*
X128821904Y-81242857D01*
X128821904Y-81290476D01*
X128774285Y-81385714D01*
X128726666Y-81433333D01*
X128631428Y-81480952D01*
X128440952Y-81480952D01*
X128345714Y-81528571D01*
X128298095Y-81576190D01*
X128250476Y-81671428D01*
X128250476Y-81861904D01*
X128298095Y-81957142D01*
X128345714Y-82004761D01*
X128440952Y-82052380D01*
X128631428Y-82052380D01*
X128726666Y-82004761D01*
X128774285Y-81957142D01*
X128821904Y-81861904D01*
X128821904Y-81671428D01*
X128774285Y-81576190D01*
X128726666Y-81528571D01*
X128631428Y-81480952D01*
%TO.C,IC1*%
X124579047Y-60352380D02*
X124579047Y-59352380D01*
X125417142Y-60257142D02*
X125379047Y-60304761D01*
X125264761Y-60352380D01*
X125188571Y-60352380D01*
X125074285Y-60304761D01*
X124998095Y-60209523D01*
X124960000Y-60114285D01*
X124921904Y-59923809D01*
X124921904Y-59780952D01*
X124960000Y-59590476D01*
X124998095Y-59495238D01*
X125074285Y-59400000D01*
X125188571Y-59352380D01*
X125264761Y-59352380D01*
X125379047Y-59400000D01*
X125417142Y-59447619D01*
X126179047Y-60352380D02*
X125721904Y-60352380D01*
X125950476Y-60352380D02*
X125950476Y-59352380D01*
X125874285Y-59495238D01*
X125798095Y-59590476D01*
X125721904Y-59638095D01*
%TO.C,R1*%
X118693333Y-79052380D02*
X118360000Y-78576190D01*
X118121904Y-79052380D02*
X118121904Y-78052380D01*
X118502857Y-78052380D01*
X118598095Y-78100000D01*
X118645714Y-78147619D01*
X118693333Y-78242857D01*
X118693333Y-78385714D01*
X118645714Y-78480952D01*
X118598095Y-78528571D01*
X118502857Y-78576190D01*
X118121904Y-78576190D01*
X119645714Y-79052380D02*
X119074285Y-79052380D01*
X119360000Y-79052380D02*
X119360000Y-78052380D01*
X119264761Y-78195238D01*
X119169523Y-78290476D01*
X119074285Y-78338095D01*
D12*
%TO.C,IC2*%
X128844523Y-77439761D02*
X127574523Y-77439761D01*
X128723571Y-76109285D02*
X128784047Y-76169761D01*
X128844523Y-76351190D01*
X128844523Y-76472142D01*
X128784047Y-76653571D01*
X128663095Y-76774523D01*
X128542142Y-76835000D01*
X128300238Y-76895476D01*
X128118809Y-76895476D01*
X127876904Y-76835000D01*
X127755952Y-76774523D01*
X127635000Y-76653571D01*
X127574523Y-76472142D01*
X127574523Y-76351190D01*
X127635000Y-76169761D01*
X127695476Y-76109285D01*
X127695476Y-75625476D02*
X127635000Y-75565000D01*
X127574523Y-75444047D01*
X127574523Y-75141666D01*
X127635000Y-75020714D01*
X127695476Y-74960238D01*
X127816428Y-74899761D01*
X127937380Y-74899761D01*
X128118809Y-74960238D01*
X128844523Y-75685952D01*
X128844523Y-74899761D01*
D11*
%TO.C,D3*%
X126161904Y-69888380D02*
X126161904Y-68888380D01*
X126400000Y-68888380D01*
X126542857Y-68936000D01*
X126638095Y-69031238D01*
X126685714Y-69126476D01*
X126733333Y-69316952D01*
X126733333Y-69459809D01*
X126685714Y-69650285D01*
X126638095Y-69745523D01*
X126542857Y-69840761D01*
X126400000Y-69888380D01*
X126161904Y-69888380D01*
X127066666Y-68888380D02*
X127685714Y-68888380D01*
X127352380Y-69269333D01*
X127495238Y-69269333D01*
X127590476Y-69316952D01*
X127638095Y-69364571D01*
X127685714Y-69459809D01*
X127685714Y-69697904D01*
X127638095Y-69793142D01*
X127590476Y-69840761D01*
X127495238Y-69888380D01*
X127209523Y-69888380D01*
X127114285Y-69840761D01*
X127066666Y-69793142D01*
%TO.C,R12*%
X128897142Y-70148380D02*
X128563809Y-69672190D01*
X128325714Y-70148380D02*
X128325714Y-69148380D01*
X128706666Y-69148380D01*
X128801904Y-69196000D01*
X128849523Y-69243619D01*
X128897142Y-69338857D01*
X128897142Y-69481714D01*
X128849523Y-69576952D01*
X128801904Y-69624571D01*
X128706666Y-69672190D01*
X128325714Y-69672190D01*
X129849523Y-70148380D02*
X129278095Y-70148380D01*
X129563809Y-70148380D02*
X129563809Y-69148380D01*
X129468571Y-69291238D01*
X129373333Y-69386476D01*
X129278095Y-69434095D01*
X130230476Y-69243619D02*
X130278095Y-69196000D01*
X130373333Y-69148380D01*
X130611428Y-69148380D01*
X130706666Y-69196000D01*
X130754285Y-69243619D01*
X130801904Y-69338857D01*
X130801904Y-69434095D01*
X130754285Y-69576952D01*
X130182857Y-70148380D01*
X130801904Y-70148380D01*
%TO.C,C6*%
X118293333Y-57057142D02*
X118245714Y-57104761D01*
X118102857Y-57152380D01*
X118007619Y-57152380D01*
X117864761Y-57104761D01*
X117769523Y-57009523D01*
X117721904Y-56914285D01*
X117674285Y-56723809D01*
X117674285Y-56580952D01*
X117721904Y-56390476D01*
X117769523Y-56295238D01*
X117864761Y-56200000D01*
X118007619Y-56152380D01*
X118102857Y-56152380D01*
X118245714Y-56200000D01*
X118293333Y-56247619D01*
X119150476Y-56152380D02*
X118960000Y-56152380D01*
X118864761Y-56200000D01*
X118817142Y-56247619D01*
X118721904Y-56390476D01*
X118674285Y-56580952D01*
X118674285Y-56961904D01*
X118721904Y-57057142D01*
X118769523Y-57104761D01*
X118864761Y-57152380D01*
X119055238Y-57152380D01*
X119150476Y-57104761D01*
X119198095Y-57057142D01*
X119245714Y-56961904D01*
X119245714Y-56723809D01*
X119198095Y-56628571D01*
X119150476Y-56580952D01*
X119055238Y-56533333D01*
X118864761Y-56533333D01*
X118769523Y-56580952D01*
X118721904Y-56628571D01*
X118674285Y-56723809D01*
%TO.C,C4*%
X117117142Y-89666666D02*
X117164761Y-89714285D01*
X117212380Y-89857142D01*
X117212380Y-89952380D01*
X117164761Y-90095238D01*
X117069523Y-90190476D01*
X116974285Y-90238095D01*
X116783809Y-90285714D01*
X116640952Y-90285714D01*
X116450476Y-90238095D01*
X116355238Y-90190476D01*
X116260000Y-90095238D01*
X116212380Y-89952380D01*
X116212380Y-89857142D01*
X116260000Y-89714285D01*
X116307619Y-89666666D01*
X116545714Y-88809523D02*
X117212380Y-88809523D01*
X116164761Y-89047619D02*
X116879047Y-89285714D01*
X116879047Y-88666666D01*
%TO.C,C16*%
X130517142Y-63942857D02*
X130564761Y-63990476D01*
X130612380Y-64133333D01*
X130612380Y-64228571D01*
X130564761Y-64371428D01*
X130469523Y-64466666D01*
X130374285Y-64514285D01*
X130183809Y-64561904D01*
X130040952Y-64561904D01*
X129850476Y-64514285D01*
X129755238Y-64466666D01*
X129660000Y-64371428D01*
X129612380Y-64228571D01*
X129612380Y-64133333D01*
X129660000Y-63990476D01*
X129707619Y-63942857D01*
X130612380Y-62990476D02*
X130612380Y-63561904D01*
X130612380Y-63276190D02*
X129612380Y-63276190D01*
X129755238Y-63371428D01*
X129850476Y-63466666D01*
X129898095Y-63561904D01*
X129612380Y-62133333D02*
X129612380Y-62323809D01*
X129660000Y-62419047D01*
X129707619Y-62466666D01*
X129850476Y-62561904D01*
X130040952Y-62609523D01*
X130421904Y-62609523D01*
X130517142Y-62561904D01*
X130564761Y-62514285D01*
X130612380Y-62419047D01*
X130612380Y-62228571D01*
X130564761Y-62133333D01*
X130517142Y-62085714D01*
X130421904Y-62038095D01*
X130183809Y-62038095D01*
X130088571Y-62085714D01*
X130040952Y-62133333D01*
X129993333Y-62228571D01*
X129993333Y-62419047D01*
X130040952Y-62514285D01*
X130088571Y-62561904D01*
X130183809Y-62609523D01*
%TO.C,C7*%
X128093333Y-58357142D02*
X128045714Y-58404761D01*
X127902857Y-58452380D01*
X127807619Y-58452380D01*
X127664761Y-58404761D01*
X127569523Y-58309523D01*
X127521904Y-58214285D01*
X127474285Y-58023809D01*
X127474285Y-57880952D01*
X127521904Y-57690476D01*
X127569523Y-57595238D01*
X127664761Y-57500000D01*
X127807619Y-57452380D01*
X127902857Y-57452380D01*
X128045714Y-57500000D01*
X128093333Y-57547619D01*
X128426666Y-57452380D02*
X129093333Y-57452380D01*
X128664761Y-58452380D01*
%TO.C,C12*%
X119317142Y-59157142D02*
X119269523Y-59204761D01*
X119126666Y-59252380D01*
X119031428Y-59252380D01*
X118888571Y-59204761D01*
X118793333Y-59109523D01*
X118745714Y-59014285D01*
X118698095Y-58823809D01*
X118698095Y-58680952D01*
X118745714Y-58490476D01*
X118793333Y-58395238D01*
X118888571Y-58300000D01*
X119031428Y-58252380D01*
X119126666Y-58252380D01*
X119269523Y-58300000D01*
X119317142Y-58347619D01*
X120269523Y-59252380D02*
X119698095Y-59252380D01*
X119983809Y-59252380D02*
X119983809Y-58252380D01*
X119888571Y-58395238D01*
X119793333Y-58490476D01*
X119698095Y-58538095D01*
X120650476Y-58347619D02*
X120698095Y-58300000D01*
X120793333Y-58252380D01*
X121031428Y-58252380D01*
X121126666Y-58300000D01*
X121174285Y-58347619D01*
X121221904Y-58442857D01*
X121221904Y-58538095D01*
X121174285Y-58680952D01*
X120602857Y-59252380D01*
X121221904Y-59252380D01*
D12*
%TO.C,S1*%
X116079047Y-83752619D02*
X116139523Y-83571190D01*
X116139523Y-83268809D01*
X116079047Y-83147857D01*
X116018571Y-83087380D01*
X115897619Y-83026904D01*
X115776666Y-83026904D01*
X115655714Y-83087380D01*
X115595238Y-83147857D01*
X115534761Y-83268809D01*
X115474285Y-83510714D01*
X115413809Y-83631666D01*
X115353333Y-83692142D01*
X115232380Y-83752619D01*
X115111428Y-83752619D01*
X114990476Y-83692142D01*
X114930000Y-83631666D01*
X114869523Y-83510714D01*
X114869523Y-83208333D01*
X114930000Y-83026904D01*
X116139523Y-81817380D02*
X116139523Y-82543095D01*
X116139523Y-82180238D02*
X114869523Y-82180238D01*
X115050952Y-82301190D01*
X115171904Y-82422142D01*
X115232380Y-82543095D01*
D11*
%TO.C,C17*%
X126145714Y-73150000D02*
X126183809Y-73183333D01*
X126221904Y-73283333D01*
X126221904Y-73350000D01*
X126183809Y-73450000D01*
X126107619Y-73516666D01*
X126031428Y-73550000D01*
X125879047Y-73583333D01*
X125764761Y-73583333D01*
X125612380Y-73550000D01*
X125536190Y-73516666D01*
X125460000Y-73450000D01*
X125421904Y-73350000D01*
X125421904Y-73283333D01*
X125460000Y-73183333D01*
X125498095Y-73150000D01*
X126221904Y-72483333D02*
X126221904Y-72883333D01*
X126221904Y-72683333D02*
X125421904Y-72683333D01*
X125536190Y-72750000D01*
X125612380Y-72816666D01*
X125650476Y-72883333D01*
X125421904Y-72250000D02*
X125421904Y-71783333D01*
X126221904Y-72083333D01*
%TO.C,C3*%
X123277333Y-54442142D02*
X123229714Y-54489761D01*
X123086857Y-54537380D01*
X122991619Y-54537380D01*
X122848761Y-54489761D01*
X122753523Y-54394523D01*
X122705904Y-54299285D01*
X122658285Y-54108809D01*
X122658285Y-53965952D01*
X122705904Y-53775476D01*
X122753523Y-53680238D01*
X122848761Y-53585000D01*
X122991619Y-53537380D01*
X123086857Y-53537380D01*
X123229714Y-53585000D01*
X123277333Y-53632619D01*
X123610666Y-53537380D02*
X124229714Y-53537380D01*
X123896380Y-53918333D01*
X124039238Y-53918333D01*
X124134476Y-53965952D01*
X124182095Y-54013571D01*
X124229714Y-54108809D01*
X124229714Y-54346904D01*
X124182095Y-54442142D01*
X124134476Y-54489761D01*
X124039238Y-54537380D01*
X123753523Y-54537380D01*
X123658285Y-54489761D01*
X123610666Y-54442142D01*
%TO.C,R8*%
X128793333Y-60804380D02*
X128460000Y-60328190D01*
X128221904Y-60804380D02*
X128221904Y-59804380D01*
X128602857Y-59804380D01*
X128698095Y-59852000D01*
X128745714Y-59899619D01*
X128793333Y-59994857D01*
X128793333Y-60137714D01*
X128745714Y-60232952D01*
X128698095Y-60280571D01*
X128602857Y-60328190D01*
X128221904Y-60328190D01*
X129364761Y-60232952D02*
X129269523Y-60185333D01*
X129221904Y-60137714D01*
X129174285Y-60042476D01*
X129174285Y-59994857D01*
X129221904Y-59899619D01*
X129269523Y-59852000D01*
X129364761Y-59804380D01*
X129555238Y-59804380D01*
X129650476Y-59852000D01*
X129698095Y-59899619D01*
X129745714Y-59994857D01*
X129745714Y-60042476D01*
X129698095Y-60137714D01*
X129650476Y-60185333D01*
X129555238Y-60232952D01*
X129364761Y-60232952D01*
X129269523Y-60280571D01*
X129221904Y-60328190D01*
X129174285Y-60423428D01*
X129174285Y-60613904D01*
X129221904Y-60709142D01*
X129269523Y-60756761D01*
X129364761Y-60804380D01*
X129555238Y-60804380D01*
X129650476Y-60756761D01*
X129698095Y-60709142D01*
X129745714Y-60613904D01*
X129745714Y-60423428D01*
X129698095Y-60328190D01*
X129650476Y-60280571D01*
X129555238Y-60232952D01*
%TO.C,C9*%
X117817142Y-65666666D02*
X117864761Y-65714285D01*
X117912380Y-65857142D01*
X117912380Y-65952380D01*
X117864761Y-66095238D01*
X117769523Y-66190476D01*
X117674285Y-66238095D01*
X117483809Y-66285714D01*
X117340952Y-66285714D01*
X117150476Y-66238095D01*
X117055238Y-66190476D01*
X116960000Y-66095238D01*
X116912380Y-65952380D01*
X116912380Y-65857142D01*
X116960000Y-65714285D01*
X117007619Y-65666666D01*
X117912380Y-65190476D02*
X117912380Y-65000000D01*
X117864761Y-64904761D01*
X117817142Y-64857142D01*
X117674285Y-64761904D01*
X117483809Y-64714285D01*
X117102857Y-64714285D01*
X117007619Y-64761904D01*
X116960000Y-64809523D01*
X116912380Y-64904761D01*
X116912380Y-65095238D01*
X116960000Y-65190476D01*
X117007619Y-65238095D01*
X117102857Y-65285714D01*
X117340952Y-65285714D01*
X117436190Y-65238095D01*
X117483809Y-65190476D01*
X117531428Y-65095238D01*
X117531428Y-64904761D01*
X117483809Y-64809523D01*
X117436190Y-64761904D01*
X117340952Y-64714285D01*
%TO.C,R9*%
X115882380Y-89666666D02*
X115406190Y-90000000D01*
X115882380Y-90238095D02*
X114882380Y-90238095D01*
X114882380Y-89857142D01*
X114930000Y-89761904D01*
X114977619Y-89714285D01*
X115072857Y-89666666D01*
X115215714Y-89666666D01*
X115310952Y-89714285D01*
X115358571Y-89761904D01*
X115406190Y-89857142D01*
X115406190Y-90238095D01*
X115882380Y-89190476D02*
X115882380Y-89000000D01*
X115834761Y-88904761D01*
X115787142Y-88857142D01*
X115644285Y-88761904D01*
X115453809Y-88714285D01*
X115072857Y-88714285D01*
X114977619Y-88761904D01*
X114930000Y-88809523D01*
X114882380Y-88904761D01*
X114882380Y-89095238D01*
X114930000Y-89190476D01*
X114977619Y-89238095D01*
X115072857Y-89285714D01*
X115310952Y-89285714D01*
X115406190Y-89238095D01*
X115453809Y-89190476D01*
X115501428Y-89095238D01*
X115501428Y-88904761D01*
X115453809Y-88809523D01*
X115406190Y-88761904D01*
X115310952Y-88714285D01*
%TO.C,C8*%
X133917142Y-89866666D02*
X133964761Y-89914285D01*
X134012380Y-90057142D01*
X134012380Y-90152380D01*
X133964761Y-90295238D01*
X133869523Y-90390476D01*
X133774285Y-90438095D01*
X133583809Y-90485714D01*
X133440952Y-90485714D01*
X133250476Y-90438095D01*
X133155238Y-90390476D01*
X133060000Y-90295238D01*
X133012380Y-90152380D01*
X133012380Y-90057142D01*
X133060000Y-89914285D01*
X133107619Y-89866666D01*
X133440952Y-89295238D02*
X133393333Y-89390476D01*
X133345714Y-89438095D01*
X133250476Y-89485714D01*
X133202857Y-89485714D01*
X133107619Y-89438095D01*
X133060000Y-89390476D01*
X133012380Y-89295238D01*
X133012380Y-89104761D01*
X133060000Y-89009523D01*
X133107619Y-88961904D01*
X133202857Y-88914285D01*
X133250476Y-88914285D01*
X133345714Y-88961904D01*
X133393333Y-89009523D01*
X133440952Y-89104761D01*
X133440952Y-89295238D01*
X133488571Y-89390476D01*
X133536190Y-89438095D01*
X133631428Y-89485714D01*
X133821904Y-89485714D01*
X133917142Y-89438095D01*
X133964761Y-89390476D01*
X134012380Y-89295238D01*
X134012380Y-89104761D01*
X133964761Y-89009523D01*
X133917142Y-88961904D01*
X133821904Y-88914285D01*
X133631428Y-88914285D01*
X133536190Y-88961904D01*
X133488571Y-89009523D01*
X133440952Y-89104761D01*
%TO.C,C11*%
X120435142Y-65558857D02*
X120482761Y-65606476D01*
X120530380Y-65749333D01*
X120530380Y-65844571D01*
X120482761Y-65987428D01*
X120387523Y-66082666D01*
X120292285Y-66130285D01*
X120101809Y-66177904D01*
X119958952Y-66177904D01*
X119768476Y-66130285D01*
X119673238Y-66082666D01*
X119578000Y-65987428D01*
X119530380Y-65844571D01*
X119530380Y-65749333D01*
X119578000Y-65606476D01*
X119625619Y-65558857D01*
X120530380Y-64606476D02*
X120530380Y-65177904D01*
X120530380Y-64892190D02*
X119530380Y-64892190D01*
X119673238Y-64987428D01*
X119768476Y-65082666D01*
X119816095Y-65177904D01*
X120530380Y-63654095D02*
X120530380Y-64225523D01*
X120530380Y-63939809D02*
X119530380Y-63939809D01*
X119673238Y-64035047D01*
X119768476Y-64130285D01*
X119816095Y-64225523D01*
%TO.C,R3*%
X120912380Y-71666666D02*
X120436190Y-72000000D01*
X120912380Y-72238095D02*
X119912380Y-72238095D01*
X119912380Y-71857142D01*
X119960000Y-71761904D01*
X120007619Y-71714285D01*
X120102857Y-71666666D01*
X120245714Y-71666666D01*
X120340952Y-71714285D01*
X120388571Y-71761904D01*
X120436190Y-71857142D01*
X120436190Y-72238095D01*
X119912380Y-71333333D02*
X119912380Y-70714285D01*
X120293333Y-71047619D01*
X120293333Y-70904761D01*
X120340952Y-70809523D01*
X120388571Y-70761904D01*
X120483809Y-70714285D01*
X120721904Y-70714285D01*
X120817142Y-70761904D01*
X120864761Y-70809523D01*
X120912380Y-70904761D01*
X120912380Y-71190476D01*
X120864761Y-71285714D01*
X120817142Y-71333333D01*
%TO.C,C5*%
X118293333Y-53357142D02*
X118245714Y-53404761D01*
X118102857Y-53452380D01*
X118007619Y-53452380D01*
X117864761Y-53404761D01*
X117769523Y-53309523D01*
X117721904Y-53214285D01*
X117674285Y-53023809D01*
X117674285Y-52880952D01*
X117721904Y-52690476D01*
X117769523Y-52595238D01*
X117864761Y-52500000D01*
X118007619Y-52452380D01*
X118102857Y-52452380D01*
X118245714Y-52500000D01*
X118293333Y-52547619D01*
X119198095Y-52452380D02*
X118721904Y-52452380D01*
X118674285Y-52928571D01*
X118721904Y-52880952D01*
X118817142Y-52833333D01*
X119055238Y-52833333D01*
X119150476Y-52880952D01*
X119198095Y-52928571D01*
X119245714Y-53023809D01*
X119245714Y-53261904D01*
X119198095Y-53357142D01*
X119150476Y-53404761D01*
X119055238Y-53452380D01*
X118817142Y-53452380D01*
X118721904Y-53404761D01*
X118674285Y-53357142D01*
D13*
%TO.C,Y2*%
X125857047Y-53826571D02*
X125857047Y-54255142D01*
X125590380Y-53355142D02*
X125857047Y-53826571D01*
X126123714Y-53355142D01*
X126352285Y-53440857D02*
X126390380Y-53398000D01*
X126466571Y-53355142D01*
X126657047Y-53355142D01*
X126733238Y-53398000D01*
X126771333Y-53440857D01*
X126809428Y-53526571D01*
X126809428Y-53612285D01*
X126771333Y-53740857D01*
X126314190Y-54255142D01*
X126809428Y-54255142D01*
D12*
%TO.C,D1*%
X120982619Y-76774523D02*
X120982619Y-75504523D01*
X121285000Y-75504523D01*
X121466428Y-75565000D01*
X121587380Y-75685952D01*
X121647857Y-75806904D01*
X121708333Y-76048809D01*
X121708333Y-76230238D01*
X121647857Y-76472142D01*
X121587380Y-76593095D01*
X121466428Y-76714047D01*
X121285000Y-76774523D01*
X120982619Y-76774523D01*
X122917857Y-76774523D02*
X122192142Y-76774523D01*
X122555000Y-76774523D02*
X122555000Y-75504523D01*
X122434047Y-75685952D01*
X122313095Y-75806904D01*
X122192142Y-75867380D01*
D14*
%TO.C,R4*%
X119025641Y-74802000D02*
X118718359Y-74802000D01*
X119025641Y-74042000D02*
X118718359Y-74042000D01*
%TO.C,R7*%
X119060060Y-67177341D02*
X119277341Y-66960060D01*
X118522659Y-66639940D02*
X118739940Y-66422659D01*
%TO.C,D2*%
X124035000Y-74785000D02*
X124035000Y-72500000D01*
X122565000Y-74785000D02*
X124035000Y-74785000D01*
X122565000Y-72500000D02*
X122565000Y-74785000D01*
%TO.C,C14*%
X124560000Y-68692164D02*
X124560000Y-68907836D01*
X123840000Y-68692164D02*
X123840000Y-68907836D01*
%TO.C,C2*%
X118764164Y-71014000D02*
X118979836Y-71014000D01*
X118764164Y-71734000D02*
X118979836Y-71734000D01*
%TO.C,R2*%
X124205000Y-58573641D02*
X124205000Y-58266359D01*
X123445000Y-58573641D02*
X123445000Y-58266359D01*
%TO.C,R10*%
X131920000Y-87763641D02*
X131920000Y-87456359D01*
X132680000Y-87763641D02*
X132680000Y-87456359D01*
%TO.C,R5*%
X119025641Y-72770000D02*
X118718359Y-72770000D01*
X119025641Y-72010000D02*
X118718359Y-72010000D01*
%TO.C,R6*%
X131571000Y-71220359D02*
X131571000Y-71527641D01*
X130811000Y-71220359D02*
X130811000Y-71527641D01*
D15*
%TO.C,S2*%
X134950000Y-84650000D02*
X134950000Y-80450000D01*
D13*
X132230000Y-85770000D02*
X132230000Y-85770000D01*
D15*
X133910000Y-84650000D02*
X132790000Y-84650000D01*
X133910000Y-80450000D02*
X132790000Y-80450000D01*
D13*
X132230000Y-85570000D02*
X132230000Y-85570000D01*
D15*
X131740000Y-84650000D02*
X131740000Y-80450000D01*
D13*
X132230000Y-85570000D02*
G75*
G03*
X132230000Y-85770000I0J-100000D01*
G01*
X132230000Y-85770000D02*
G75*
G03*
X132230000Y-85570000I0J100000D01*
G01*
D14*
%TO.C,R11*%
X123680000Y-70853641D02*
X123680000Y-70546359D01*
X122920000Y-70853641D02*
X122920000Y-70546359D01*
D15*
%TO.C,J5*%
X119990000Y-91307000D02*
X119990000Y-90130000D01*
X128930000Y-91307000D02*
X128930000Y-91307000D01*
X119990000Y-90130000D02*
X119990000Y-90130000D01*
X119960000Y-86880000D02*
X119990000Y-86880000D01*
D13*
X121060000Y-82930000D02*
X121060000Y-82930000D01*
D15*
X119990000Y-91307000D02*
X119990000Y-91307000D01*
X128930000Y-91307000D02*
X128930000Y-89880000D01*
X128930000Y-86880000D02*
X128930000Y-85880000D01*
X119990000Y-91307000D02*
X119990000Y-91307000D01*
X128930000Y-85880000D02*
X128930000Y-85880000D01*
X128930000Y-91307000D02*
X119990000Y-91307000D01*
X119990000Y-86130000D02*
X119960000Y-86130000D01*
D13*
X121060000Y-82930000D02*
X121060000Y-82930000D01*
D15*
X128930000Y-89880000D02*
X128930000Y-91307000D01*
D13*
X121160000Y-82930000D02*
X121160000Y-82930000D01*
D15*
X119990000Y-91307000D02*
X128930000Y-91307000D01*
X128930000Y-89880000D02*
X128930000Y-89880000D01*
X119990000Y-86880000D02*
X119990000Y-86130000D01*
X128930000Y-86880000D02*
X128930000Y-86880000D01*
X128930000Y-91307000D02*
X128930000Y-91307000D01*
X119990000Y-90130000D02*
X119990000Y-91307000D01*
X119960000Y-86130000D02*
X119960000Y-86880000D01*
X128930000Y-85880000D02*
X128930000Y-86880000D01*
D13*
X121160000Y-82930000D02*
G75*
G03*
X121060000Y-82930000I-50000J0D01*
G01*
X121060000Y-82930000D02*
G75*
G03*
X121160000Y-82930000I50000J0D01*
G01*
X121060000Y-82930000D02*
G75*
G03*
X121160000Y-82930000I50000J0D01*
G01*
D14*
%TO.C,C15*%
X129260000Y-65692164D02*
X129260000Y-65907836D01*
X128540000Y-65692164D02*
X128540000Y-65907836D01*
%TO.C,C10*%
X118292164Y-62632000D02*
X118507836Y-62632000D01*
X118292164Y-63352000D02*
X118507836Y-63352000D01*
%TO.C,C13*%
X122407836Y-59540000D02*
X122192164Y-59540000D01*
X122407836Y-60260000D02*
X122192164Y-60260000D01*
%TO.C,C1*%
X118764164Y-75798000D02*
X118979836Y-75798000D01*
X118764164Y-75078000D02*
X118979836Y-75078000D01*
%TO.C,C18*%
X129692164Y-81960000D02*
X129907836Y-81960000D01*
X129692164Y-81240000D02*
X129907836Y-81240000D01*
D16*
%TO.C,IC1*%
X121685000Y-61000000D02*
G75*
G03*
X121685000Y-61000000I-125000J0D01*
G01*
D14*
%TO.C,R1*%
X117153641Y-78120000D02*
X116846359Y-78120000D01*
X117153641Y-78880000D02*
X116846359Y-78880000D01*
D13*
%TO.C,IC2*%
X125020000Y-77950000D02*
X125020000Y-74450000D01*
X125020000Y-74450000D02*
X131520000Y-74450000D01*
X131520000Y-77950000D02*
X125020000Y-77950000D01*
X131520000Y-74450000D02*
X131520000Y-77950000D01*
X125145000Y-80225000D02*
X125145000Y-78475000D01*
D14*
%TO.C,D3*%
X127700000Y-70131000D02*
X125415000Y-70131000D01*
X125415000Y-70131000D02*
X125415000Y-71601000D01*
X125415000Y-71601000D02*
X127700000Y-71601000D01*
%TO.C,R12*%
X129386359Y-71246000D02*
X129693641Y-71246000D01*
X129386359Y-70486000D02*
X129693641Y-70486000D01*
%TO.C,C6*%
X120288164Y-57002000D02*
X120503836Y-57002000D01*
X120288164Y-56282000D02*
X120503836Y-56282000D01*
%TO.C,C4*%
X115960000Y-87492164D02*
X115960000Y-87707836D01*
X115240000Y-87492164D02*
X115240000Y-87707836D01*
%TO.C,C16*%
X130260000Y-65692164D02*
X130260000Y-65907836D01*
X129540000Y-65692164D02*
X129540000Y-65907836D01*
%TO.C,C7*%
X126472836Y-58145000D02*
X126257164Y-58145000D01*
X126472836Y-57425000D02*
X126257164Y-57425000D01*
%TO.C,C12*%
X122407836Y-58540000D02*
X122192164Y-58540000D01*
X122407836Y-59260000D02*
X122192164Y-59260000D01*
D15*
%TO.C,S1*%
X113960000Y-84650000D02*
X113960000Y-80450000D01*
X117170000Y-84650000D02*
X117170000Y-80450000D01*
X116130000Y-80450000D02*
X115010000Y-80450000D01*
D13*
X114450000Y-85570000D02*
X114450000Y-85570000D01*
X114450000Y-85770000D02*
X114450000Y-85770000D01*
D15*
X116130000Y-84650000D02*
X115010000Y-84650000D01*
D13*
X114450000Y-85770000D02*
G75*
G03*
X114450000Y-85570000I0J100000D01*
G01*
X114450000Y-85570000D02*
G75*
G03*
X114450000Y-85770000I0J-100000D01*
G01*
D14*
%TO.C,C17*%
X125074000Y-71481836D02*
X125074000Y-71266164D01*
X124354000Y-71481836D02*
X124354000Y-71266164D01*
%TO.C,C3*%
X123336164Y-54885000D02*
X123551836Y-54885000D01*
X123336164Y-55605000D02*
X123551836Y-55605000D01*
%TO.C,R8*%
X128423641Y-59562000D02*
X128116359Y-59562000D01*
X128423641Y-58802000D02*
X128116359Y-58802000D01*
%TO.C,C9*%
X118284164Y-63648000D02*
X118499836Y-63648000D01*
X118284164Y-64368000D02*
X118499836Y-64368000D01*
%TO.C,R9*%
X116980000Y-87753641D02*
X116980000Y-87446359D01*
X116220000Y-87753641D02*
X116220000Y-87446359D01*
%TO.C,C8*%
X133660000Y-87492164D02*
X133660000Y-87707836D01*
X132940000Y-87492164D02*
X132940000Y-87707836D01*
%TO.C,C11*%
X119500000Y-62692164D02*
X119500000Y-62907836D01*
X120220000Y-62692164D02*
X120220000Y-62907836D01*
%TO.C,R3*%
X120016000Y-73559641D02*
X120016000Y-73252359D01*
X120776000Y-73559641D02*
X120776000Y-73252359D01*
%TO.C,C5*%
X120288164Y-53446000D02*
X120503836Y-53446000D01*
X120288164Y-52726000D02*
X120503836Y-52726000D01*
D15*
%TO.C,Y2*%
X125840000Y-54380000D02*
X125840000Y-54380000D01*
X125840000Y-54280000D02*
X125840000Y-54280000D01*
X125840000Y-54280000D02*
G75*
G03*
X125840000Y-54380000I0J-50000D01*
G01*
X125840000Y-54380000D02*
G75*
G03*
X125840000Y-54280000I0J50000D01*
G01*
D13*
%TO.C,D1*%
X122195000Y-80165000D02*
X121645000Y-80165000D01*
X122195000Y-77315000D02*
X122195000Y-80165000D01*
X121645000Y-77315000D02*
X122195000Y-77315000D01*
X121645000Y-80165000D02*
X121645000Y-77315000D01*
X120045000Y-77140000D02*
X121295000Y-77140000D01*
%TD*%
M02*
